<svg xmlns="http://www.w3.org/2000/svg" fill="none" viewBox="0 0 663 643">
  <path fill="#FDDB12" d="M663 313.5c0 194.8-181 318-343.8 324.3C156.4 644.1-.3 485.1 4.1 328.3 8.4 171.4 123.5 11 319.2 5.2 515-.6 663 118.7 663 313.5z" opacity=".1"/>
  <path fill="#FDDB12" fill-rule="evenodd" d="M571.7 98.1C514.2 36.6 429.3-2 319.7 4.1 210.1 10.6 132.2 53.9 81.1 114.5 30.1 175 5.8 253 3.6 329 1.4 404.7 42.4 481.8 103 539.4c60.7 57.5 140.8 95.3 216.6 92.4 152.3-5.6 276.9-65 323.6-200.3a1.5 1.5 0 012.9 1 273.7 273.7 0 01-144.8 161.6c35.5-16.8 64.3-37 87-60.7C638 481.9 659.6 414 659.6 329S629.3 159.6 571.7 98zM476.3 605A643.8 643.8 0 01347 639.5a1.5 1.5 0 10.5 3c113.9-19.5 192.7-54.9 243-107 50.3-52.2 71.9-121 71.9-206.5 0-85.7-30.5-170.8-88.6-233C515.7 34 429.9-5.1 319.5 1.3c-110.4 6.3-189 50-240.7 111.2C27.3 173.7 2.8 252.4.6 329c-2.2 76.8 39.3 154.7 100.3 212.6 61 58 142 96.2 218.8 93.3A482 482 0 00476.3 605z" clip-rule="evenodd" opacity=".8"/>
  <path fill="#4700D6" d="M613.8 227.3l-1.3.9 1.3-.9zm-59 276.8l.7 1.3-.8-1.3zM267 450l1.3-.8-1.3.9zM330 153l.8 1.2-.8-1.2zm63.4-21a1.5 1.5 0 10.7 3l-.7-3zm214 78.8a1.5 1.5 0 002.2-2l-2.2 2zm5.1 17.4c27.3 39.2 34 95 23 147.6-11 52.6-39.3 101.5-81.5 127l1.5 2.6c43.1-26 71.9-75.9 83-129 11-53 4.4-109.8-23.5-150l-2.5 1.8zM554 502.8c-42.5 25.6-93.6 40.2-144.2 34.4-50.6-5.7-100.8-31.9-141.5-87.9l-2.5 1.8c41.3 56.7 92.2 83.3 143.7 89.1 51.4 5.9 103.1-9 146-34.8l-1.5-2.6zm-285.7-53.5c-40.8-56-48.4-114.8-34.3-167 14.2-52.3 50.2-98 96.8-128l-1.6-2.6c-47.2 30.3-83.7 76.8-98 129.8-14.4 53.1-6.6 112.8 34.6 169.6l2.5-1.8zM394 135c45.2-11.5 86-7.8 122.5 8.4 36.4 16.3 68.5 45.3 96 84.8l2.4-1.7c-27.7-39.8-60.2-69.3-97.2-85.8-37.1-16.6-78.7-20.2-124.4-8.6l.7 2.9zm-63.3 19.2c46.7-30 91.2-42.4 136.3-34.2 45 8.2 91 37.2 140.3 90.8l2.2-2c-49.5-53.8-96-83.4-142-91.8-46-8.4-91.3 4.4-138.4 34.7l1.6 2.5z" opacity=".8"/>
  <path fill="#E60053" d="M432 315.7c0 128-115.3 209-219.1 213.2C109.1 533 9.3 428.5 12.1 325.4c2.7-103 76-208.5 200.8-212.3C337.6 109.3 432 187.7 432 315.7z" opacity=".1"/>
  <path fill="#4700D6" d="M648 323.7c0 128-115 209-218.6 213.2C326 541 226.3 436.5 229.1 333.4c2.7-103 75.9-208.5 200.3-212.3C554 117.3 648 195.7 648 323.7z" opacity=".1"/>
  <path fill="#9C00E6" fill-rule="evenodd" d="M317.1 499.5c64.3-34.8 114.9-99 114.9-183.8 0-78.2-35.3-138-91.1-171.6C270.9 181.2 231 258 229 333.4c-1.7 63.4 35.2 127.3 88 166.1z" clip-rule="evenodd" opacity=".1"/>
  <path fill="#E60053" d="M213.6 527.5v1.5-1.5zM12.1 324.8h1.5H12zm201.5-214.3l.1 1.5v-1.5zm194 292a1.5 1.5 0 00-3-1l3 1zm-183.8 134a1.5 1.5 0 00.2 3l-.2-3zM213.6 526c-48 1.9-98.6-23.5-137-62-38.5-38.4-64.4-89.6-63-139.2h-3c-1.5 50.5 25 102.5 63.8 141.4 38.8 38.8 90.3 64.7 139.3 62.8l-.1-3zm-200-201.2c1.3-49.8 16.7-101 49-140.7 32.4-39.6 81.7-68 151.1-72.1l-.2-3c-70.2 4.2-120.3 32.9-153.2 73.3-32.8 40.3-48.3 92.1-49.7 142.4l3 .1zM213.7 112c69.4-4.2 122.3 18.7 157.9 56.3 35.6 37.7 53.9 90.4 53.9 146h3c0-56.3-18.5-109.7-54.7-148-36.3-38.4-90-61.5-160.3-57.3l.2 3zm191 289.5c-14.9 44.4-38.6 74.6-70.5 94.1-32 19.6-72.3 28.6-120.6 30.4v3c48.6-1.8 89.6-11 122.2-30.8 32.6-20 56.7-50.8 71.7-95.8l-2.8-1zm20.8-87.1c0 55.8-14.3 108.3-46.5 148.3-32.3 40-82.6 67.7-155.2 73.8l.2 3c73.3-6.1 124.5-34.2 157.3-75 32.8-40.6 47.2-93.8 47.2-150.1h-3z" opacity=".8"/>
  <path fill="#171355" d="M301.7 75h-2.9V58.8h5.3c1.2 0 2.3.2 3.1.7.9.5 1.5 1.1 2 2 .4.7.7 1.6.7 2.6s-.3 2-.7 2.8c-.5.8-1.1 1.5-2 2-.9.5-2 .7-3.1.7h-2.4V75zm0-6.3l-1.3-1.4h3.3c.7 0 1.3 0 1.8-.3.4-.3.8-.7 1-1.2.3-.4.4-1 .4-1.7 0-.6 0-1.2-.3-1.7-.3-.4-.6-.7-1.1-1a4 4 0 00-1.8-.3h-3.3l1.3-1.5v9.1zM312.1 75V63.3h3v3.9l-.7-.4c0-.5.2-1 .4-1.4.2-.5.4-.9.8-1.2.3-.3.7-.6 1.2-.8.4-.2 1-.3 1.6-.3a4.5 4.5 0 011.6.3l-.5 2.6-.5-.1-.9-.2c-.6 0-1 .1-1.5.3-.3.2-.7.5-.9.9l-.5 1a5 5 0 00-.2 1.3V75h-2.9zM327.4 75.2a5.7 5.7 0 01-6.3-6 5.7 5.7 0 013-5.3c1-.5 2-.8 3.3-.8 1.2 0 2.3.3 3.2.8 1 .5 1.7 1.2 2.2 2.1.6 1 .8 2 .8 3.2 0 1.1-.2 2.2-.8 3.1-.5 1-1.2 1.6-2.2 2.2-1 .5-2 .7-3.2.7zm0-2.3c.6 0 1.2-.2 1.7-.5s.9-.7 1.2-1.3c.3-.5.4-1.2.4-2 0-.7-.1-1.3-.4-1.9a3 3 0 00-3-1.7c-.6 0-1.2.1-1.7.4a3 3 0 00-1.1 1.3c-.3.6-.5 1.2-.5 2 0 .7.2 1.4.5 2a3.1 3.1 0 002.9 1.7zM340.9 75.2a5.1 5.1 0 01-4.6-2.8 7 7 0 01-.8-3.3c0-1.3.3-2.4.7-3.3a5.2 5.2 0 017.2-2 5 5 0 011.9 1.9c.4.8.7 1.7.7 2.7v.2h-1.4v-.1c0-.6-.2-1.1-.5-1.5a3 3 0 00-1.1-1 3 3 0 00-1.5-.4 3 3 0 00-2.1.8c-.6.6-1 1.5-1 2.7 0 1.2.4 2.1 1 2.7a3 3 0 002.1.9c.6 0 1-.1 1.5-.4a3 3 0 001.1-1c.3-.5.5-1 .5-1.6h1.4c0 1-.2 2-.7 2.8a4.8 4.8 0 01-4.4 2.7zm3.7-.2V57.8h2.9V75h-3zM354.5 75.2c-.8 0-1.5-.1-2-.4-.6-.3-1-.6-1.3-1.1-.4-.5-.6-1-.7-1.5l-.2-1.7v-.8-6.4h3v6.5l.1 1.4c.1.5.3.8.7 1.1.3.3.8.4 1.4.4.6 0 1-.1 1.5-.5.4-.3.7-.8 1-1.3.2-.5.3-1 .3-1.6l1 .7a6 6 0 01-.3 2c-.2.6-.6 1.2-1 1.7a4.5 4.5 0 01-3.5 1.5zm3.8-.2V63.3h3V75h-3zM369.8 75.2c-1.3 0-2.4-.2-3.3-.7-1-.5-1.7-1.2-2.2-2.2-.6-.9-.8-2-.8-3.2 0-1.2.2-2.3.8-3.2.5-.9 1.3-1.6 2.2-2 1-.5 2-.8 3.3-.8.9 0 1.7.2 2.4.4a5.4 5.4 0 013 2.6c.2.5.3 1 .3 1.6h-2.9v-.2c0-.3-.2-.7-.4-1l-1-.7c-.4-.2-.9-.3-1.5-.3s-1.1.2-1.6.4a3 3 0 00-1.2 1.2c-.3.6-.5 1.2-.5 2s.2 1.5.5 2c.3.6.7 1 1.2 1.3.5.3 1 .4 1.6.4.7 0 1.2 0 1.6-.3a2.3 2.3 0 001.3-1.9h3c0 .6-.2 1.1-.5 1.7-.2.5-.6 1-1 1.4-.5.5-1.1.9-1.9 1.1a7 7 0 01-2.4.4zM383.1 75.2a7 7 0 01-1.2-.1c-.5 0-.9-.2-1.2-.5-.4-.2-.7-.5-.9-1-.2-.3-.3-1-.3-1.6v-.5-5.9h-2.8v-2.3h2.1l.4-.3.2-.6v-3h3v4h3.4v2.2h-3.4V71.1c0 .6 0 1 .2 1.3.1.4.4.5.9.5a3.1 3.1 0 001.1-.2V75a4.1 4.1 0 01-1.5.2zM109.5 334v-14.8h4.8c1 0 1.8.2 2.6.6a6 6 0 012.1 1.5c.6.6 1 1.4 1.4 2.3a9.1 9.1 0 010 6c-.3.9-.8 1.7-1.4 2.3a6 6 0 01-2 1.6c-.9.3-1.8.5-2.7.5h-4.8zm3.1-1l-1.4-1.4h2.7c.7 0 1.3-.2 1.9-.6.6-.4 1-1 1.4-1.7.3-.8.5-1.7.5-2.7 0-1-.2-2-.5-2.7a4 4 0 00-1.4-1.6c-.6-.4-1.2-.7-2-.7h-2.6l1.4-1.4V333zM124 329.6v-2h7.1l-.3.5v-.2-.1c0-.4 0-.8-.3-1.1a2 2 0 00-.8-.9c-.4-.2-.8-.3-1.4-.3a3 3 0 00-1.6.4c-.4.2-.7.6-1 1a4 4 0 00-.3 1.7c0 .7.2 1.3.4 1.8s.5.8 1 1.1c.4.3 1 .4 1.5.4l1.1-.1.8-.3.4-.4.2-.5h3c0 .5-.2 1-.4 1.4l-1.1 1.1c-.5.4-1 .6-1.8.8-.6.2-1.4.3-2.3.3-1.2 0-2.2-.2-3-.7a5.1 5.1 0 01-2-2c-.6-.7-.8-1.7-.8-2.8 0-1 .2-2 .7-2.9a5 5 0 012-2c1-.4 2-.6 3.1-.6 1.2 0 2.2.2 3 .7 1 .5 1.6 1.1 2 2a6 6 0 01.8 3.4v.3h-10zM140.3 334.2c-.6 0-1.2 0-1.8-.2-.6-.1-1.1-.3-1.6-.6-.4-.3-.8-.7-1-1.1-.3-.4-.5-1-.5-1.5v-.1h3.1c0 .4.2.7.5.9.4.2.8.3 1.4.3l.9-.1c.3 0 .5-.2.7-.3l.3-.6c0-.3-.2-.6-.6-.7l-1.9-.5-1.5-.3c-.5-.2-1-.3-1.3-.6-.5-.2-.8-.5-1-1-.3-.3-.4-.8-.4-1.3 0-.7.2-1.3.6-1.8.5-.5 1-.9 1.8-1.1a7.3 7.3 0 014.7 0c.7.3 1.3.7 1.7 1.2.5.5.7 1.1.7 1.8v.1h-3c0-.3-.1-.5-.3-.7l-.6-.4h-1.6c-.3 0-.5.2-.7.3-.2.1-.3.3-.3.5 0 .3.1.4.3.6l.8.3 1.3.3 1.4.3c.5.1 1 .3 1.4.6.4.2.8.5 1 .9.3.4.5.8.5 1.4 0 .6-.2 1.2-.4 1.6-.3.4-.7.8-1.2 1-.5.3-1 .5-1.6.6a8 8 0 01-1.8.2zM147 334v-10.6h3.2V334H147zm1.6-12.4c-.5 0-.9 0-1.2-.3-.4-.3-.6-.6-.6-1.1 0-.5.2-.8.6-1 .3-.3.7-.5 1.2-.5s1 .2 1.3.4c.3.3.5.6.5 1.1 0 .5-.2.8-.5 1-.4.3-.8.4-1.3.4zM159.8 332.7l1.7.4c.5.2.9.5 1.1.8.3.4.4.9.4 1.5s-.2 1.2-.6 1.7c-.5.5-1.1.9-2 1.1-.9.3-2 .4-3.2.4-1.8 0-3.2-.3-4.2-.8s-1.5-1.2-1.5-2l.1-.8.2-.5 2.8.4v.3l-.1.3c0 .4.2.6.8.8a7.6 7.6 0 003.6.1c.4 0 .7-.2 1-.3l.3-.6c0-.3-.2-.5-.5-.6a5 5 0 00-1-.1l-4-.5c-.7 0-1.4-.2-1.8-.6-.5-.4-.8-.8-.8-1.4 0-.4.1-.7.3-1a3 3 0 011.4-1.2l1.6.8a1 1 0 00-.4.2c-.2.2-.3.3-.3.5s0 .4.3.5l1 .3 3.8.3zm1-9.3h2.8l-1.2 4c-.2.8-.5 1.5-.9 2.1-.4.6-1 1.1-1.6 1.4-.7.4-1.5.6-2.6.6-1 0-2-.2-2.8-.5-.8-.4-1.4-.8-1.8-1.4-.4-.7-.6-1.4-.6-2.2 0-.8.2-1.6.6-2.2.5-.6 1-1.1 1.8-1.5a6 6 0 014.6-.2c.6.3 1 .6 1.4 1 .4.4.6.8.6 1.3l-.5.1.2-2.5zm-3.5 5.8c.5 0 .8 0 1.2-.2l.8-.6.2-1c0-.4 0-.8-.2-1l-.8-.7-1.2-.2c-.4 0-.8 0-1.1.2-.4.2-.6.4-.8.7-.2.3-.3.6-.3 1s0 .7.3 1l.8.6 1.1.2zM172.5 334v-4.5-.7-.6l-.1-1.2c-.1-.3-.3-.6-.6-.8a2 2 0 00-1.3-.4c-.5 0-1 .1-1.3.4-.3.2-.6.5-.8.9l-.2 1.3-.9-.6c0-.9.2-1.7.6-2.4a4.4 4.4 0 013.9-2.2 4 4 0 012.1.5c.6.4 1 .8 1.3 1.5.3.6.4 1.3.4 2.2v6.6h-3zm-7.4 0v-10.6h3V334h-3zM463.4 321.6l1.4-1.4v6l-.7-.8h5.5v2.4H464l.7-.9v6.2l-1.4-1.5h7.3v2.4h-9v-14.8h9v2.4h-7.3zM480.6 334v-4.5-.7-.6c0-.4 0-.8-.2-1.2-.1-.3-.3-.6-.6-.8a2 2 0 00-1.3-.4c-.5 0-.9.1-1.2.4-.4.2-.6.5-.8.9-.2.4-.3.8-.3 1.3l-.9-.6c0-.9.2-1.7.6-2.4a4.4 4.4 0 014-2.2 4 4 0 012 .5c.7.4 1 .8 1.3 1.5.3.6.5 1.3.5 2.2v6.6h-3.1zm-7.5 0v-10.6h3.1V334h-3.1zM493.3 332.7l1.7.4c.5.2 1 .5 1.2.8.3.4.4.9.4 1.5s-.2 1.2-.7 1.7c-.4.5-1 .9-2 1.1-.8.3-1.9.4-3.1.4-1.8 0-3.2-.3-4.2-.8s-1.5-1.2-1.5-2v-.8l.3-.5 2.8.4-.1.3v.3c0 .4.2.6.7.8a7.6 7.6 0 003.6.1c.4 0 .7-.2 1-.3l.3-.6c0-.3-.1-.5-.4-.6a5 5 0 00-1-.1l-4-.5c-.8 0-1.4-.2-1.9-.6-.5-.4-.7-.8-.7-1.4 0-.4 0-.7.3-1a3 3 0 011.4-1.2l1.5.8a1 1 0 00-.4.2c-.2.2-.3.3-.3.5s.1.4.3.5l1 .3 3.8.3zm1-9.3h2.8l-1.1 4c-.2.8-.5 1.5-1 2.1-.3.6-.9 1.1-1.6 1.4-.6.4-1.5.6-2.5.6s-2-.2-2.8-.5c-.8-.4-1.4-.8-1.8-1.4-.5-.7-.7-1.4-.7-2.2 0-.8.2-1.6.7-2.2.4-.6 1-1.1 1.8-1.5a6 6 0 014.5-.2c.6.3 1.1.6 1.5 1 .4.4.6.8.6 1.3l-.6.1.3-2.5zm-3.4 5.8c.4 0 .8 0 1.1-.2l.8-.6c.2-.3.3-.7.3-1 0-.4-.1-.8-.3-1-.2-.3-.4-.5-.8-.7l-1.1-.2c-.5 0-.8 0-1.2.2l-.8.7c-.2.3-.3.6-.3 1s.1.7.3 1l.8.6 1.2.2zM498.5 334v-10.6h3V334h-3zm1.5-12.4c-.5 0-.9 0-1.2-.3-.4-.3-.6-.6-.6-1.1 0-.5.2-.8.6-1 .3-.3.7-.5 1.2-.5s1 .2 1.3.4c.3.3.5.6.5 1.1 0 .5-.2.8-.5 1-.4.3-.8.4-1.3.4zM511.3 334v-4.5-.7-.6l-.1-1.2-.7-.8a2 2 0 00-1.2-.4c-.5 0-1 .1-1.3.4-.3.2-.6.5-.8.9-.2.4-.3.8-.3 1.3l-.8-.6c0-.9.2-1.7.6-2.4a4.4 4.4 0 013.9-2.2 4 4 0 012.1.5c.6.4 1 .8 1.3 1.5.3.6.4 1.3.4 2.2v6.6h-3zm-7.5 0v-10.6h3.1V334h-3zM518 329.6v-2h7l-.3.5v-.2-.1c0-.4-.1-.8-.3-1.1a2 2 0 00-.8-.9c-.4-.2-.9-.3-1.5-.3a3 3 0 00-1.5.4c-.4.2-.8.6-1 1a4 4 0 00-.3 1.7c0 .7.1 1.3.3 1.8.2.5.6.8 1 1.1.4.3 1 .4 1.6.4l1-.1.8-.3.4-.4.2-.5h3c0 .5-.1 1-.4 1.4-.3.4-.6.8-1.1 1.1-.5.4-1 .6-1.7.8-.7.2-1.5.3-2.3.3-1.2 0-2.2-.2-3.1-.7a5.1 5.1 0 01-2-2c-.5-.7-.8-1.7-.8-2.8 0-1 .3-2 .8-2.9.5-.8 1.1-1.5 2-2 .9-.4 2-.6 3-.6 1.3 0 2.3.2 3.1.7.9.5 1.6 1.1 2 2a6 6 0 01.7 3.4v.3h-9.9zM531 329.6v-2h7l-.3.5v-.2-.1c0-.4-.1-.8-.3-1.1a2 2 0 00-.8-.9c-.4-.2-.9-.3-1.5-.3a3 3 0 00-1.5.4c-.4.2-.7.6-1 1a4 4 0 00-.3 1.7c0 .7.1 1.3.3 1.8.3.5.6.8 1 1.1.4.3 1 .4 1.6.4l1-.1.8-.3.5-.4.1-.5h3.1c0 .5-.2 1-.5 1.4-.2.4-.6.8-1 1.1-.5.4-1.1.6-1.8.8-.7.2-1.4.3-2.3.3-1.2 0-2.2-.2-3-.7a5.1 5.1 0 01-2.1-2c-.5-.7-.7-1.7-.7-2.8 0-1 .2-2 .7-2.9a5 5 0 012-2c1-.4 2-.6 3.1-.6 1.2 0 2.2.2 3 .7 1 .5 1.6 1.1 2 2a6 6 0 01.7 3.4v.3H531zM542.8 334v-10.6h3.1v3.6l-.6-.4c0-.5.2-1 .4-1.3.1-.5.4-.8.7-1.1l1.1-.8 1.5-.2a3.9 3.9 0 011.4.2l-.5 2.8-.4-.2h-.8c-.5 0-1 0-1.3.2-.4.2-.7.4-.9.7l-.5 1-.1 1v5.1h-3.1zM551.9 334v-10.6h3V334h-3zm1.5-12.4c-.5 0-.9 0-1.3-.3-.3-.3-.5-.6-.5-1.1 0-.5.2-.8.5-1 .4-.3.8-.5 1.3-.5s.9.2 1.3.4c.3.3.5.6.5 1.1 0 .5-.2.8-.5 1-.4.3-.8.4-1.3.4zM564.7 334v-4.5-.7-.6c0-.4 0-.8-.2-1.2 0-.3-.3-.6-.6-.8a2 2 0 00-1.3-.4c-.4 0-.8.1-1.2.4-.3.2-.6.5-.8.9-.2.4-.3.8-.3 1.3l-.8-.6c0-.9.2-1.7.6-2.4a4.4 4.4 0 013.9-2.2 4 4 0 012.1.5c.6.4 1 .8 1.3 1.5.2.6.4 1.3.4 2.2v6.6h-3.1zm-7.5 0v-10.6h3.1V334h-3zM577.4 332.7l1.8.4 1.1.8c.3.4.4.9.4 1.5s-.2 1.2-.7 1.7c-.4.5-1 .9-2 1.1-.8.3-1.9.4-3 .4-2 0-3.3-.3-4.3-.8s-1.5-1.2-1.5-2v-.8l.3-.5 2.8.4-.1.3v.3c0 .4.2.6.7.8a7.6 7.6 0 003.6.1c.4 0 .8-.2 1-.3l.3-.6c0-.3-.1-.5-.4-.6a5 5 0 00-1-.1l-4-.5c-.8 0-1.4-.2-1.9-.6-.5-.4-.7-.8-.7-1.4 0-.4.1-.7.3-1a3 3 0 011.4-1.2l1.6.8a1 1 0 00-.5.2l-.2.5c0 .2 0 .4.3.5l1 .3 3.7.3zm1-9.3h2.8l-1 4c-.3.8-.6 1.5-1 2.1-.4.6-1 1.1-1.6 1.4-.7.4-1.6.6-2.6.6s-2-.2-2.8-.5c-.8-.4-1.4-.8-1.8-1.4-.4-.7-.7-1.4-.7-2.2 0-.8.3-1.6.7-2.2.4-.6 1-1.1 1.8-1.5a6 6 0 014.5-.2c.7.3 1.1.6 1.5 1 .4.4.6.8.6 1.3l-.6.1.3-2.5zm-3.4 5.8c.4 0 .8 0 1.1-.2l.8-.6c.2-.3.3-.7.3-1 0-.4 0-.8-.3-1-.2-.3-.4-.5-.8-.7l-1.1-.2c-.4 0-.8 0-1.1.2-.4.2-.6.4-.8.7-.2.3-.3.6-.3 1s0 .7.3 1l.7.6 1.2.2z"/>
</svg>
