<svg xmlns="http://www.w3.org/2000/svg" fill="none" viewBox="0 0 507 146">
  <path fill="#DEE7FC" d="M42.4 68.7c2.8 6.5-2.8 15.9-13 20.3-1.9.8-3.3 1.2-5.2 1.6 0 0-1.7 7.3-5.8 9.1 2-6.4-1.3-8.5-1.3-8.5-5.7 0-9.5-2.5-11.2-6.6C3 78.2 8.4 68.2 18.5 63.8c10-4.4 21-1.6 23.9 5z" opacity=".6"/>
  <path fill="#DEE7FC" d="M24.1 123.5c-1.2 2-.7 3.9-.7 3.9l3.2-2.6c3.1 1.5 2.8 3.2 2.8 3.2s.7-2.5 0-3.8c1.2-2 2.6-2.6 2.6-2.6s-1.6-.8-4-1l-1.4-2.6c-.2-.2-.9 1.2-1.8 2.7-1.4 0-2.5-.3-2.8-.3-.2.1 1.3 1.7 2.1 3.1zM45.1 42.5c-1.2 2-.7 3.9-.7 3.9l3.2-2.6c3.1 1.5 2.8 3.2 2.8 3.2s.7-2.5 0-3.8c1.2-2 2.6-2.6 2.6-2.6s-1.6-.8-4-1L47.7 37c-.2-.2-.9 1.2-1.8 2.7-1.4 0-2.5-.3-2.8-.3-.2.1 1.3 1.7 2.1 3.1zM120.1 131.5c-1.2 2-.7 3.9-.7 3.9l3.2-2.6c3.1 1.5 2.8 3.2 2.8 3.2s.7-2.5 0-3.8c1.2-2 2.6-2.6 2.6-2.6s-1.6-.8-4-1l-1.4-2.6c-.2-.2-.9 1.2-1.8 2.7-1.4 0-2.5-.3-2.8-.3-.2.1 1.3 1.7 2.1 3.1zM166.5 120.5c2.4.4 3.9-.8 3.9-.8l-3.6-2c.3-3.4 2-3.7 2-3.7s-2.6.2-3.6 1.4c-2.2-.4-3.3-1.6-3.3-1.6s-.2 1.8.6 4c-1 1.3-1.9 2.1-2 2.4-.1.3 1.4.4 3.1.7.5 1.3.7 2.5.8 2.7.2.2 1-1.8 2.1-3zM133 16c2.4.3 3.8-.8 3.8-.8l-3.5-2c.2-3.5 2-3.7 2-3.7s-2.6.2-3.6 1.3c-2.3-.4-3.3-1.5-3.3-1.5s-.2 1.8.5 4l-2 2.4c0 .2 1.4.4 3.2.7.4 1.2.6 2.4.8 2.6.1.3 1-1.8 2.1-3zM198 83c2.4.3 3.8-.8 3.8-.8l-3.5-2c.2-3.5 2-3.7 2-3.7s-2.6.2-3.6 1.3a6.4 6.4 0 01-3.3-1.5s-.2 1.8.5 4l-2 2.4c0 .2 1.4.4 3.2.7.4 1.2.6 2.4.8 2.6.1.3 1-1.8 2.1-3zM244 13c2.4.3 3.8-.8 3.8-.8l-3.5-2c.2-3.5 2-3.7 2-3.7s-2.6.2-3.6 1.3c-2.3-.4-3.3-1.5-3.3-1.5s-.2 1.8.5 4l-2 2.4c0 .2 1.4.4 3.2.7.4 1.2.6 2.4.8 2.6.1.3 1-1.8 2.1-3zM86 82c2.4.3 3.8-.8 3.8-.8l-3.5-2c.2-3.5 2-3.7 2-3.7s-2.6.2-3.6 1.3c-2.3-.4-3.3-1.5-3.3-1.5s-.2 1.8.5 4l-2 2.4c0 .2 1.4.4 3.2.7.4 1.2.6 2.4.8 2.6.1.3 1-1.8 2.1-3zM298 81c2.4.3 3.8-.8 3.8-.8l-3.5-2c.2-3.5 2-3.7 2-3.7s-2.6.2-3.6 1.3a6.4 6.4 0 01-3.3-1.5s-.2 1.8.5 4l-2 2.4c0 .2 1.4.4 3.2.7.4 1.2.6 2.4.8 2.6.1.3 1-1.8 2.1-3zM355 9c2.4.3 3.8-.8 3.8-.8l-3.5-2c.2-3.5 2-3.7 2-3.7s-2.6.2-3.6 1.3c-2.3-.4-3.3-1.5-3.3-1.5s-.2 1.8.5 4l-2 2.4c0 .2 1.4.4 3.2.7.4 1.2.6 2.4.8 2.6.1.3 1-1.8 2.1-3zM353 125c2.4.3 3.8-.8 3.8-.8l-3.5-2c.2-3.5 2-3.7 2-3.7s-2.6.2-3.6 1.3c-2.3-.4-3.3-1.5-3.3-1.5s-.2 1.8.5 4l-2 2.4c0 .2 1.4.4 3.2.7.4 1.2.6 2.4.8 2.6.1.3 1-1.8 2.1-3zM255 131c2.4.3 3.8-.8 3.8-.8l-3.5-2c.2-3.5 2-3.7 2-3.7s-2.6.2-3.6 1.3c-2.3-.4-3.3-1.5-3.3-1.5s-.2 1.8.5 4l-2 2.4c0 .2 1.4.4 3.2.7.4 1.2.6 2.4.8 2.6.1.3 1-1.8 2.1-3zM408 83c2.4.3 3.8-.8 3.8-.8l-3.5-2c.2-3.5 2-3.7 2-3.7s-2.6.2-3.6 1.3a6.4 6.4 0 01-3.3-1.5s-.2 1.8.5 4l-2 2.4c0 .2 1.4.4 3.2.7.4 1.2.6 2.4.8 2.6.1.3 1-1.8 2.1-3zM449 16c2.4.3 3.8-.8 3.8-.8l-3.5-2c.2-3.5 2-3.7 2-3.7s-2.6.2-3.6 1.3c-2.3-.4-3.3-1.5-3.3-1.5s-.2 1.8.5 4l-2 2.4c0 .2 1.4.4 3.2.7.4 1.2.6 2.4.8 2.6.1.3 1-1.8 2.1-3zM458 111c2.4.3 3.8-.8 3.8-.8l-3.5-2c.2-3.5 2-3.7 2-3.7s-2.6.2-3.6 1.3c-2.3-.4-3.3-1.5-3.3-1.5s-.2 1.8.5 4l-2 2.4c0 .2 1.4.4 3.2.7.4 1.2.6 2.4.8 2.6.1.3 1-1.8 2.1-3zM496 78c2.4.3 3.8-.8 3.8-.8l-3.5-2c.2-3.5 2-3.7 2-3.7s-2.6.2-3.6 1.3a6.4 6.4 0 01-3.3-1.5s-.2 1.8.5 4l-2 2.4c0 .2 1.4.4 3.2.7.4 1.2.6 2.4.8 2.6.1.3 1-1.8 2.1-3z"/>
  <path fill="#DEE7FC" d="M475.9 76.2c-1.2 7-11.1 11.6-22 9.7-2-.4-3.4-.9-5.3-1.6 0 0-5.4 5.2-9.9 4.4 5.4-4.2 3.7-7.8 3.7-7.8-4.8-3.2-6.5-7.4-5.8-11.7 1.3-7 11.3-12.3 22.1-10.3 10.9 1.9 18.4 10.3 17.2 17.3zM125 82.3c2 6.7 12.4 10.3 23 7.1 2-.6 3.3-1.2 5-2.1 0 0 6 4.5 10.4 3.2-5.8-3.6-4.5-7.3-4.5-7.3 4.3-3.7 5.6-8.1 4.4-12.3-2-6.8-12.6-11-23.2-7.8-10.5 3.2-17 12.4-15 19.2zM99.7 127.8c-2.2 6.7-12.6 10-23 6.5-2.1-.7-3.4-1.3-5-2.3 0 0-6.2 4.4-10.5 3 5.9-3.5 4.7-7.2 4.7-7.2-4.2-3.8-5.4-8.3-4-12.4 2.2-6.8 12.8-10.6 23.3-7.2 10.5 3.4 16.7 12.9 14.5 19.6zM69.9 36c-1.3 7 6.4 14.8 17.3 16.7 2 .4 3.5.4 5.4.3 0 0 3.4 6.8 7.9 7.6-3.6-5.9-.8-8.6-.8-8.6 5.5-1.4 8.6-4.7 9.4-9 1.2-7-6.3-15.4-17.2-17.4-10.8-1.9-20.8 3.5-22 10.4zM210 34.6c1 5.4-5 11.4-13.3 12.8-1.6.3-2.7.3-4.2.3 0 0-2.6 5.2-6 5.8 2.7-4.5.6-6.6.6-6.6-4.2-1-6.6-3.6-7.2-7-1-5.3 4.9-11.8 13.2-13.2 8.3-1.5 16 2.6 17 8zM281.5 24.6c-1 5.4 5 11.4 13.3 12.8 1.6.3 2.7.3 4.2.3 0 0 2.6 5.2 6 5.8-2.7-4.5-.6-6.6-.6-6.6 4.3-1 6.7-3.6 7.3-7 1-5.3-4.9-11.8-13.2-13.2-8.4-1.5-16 2.6-17 8zM422 34.6c1 5.4-5 11.4-13.3 12.8-1.6.3-2.7.3-4.2.3 0 0-2.6 5.2-6 5.8 2.7-4.5.6-6.6.6-6.6-4.2-1-6.6-3.6-7.2-7-1-5.3 4.9-11.8 13.2-13.2 8.3-1.5 16 2.6 17 8zM504 19.6c1 5.4-5 11.4-13.3 12.8-1.6.3-2.7.3-4.2.3 0 0-2.6 5.2-6 5.8 2.7-4.5.6-6.6.6-6.6-4.2-1-6.6-3.6-7.2-7-1-5.3 4.9-11.8 13.2-13.2 8.3-1.5 16 2.6 17 8zM314 113.6c1 5.4-5 11.4-13.3 12.8-1.6.3-2.7.3-4.2.3 0 0-2.6 5.2-6 5.8 2.7-4.5.6-6.6.6-6.6-4.2-1-6.6-3.6-7.2-7-1-5.3 4.9-11.8 13.2-13.2 8.3-1.5 16 2.6 17 8zM221.9 125.5c-.4 6.5-9 11.9-19.2 11.3-2-.2-3.3-.5-5-1 0 0-4.5 5.4-8.7 5.2 4.4-4.5 2.5-7.6 2.5-7.6-4.7-2.4-6.7-6.1-6.5-10.2.4-6.5 9-12.5 19.2-11.8 10.2.6 18 7.6 17.7 14zM259 73.2c-.5 6.6-9 12-19.3 11.3-2-.1-3.2-.4-5-.9 0 0-4.5 5.4-8.6 5.1 4.4-4.4 2.5-7.5 2.5-7.5-4.7-2.4-6.8-6.2-6.5-10.2.4-6.5 9-12.5 19.2-11.9 10.2.6 18 7.6 17.6 14.1zM388.8 113.2c.4 6.6 9 12 19.2 11.3 2-.1 3.2-.4 5-.9 0 0 4.5 5.4 8.7 5.1-4.5-4.4-2.6-7.5-2.6-7.5 4.7-2.5 6.8-6.2 6.5-10.2-.4-6.5-9-12.5-19.2-11.9-10.2.6-18 7.6-17.6 14.1zM331.9 78.4c1.5 6.4 10.9 10.2 20.8 7.9 2-.5 3.1-1 4.8-1.8 0 0 5.3 4.5 9.4 3.6-5.2-3.7-3.8-7-3.8-7 4.2-3.2 5.6-7.2 4.7-11.2-1.5-6.3-11-10.7-21-8.4-9.9 2.3-16.4 10.5-15 17z" opacity=".6"/>
</svg>
