<svg xmlns="http://www.w3.org/2000/svg" fill="none" viewBox="0 0 78 60">
  <path fill="#fddb12" d="M63 22.2c0 11.2-14.1 21.2-31.5 21.2-3.4 0-5.6-.4-8.6-1 0 0-7.1 9.6-14.3 9.6 7.2-8 3.6-13.1 3.6-13.1C3.9 35.2 0 29 0 22.2 0 11.1 14.1 0 31.5 0S63 11 63 22.2z"/>
  <path fill="#fff" fill-rule="evenodd" d="M68.5 49.6c6.2-3.1 9.5-8.3 9.5-14.4 0-5.3-3.3-10.2-8-13.6-4.7-3.4-11-5.6-18-5.6s-13.3 2.2-18 5.6c-4.7 3.4-8 8.3-8 13.6 0 5.4 3.4 10.1 8 13.3a32 32 0 0023.1 4.8l2.4 2.4c2 1.8 5.4 4.3 9.2 4.3h6.6L71 55c-2.3-2.5-2.5-4.2-2.5-5v-.4zm-10.2.4c-2.2.4-3.8.7-6.3.7-12.7 0-23-7.3-23-15.5C29 27.1 39.3 19 52 19s23 8 23 16.2c0 5-2.9 9.5-9 12.2 0 0-1.4 2.2.2 5.8.5 1.1 1.2 2.4 2.5 3.8-1.7 0-3.4-.7-4.9-1.7-3.1-2.1-5.5-5.3-5.5-5.3z" clip-rule="evenodd"/>
  <path fill="#4700D6" d="M29 35.2c0 8.2 10.3 15.5 23 15.5 2.5 0 4-.3 6.3-.7 0 0 5.2 7 10.4 7-5.2-5.9-2.6-9.6-2.6-9.6 6-2.7 8.9-7.1 8.9-12.2C75 27.1 64.7 19 52 19s-23 8-23 16.2z"/>
  <path fill="#fff" d="M45.3 35.2c0 1.7-2 3.5-4 3.6-2 0-4-1.8-4-3.6a4 4 0 014-3.8c2.5 0 4 2 4 3.8zM56.2 34.8c0 1.5-1.7 3.2-3.6 3.3-2 0-3.7-1.7-3.7-3.3 0-1.7 1.4-3.4 3.7-3.4 2.2 0 3.7 1.9 3.6 3.4zM68.6 34c0 1.6-1.8 3.3-3.6 3.3-2 0-3.7-1.6-3.7-3.2 0-1.7 1.4-3.4 3.7-3.4 2.2-.1 3.7 1.8 3.6 3.4z"/>
</svg>
