<svg xmlns="http://www.w3.org/2000/svg" fill="none" viewBox="0 0 57 337" width="57" height="337">
  <path fill="url(#paint0_linear)" fill-rule="evenodd" d="M42.58 31.945c-1.177 3.271-2.299 6.388-3.172 9.157-10.434 33.077-10.223 69.356-9.978 111.323.029 4.822.057 9.719.07 14.695.124 47.551-1.213 101.961-18.385 165.88H17.5a2 2 0 110 4h-15a2 2 0 110-4h4.472C24.27 269.152 25.624 214.837 25.5 167.13c-.013-4.98-.042-9.892-.071-14.738-.25-41.833-.471-78.778 10.164-112.494.899-2.85 2.064-6.086 3.253-9.39.472-1.31.947-2.63 1.41-3.942 1.655-4.675 3.18-9.265 4.028-13.146.423-1.94.662-3.633.68-5.027.014-1.004-.09-1.756-.256-2.303l-6.394-.599a2 2 0 01-.48-3.877c2.269-.8 4.292-1.145 6.024-.868 1.27.204 2.329.735 3.143 1.542l7.686.72a2 2 0 01-.373 3.983L48.86 6.48c.083.643.112 1.303.103 1.966-.024 1.767-.319 3.75-.773 5.827-.906 4.15-2.509 8.951-4.163 13.628a802.86 802.86 0 01-1.448 4.044z" clip-rule="evenodd"/>
  <defs>
    <linearGradient id="paint0_linear" x1="53.006" x2="-771.545" y1="24.012" y2="443.003" gradientUnits="userSpaceOnUse">
      <stop stop-color="#F3568F"/>
      <stop offset="1" stop-color="#C81EF2"/>
    </linearGradient>
  </defs>
</svg>
