<svg xmlns="http://www.w3.org/2000/svg" fill="none" viewBox="0 0 945 407">
  <path fill="#1D0354" fill-rule="evenodd" d="M942.507 8.07c1.274 2.146 1.99 4.628 1.448 6.794-.873 3.494-2.412 5.996-4.799 7.575-1.301.86-2.786 1.4-4.427 1.71-1.298 3.742-2.745 8.822-6.275 22.72-2.086 8.211-8.158 15.8-17.363 22.885-9.219 7.096-21.722 13.796-36.936 20.193-30.432 12.796-71.971 24.487-120.442 35.686-62.817 14.515-137.443 28.24-214.858 42.479-42.044 7.732-84.911 15.617-127.155 23.86-120.116 23.441-235.198 49.791-312.488 83.854-38.67 17.043-67.656 35.923-83.146 57.15-7.724 10.585-12.07 21.722-12.627 33.506-.556 11.787 2.676 24.346 10.316 37.777a1.5 1.5 0 11-2.608 1.483C3.287 391.923-.145 378.806.443 366.341c.588-12.469 5.192-24.161 13.2-35.133 15.97-21.886 45.563-41.029 84.359-58.127 77.64-34.218 193.04-60.619 313.124-84.053 42.324-8.26 85.229-16.151 127.29-23.886 77.363-14.229 151.866-27.931 214.621-42.432 48.432-11.19 89.768-22.835 119.955-35.528 15.095-6.347 27.336-12.93 36.269-19.805 8.946-6.886 14.433-13.957 16.285-21.246 3.169-12.476 4.678-17.914 5.904-21.645-.313.01-.63.014-.95.014-4.36 0-6.813-4.005-7.358-7.629-.551-3.664.628-8.227 4.839-9.779 2.323-.855 5.496-.942 7.766.606 1.187.81 2.068 2.037 2.391 3.676.315 1.601.078 3.488-.734 5.653a327.854 327.854 0 01-1.119 2.936l-.281.733a7.623 7.623 0 001.497-.76c1.581-1.046 2.792-2.794 3.544-5.8.271-1.084-.045-2.727-1.118-4.534a13.283 13.283 0 00-4.691-4.614c-1.984-1.142-4.255-1.707-6.603-1.313-2.338.391-4.921 1.76-7.488 4.794a1.5 1.5 0 11-2.29-1.938c2.933-3.466 6.115-5.285 9.282-5.815 3.156-.529 6.126.25 8.595 1.671a16.287 16.287 0 015.775 5.683zm-9.984 13.351c.301-.812.611-1.619.953-2.507.335-.873.701-1.825 1.12-2.94.688-1.836.772-3.137.599-4.02-.167-.845-.584-1.4-1.138-1.777-1.213-.827-3.29-.914-5.038-.27-2.289.844-3.36 3.53-2.911 6.518.455 3.027 2.252 5.075 4.392 5.075.72 0 1.393-.026 2.023-.079z" clip-rule="evenodd"/>
</svg>
