<svg xmlns="http://www.w3.org/2000/svg" fill="none" viewBox="0 0 372 337" width="372" height="337">
  <path fill="url(#paint0_linear)" fill-rule="evenodd" d="M358.415 28.467c-1.541 4.476-3.034 8.815-3.977 12.525-8.037 31.641-30.923 57.456-61.094 80.427-29.995 22.838-67.458 43.06-105.287 63.48l-.67.361c-38.123 20.578-76.593 41.383-108.537 65.386-31.203 23.446-55.985 49.804-68.126 81.749l4.08.628a2 2 0 01-.463 3.97l-12.5-1a2 2 0 11.319-3.987l4.31.345c12.332-33.58 38.055-60.917 69.977-84.903 32.228-24.216 70.976-45.161 109.04-65.708l.492-.266c37.962-20.49 75.196-40.589 104.942-63.237 29.877-22.748 51.928-47.87 59.641-78.23.985-3.877 2.529-8.363 4.049-12.778l.259-.755c1.62-4.708 3.176-9.296 4.082-13.178.452-1.94.724-3.628.775-5.018.036-.954-.038-1.674-.172-2.202l-6.242-.585a2 2 0 01-.479-3.877c2.26-.798 4.27-1.149 5.982-.879 1.265.2 2.314.733 3.11 1.546l7.761.728a2 2 0 01-.374 3.982l-5.643-.529c.067.644.079 1.304.055 1.963-.065 1.75-.397 3.718-.878 5.78-.961 4.117-2.589 8.905-4.194 13.57l-.238.692z" clip-rule="evenodd"/>
  <defs>
    <linearGradient id="paint0_linear" x1="367.997" x2="-456.554" y1="23.994" y2="442.986" gradientUnits="userSpaceOnUse">
      <stop stop-color="#F3568F"/>
      <stop offset="1" stop-color="#C81EF2"/>
    </linearGradient>
  </defs>
</svg>
