<svg xmlns="http://www.w3.org/2000/svg" fill="none" viewBox="0 0 136 136">
  <circle cx="66" cy="67" r="55" stroke="#FDDB12" stroke-width="2"/>
  <circle cx="65" cy="66" r="50" fill="#F9CF39" fill-opacity=".1"/>
  <path fill="#fff" d="M45 64c0 14.4-10.6 25-25 25S0 78.4 0 64s5.6-25 20-25 25 10.6 25 25z"/>
  <circle cx="20" cy="64" r="16.5" fill="#fff" stroke="#4700D6" stroke-width="7"/>
  <circle cx="3" cy="43" r="3" fill="#4700D6"/>
  <circle cx="10" cy="94" r="3" fill="#4700D6"/>
  <circle cx="44" cy="89" r="3" fill="#4700D6"/>
  <path fill="#fff" d="M82 96.6c0-.8 22.8-59.8 33.1-55.5 10.4 4.4 13.9 55.5 13.9 55.5s-47 .9-47 0z"/>
  <path fill="#E60053" d="M93 88.7c0-.5 20.2-40 22.4-37.6 2.3 2.3 19.6 37.6 19.6 37.6s-42 .6-42 0z"/>
  <path fill="#fff" d="M103 81.9c0-.3 10.6-20 11.8-18.9C115.9 64.3 125 82 125 82s-22 .3-22 0z"/>
  <path fill="#E60053" fill-rule="evenodd" d="M128.7 57.7c-1 1.6-1.7 3-1.7 3.1h3.4l1.3 2.2 1.4-2.2h2.1l-1-1.9L136 56l-3.4-.2c-.6-1.1-1-2-1.2-2.1-.2-.2-.8.7-1.5 2-1-.1-1.8-.2-2-.1-.2 0 .2 1 .8 2zM112.7 101.7c-1 1.6-1.7 3-1.7 3.1h3.4l1.3 2.2 1.4-2.2h2.1l-1-1.9 1.8-2.9-3.4-.2c-.6-1.1-1-2-1.2-2.1-.2-.2-.8.7-1.5 2-1-.1-1.8-.2-2-.1-.2 0 .2 1 .8 2zM95.7 50.7a52 52 0 00-1.7 3.1h3.4l1.3 2.2 1.4-2.2h2.1l-1-1.9L103 49l-3.4-.2c-.6-1.1-1-2-1.2-2.1-.2-.2-.8.7-1.5 2-1-.1-1.8-.2-2-.1-.2 0 .2 1 .8 2z" clip-rule="evenodd"/>
  <path fill="#fff" fill-rule="evenodd" d="M114.5 77c-.1 1-1.5 2.7-2 2.5l-32-3-22.8 16c-.2.4-1.4.6-1.7.5L19 67.5c-1-.5.2-3.5.5-4.5.5-1.5 2.5-4.2 3-4l31 8.5 21.8-19c.3-.4.9-.6 1.2-.5L115 72c.5.2-.4 4.1-.5 5z" clip-rule="evenodd"/>
  <path fill="#FDDB12" fill-rule="evenodd" d="M114.5 77c-.1 1-1.5 2.2-2 2L79 66.5 57.7 83.9c-.7.6-1.2 1.1-2.2.6L20.5 66c-1-.5-1.3-2-1-3 .5-1.5 2-1.7 2.5-1.5l33 13 21.8-18.4c.7-.6.9-.7 1.2-.6L114 74c.5.2.6 2.1.5 3z" clip-rule="evenodd"/>
  <path fill="#FDDB12" fill-rule="evenodd" d="M68.5 51.9L54.7 62c-2.4 1.7-4.3 0-2.7-2.1l14-10.5c1.6-.9 3.3-.2 2.5 2.4zM94.3 78.2L82 74.9c-2-.6-2-2.5 0-2.5l12.6 3.3c1.2.5 1.7 1.8-.2 2.5z" clip-rule="evenodd"/>
  <circle cx="20" cy="63" r="5" fill="#4700D6"/>
  <circle cx="113.5" cy="76.5" r="3.5" fill="#E60053"/>
</svg>
