<svg xmlns="http://www.w3.org/2000/svg" fill="none" viewBox="0 0 136 137">
  <path fill="#F9CF39" fill-opacity=".1" d="M112.5 65A48.7 48.7 0 0163 115.5c-28.7 0-52-21.8-52-50.5s19.5-49.5 52-49.5A47.8 47.8 0 01112.5 65z"/>
  <path stroke="#FD3" stroke-width="3" d="M120.5 68c0 15-8 28.6-19 38.4C90.7 116.3 77 122 66.2 121a63.7 63.7 0 01-40.5-16.3C16.4 95.6 11.5 83 11.5 68 11.5 37.8 33 13 63 13c33.7 0 57.5 25 57.5 55z"/>
  <path fill="#fff" d="M45 62c0 14.4-10.6 25-25 25S0 76.4 0 62s5.6-25 20-25 25 10.6 25 25z"/>
  <path fill="#4700D6" fill-rule="evenodd" d="M20 76c7.2 0 14-7.8 14-15 0-4.2-2.2-7-4-8.7-1.6-1.8-4.6-3.3-10-3.3-7.2 0-12 4.8-12 12 0 7.7 5.3 15 12 15zm-1 6c11 0 21-10 21-21s-6.5-19-20-19C9 42 0 51 0 62s8 20 19 20z" clip-rule="evenodd"/>
  <circle cx="3" cy="41" r="3" fill="#4700D6"/>
  <circle cx="10" cy="92" r="3" fill="#4700D6"/>
  <circle cx="45" cy="77" r="3" fill="#4700D6"/>
  <path fill="#fff" d="M82 96.6c0-.8 27.8-59.3 33.1-55.5C120.5 45 129 96.6 129 96.6s-47 .9-47 0z"/>
  <path fill="#E60053" d="M92 87.5c0-.6 22.4-38.7 24.5-36.3C118.6 53.7 134 90 134 90s-42-1.8-42-2.4z"/>
  <path fill="#fff" d="M103 81.9c0-.3 10.6-20 11.8-18.9C115.9 64.3 125 82 125 82s-22 .3-22 0z"/>
  <path fill="#E60053" d="M128.7 57.7c-1 1.6-1.7 3-1.7 3.1h3.4l1.3 2.2 1.4-2.2h2.1l-1-1.9L136 56l-3.4-.2c-.6-1.1-1-2-1.2-2.1-.2-.2-.8.7-1.5 2-1-.1-1.8-.2-2-.1-.2 0 .2 1 .8 2z"/>
  <path fill="#E60053" fill-rule="evenodd" d="M112.7 101.7c-1 1.6-1.7 3-1.7 3.1h3.4l1.3 2.2 1.4-2.2h2.1l-1-1.9 1.8-2.9-3.4-.2c-.6-1.1-1-2-1.2-2.1-.2-.2-.8.7-1.5 2-1-.1-1.8-.2-2-.1-.2 0 .2 1 .8 2zM95.7 50.7a52 52 0 00-1.7 3.1h3.4l1.3 2.2 1.4-2.2h2.1l-1-1.9L103 49l-3.4-.2c-.6-1.1-1-2-1.2-2.1-.2-.2-.8.7-1.5 2-1-.1-1.8-.2-2-.1-.2 0 .2 1 .8 2z" clip-rule="evenodd"/>
  <path fill="#fff" fill-rule="evenodd" d="M86.6 2.2a9.5 9.5 0 013.7 13l-21.4 38 14 24.4-29.6 52.6a9.5 9.5 0 01-16.6-9.4l24.4-43-14-24.4L73.7 5.9a9.5 9.5 0 0113-3.7z" clip-rule="evenodd"/>
  <path fill="#FD3" fill-rule="evenodd" d="M88.7 1.3c1.7 1 1.3 3.7 1 4.5l-28.3 46 13.3 26.5c.4.8-1.6 5.8-2 6.6l-29 50.8a2.5 2.5 0 01-3.4 1 2.6 2.6 0 01-1-3.5l29.3-52.6-12.3-24.5c-.4-.8-.4-1.8 0-2.5l29-51.3a2.5 2.5 0 013.4-1z" clip-rule="evenodd"/>
</svg>
