<svg xmlns="http://www.w3.org/2000/svg" fill="none" viewBox="0 0 136 136">
  <circle cx="69" cy="67" r="55" stroke="#FDDB12" stroke-width="2"/>
  <circle cx="66" cy="64" r="52" fill="#F9CF39" fill-opacity=".1"/>
  <path fill="#fff" fill-rule="evenodd" d="M133 117.7c-.1 1.4-1.2 2.4-2.5 2.3 0 0-60.7-1.2-66.3-.9-5.7.4-50.2 0-59.1-.1-1.3-.1-2.2-1.3-2-2.7 0-1.4 1.2-2.4 2.4-2.3h55.7l69.7 1c1.1 0 2.2 1.3 2 2.7z" clip-rule="evenodd"/>
  <path fill="#fff" d="M118.5 117.5c1.9 0 1.8-59.6 1.5-62.5-.3-2.9-48-1.5-48-1.5V117c17.4 1.5 36 1 46.5.5z"/>
  <path fill="#E60053" d="M116.6 119c1.8-.1 1.5-59.4 1.1-62.3-.3-3-43.7-1.2-43.7-1.2V119h5.5l-1-58s34.3-1.6 34.5 1c.2 2.4.5 49.2-.5 56.5 3 0 3.7.5 4 .5z"/>
  <path fill="#E60053" d="M100 105l-1.2 13-6.6-.5L91 105h9zM109 91l-.5 3.5-25-1V90l25.5 1zM109 79l-.5 3.5h-25V79H109zM108.5 69.5v3h-25V69l25 .5zM122.7 52.7c-1 1.6-1.7 3-1.7 3.1h3.4l1.3 2.2 1.4-2.2h2.1l-1-1.9L130 51l-3.4-.2c-.6-1.1-1-2-1.2-2.1-.2-.2-.8.7-1.5 2-1-.1-1.8-.2-2-.1-.2 0 .2 1 .8 2zM94.7 36.7a52 52 0 00-1.7 3.1h3.4l1.3 2.2 1.4-2.2h2.1l-1-1.9L102 35l-3.4-.2c-.6-1.1-1-2-1.2-2.1-.2-.2-.8.7-1.5 2-1-.1-1.8-.2-2-.1-.2 0 .2 1 .8 2z"/>
  <path fill="#fff" d="M69 118c2-.1 3-93.7 3-95.5-.3-4.4-52-1.7-52-1.7V118h49z"/>
  <path fill="#4700D6" d="M67.5 119c2-.1 1.6-86.3 1.2-90.5-.3-4.3-44.7-1.8-44.7-1.8V119h6.9l-1-86.4S61.9 32 62 34c0 1.9.8 71 0 85h5.4z"/>
  <circle cx="40" cy="44" r="3" fill="#4700D6"/>
  <circle cx="53" cy="45" r="3" fill="#4700D6"/>
  <circle cx="40" cy="59" r="3" fill="#4700D6"/>
  <circle cx="53" cy="60" r="3" fill="#4700D6"/>
  <circle cx="41" cy="74" r="3" fill="#4700D6"/>
  <circle cx="54" cy="75" r="3" fill="#4700D6"/>
  <circle cx="53" cy="90" r="3" fill="#4700D6"/>
  <circle cx="41" cy="91" r="3" fill="#4700D6"/>
  <path fill="#4700D6" d="M51.2 104l.8 12h-9v-13l8.2 1zM74.5 26.4c-.9-1 .2-2.7 1-3.4l2.5-3c.8-.8 2.3-1 3.2 0 .9 1 0 2.3-.7 3L78 25c-.8.7-2.6 2.4-3.5 1.4zM17.4 26.6c-.7.8-1.9.2-2.4 0l-2.4-2c-.5-.6-1-2-.2-2.9.7-.8 2-.9 2.6-.4l2.4 2.4c.7.5 1 1.7 0 2.9zM46 17c-1 0-1.8-1-1.8-2l.3-3.5c0-1 .7-2.3 1.8-2.2 1.1 0 1.7.8 1.7 1.7v4c0 1-.8 2-2 2z"/>
  <path fill="#FDDB12" fill-rule="evenodd" d="M133 122c-.1 1.2-1.3 2-2.5 2 0 0-60.7-1-66.3-.7-5.7.3-50.2 0-59.1-.1-1.3-.1-2.2-1.1-2-2.3 0-1.1 1.2-2 2.4-1.9h55.7l69.7.8c1.1 0 2.2 1.1 2 2.3z" clip-rule="evenodd"/>
</svg>
