<svg xmlns="http://www.w3.org/2000/svg" fill="none" viewBox="0 0 518 607">
  <path fill="#DEE7FC" d="M8.8 605a1.5 1.5 0 103 0h-3zM103.3 418v-1.5l-1.5.1v1.4h1.5zm66.5-67.6v-1.5h-1.6v1.6h1.6zm91-2v1.5h1.5v-1.6l-1.6.1zm0-99l.7 1.2-.8-1.2zm60.9 0l-.2 1.5h1.7v-1.5h-1.5zm70.1-59.5l-.2 1.5 1.7.1v-1.6h-1.5zm3-98.5v-1.5h-1.4v1.5h1.4zm91.6-90.1c-.6-.6-1.5-.7-2.2-.1l-10 9a1.5 1.5 0 002 2.3l9-8 8 8.8a1.5 1.5 0 002.2-2l-9-10zM13 522.2c-.4.7-.7 1.6-1 2.5a128.2 128.2 0 00-1.8 13.9c-.7 8-1 18-1.2 28a1361.5 1361.5 0 00-.2 38.4h3v-.2-.7a1017.7 1017.7 0 01.2-37.5c.2-9.8.5-19.8 1.1-27.8a125.4 125.4 0 011.8-13.3c.2-.8.5-1.3.6-1.5l-2.5-1.7zm88.8 1c0-.6.5-.6 0-.4a67 67 0 01-11.6.8c-8-.2-18.6-1-29.5-1.9-10.8-.8-21.9-1.7-30.5-1.9-4.3-.1-8 0-10.9.2a20 20 0 00-3.7.7c-1 .3-2 .7-2.6 1.6l2.5 1.7 1-.5a88.9 88.9 0 0113.7-.7c8.5.2 19.4 1 30.3 2 10.8.8 21.5 1.6 29.6 1.8 4 0 7.4 0 9.8-.3 1.2-.1 2.3-.4 3.1-.8.8-.3 1.8-1 1.8-2.4h-3zm0-105.3V523h3V418h-3zm66.8-2.3a8 8 0 00-2.3-.9l-3-.5a89 89 0 00-8.4-.4c-6.4-.1-14.3.1-22 .5a840.5 840.5 0 00-27.2 1.9l-1.8.1h-.5-.1v1.6l.2 1.5h.6l1.9-.2a903.4 903.4 0 0127.1-1.9c7.6-.4 15.5-.6 21.8-.5a86.3 86.3 0 0110.7.9c.7.1 1.2.3 1.4.5l1.6-2.6zm1.2-65.3l-1.5.1a8.5 8.5 0 000 .8l.2 2.3a883.4 883.4 0 011.3 31.7c.2 8.5.1 17-.4 22.9a31.6 31.6 0 01-1.3 7.4l-.2.2.4-.1h.3l-1.6 2.6c.4.2 1 .4 1.5.3.6 0 1-.2 1.4-.6.7-.5 1-1.4 1.3-2.2.6-1.7 1-4.3 1.2-7.4.5-6 .6-14.6.4-23.2a780 780 0 00-1.5-34v-.7-.1h-1.5zm90.9-3.5l-91 2 .1 3 91-2-.1-3zm-.8-98.8c-.9.6-1.4 1.6-1.7 2.6-.4 1-.6 2.4-.9 4-.5 3-.7 7.1-1 11.9-.2 9.5 0 21.8.4 34a1427.5 1427.5 0 002.3 43.8l.2 3v1.1h1.5l1.5-.2v-.2-.8l-.2-3a1556.8 1556.8 0 01-2.3-43.9 534 534 0 01-.3-33.7 104.4 104.4 0 011.6-15l.5-1-1.6-2.6zm61.8 1.3v-1.5h-.5a390.9 390.9 0 00-8-.6c-5.2-.4-12.2-.8-19.4-1a315 315 0 00-20.8-.2c-3 0-5.7.3-8 .6-2 .3-4 .7-5 1.4l1.5 2.5c.6-.3 1.9-.7 4-1l7.6-.5c6-.2 13.4 0 20.6.2a737.7 737.7 0 0127.2 1.5h.6l.2-1.4zm-1.5-59.5v59.5h3v-59.5h-3zm71.6 0l.2-1.5h-.2l-.6-.1a466.9 466.9 0 00-10.2-1 682 682 0 00-24.2-1.8c-8.8-.5-17.6-.8-24.3-.4-3.3.2-6.1.5-8.2 1-1 .4-2 .7-2.7 1.3a3 3 0 00-1.4 2.5h3l.1-.1c.3-.2.9-.5 1.8-.7a39 39 0 017.6-1c6.5-.4 15.2-.1 24 .4a676.3 676.3 0 0132 2.5l2.2.3h.7l.2-1.4zm1.5-98.5l-3 98.4 3 .1 3-98.4-3-.1zm86.4-3c0-.5.4-.5-.1-.2s-1.3.5-2.4.8c-2.3.5-5.5 1-9.6 1.2-8 .6-18.8.8-29.6.7a1186.3 1186.3 0 01-43-1h-.1v1.5l-.2 1.5h1a946.1 946.1 0 0042.3 1 419 419 0 0029.8-.7c4.1-.3 7.6-.7 10-1.3 1.3-.3 2.4-.6 3.2-1 .7-.4 1.7-1.2 1.7-2.5h-3zm5.5-86.1h-1.5V3l-.1 2.5-.5 9.1a21596.2 21596.2 0 00-3.4 73.7h3a2699 2699 0 013.4-73.5 99632.7 99632.7 0 01.6-11.6v-.7-.2l-1.5-.1z" opacity=".1"/>
  <path stroke="#DEE7FC" stroke-width="3" d="M315 519.5C136 536 9.5 410.7 20 271.1 30.5 131.5 117.8 10.3 282 5.5 446.2.7 524 154.2 515 271.1 506 388 462 494.5 265 511" opacity=".1"/>
  <path fill="#DEE7FC" d="M240.5 503v1.5-1.5zM1.5 285.5H0h1.5zM232.8 42.8v1.5-1.5zm187.4 358a1.5 1.5 0 102.6 1.4l-2.6-1.4zM471 184.4a1.5 1.5 0 00-3 .2l3-.2zM240.4 501.5c-59.3 2.3-118.7-22.3-163.3-62.2-44.5-40-74.1-95-74.1-153.8H0c0 59.8 30 115.7 75.1 156 45 40.4 105.2 65.3 165.5 63l-.2-3zM3 285.5c0-117.8 87-237 229.9-241.2l-.1-3C88 45.6 0 166.3 0 285.5h3zM232.9 44.3c71.5-2.1 148.2 26.8 192 86.2 43.8 59.3 55 149.4-4.7 270.3l2.6 1.4c60.2-121.6 49.1-213 4.5-273.5-44.5-60.3-122.2-89.5-194.5-87.4v3zM468 184.6c7.2 129-23.5 207.1-68.9 253.5-45.4 46.4-105.9 61.4-158.7 63.4l.2 3c53.2-2 114.5-17.1 160.7-64.3 46.2-47.2 77-126.3 69.7-255.8l-3 .2z" opacity=".1"/>
  <path fill="#DEE7FC" d="M402.7 152c-1.5 5.6-7.6 10.6-13 9.7-5.3-1-9-8.3-7.5-14.3s6.7-11.3 13-10c6.5 1.1 9 9.1 7.5 14.7zM303 249.2c-.2 4.6-5.6 9.6-11.5 9.8-6 .2-11.7-4.8-11.5-9.8.2-5 4.4-10 11.5-10.2 7.1-.2 11.7 5.6 11.5 10.2zM115.7 464.7A13 13 0 01104 476c-6 .2-11.8-5.7-11.6-11.4a12 12 0 0111.6-12c7.3-.2 11.9 6.6 11.7 12z" opacity=".2"/>
</svg>
