<svg width="102" height="94" viewBox="0 0 102 94" fill="none" xmlns="http://www.w3.org/2000/svg">
<g clip-path="url(#clip0)">
<rect width="102" height="94" fill="white"/>
<path fill-rule="evenodd" clip-rule="evenodd" d="M82.7096 14.6686C82.2256 15.0983 81.6901 15.506 81.1037 15.8877C86.0953 20.947 89.7989 27.1239 91.8993 33.9654C92.7718 34.3869 93.5808 34.7838 94.3192 35.153C92.2654 27.3737 88.2573 20.3533 82.7096 14.6686ZM95.8656 48.3968C94.9665 50.6482 93.9412 53.1363 92.848 55.7255C91.7538 60.1871 89.8388 64.436 87.3316 68.3448C85.993 71.303 84.688 74.108 83.5061 76.5519C90.5699 68.8525 95.5424 59.0359 95.8656 48.3968ZM74.8197 84.2466C74.1397 84.002 73.38 83.7165 72.5486 83.3941C64.7457 88.6981 56.1519 91.5129 49.048 90.9225C35.8704 89.8272 25.4839 85.887 18.0306 79.7634C17.4729 80.2084 16.8695 80.5765 16.2284 80.8637C24.1043 87.5611 35.0953 91.7697 48.8823 92.9156C56.9219 93.5838 66.4507 90.2471 74.8197 84.2466ZM3.68911 61.1139C4.2943 60.8596 4.93558 60.6623 5.60014 60.5225C4.83751 57.7931 4.32437 54.9032 4.06963 51.8619C3.19882 51.3982 2.49517 51.0086 1.98206 50.704C2.19962 54.371 2.77212 57.8472 3.68911 61.1139ZM65.4221 3.39942C59.6524 1.20884 53.2454 0 46.3645 0C38.6199 0 31.5369 1.9055 25.4101 5.26706C26.1752 5.55716 27.0091 5.87887 27.9044 6.22913C33.3954 3.51647 39.6226 2 46.3645 2C52.8021 2 58.7996 3.09487 64.2172 5.08353C64.5699 4.49658 64.9734 3.93174 65.4221 3.39942Z" fill="#FDDB12"/>
<path d="M61.7741 51.7618C57.21 55.9069 49.4304 58.0894 43.4968 52.4844C37.5631 46.8794 38.312 38.772 42.891 33.9245C47.4701 29.077 56.6656 28.6887 61.3413 33.5937C66.017 38.4987 66.3383 47.6168 61.7741 51.7618Z" fill="#4700D6"/>
<path d="M31.0132 31.1398C32.1409 32.0073 32.9541 33.6853 31.9232 35.2617C30.8923 36.8382 29.0203 36.999 27.7324 36.1567C26.4445 35.3145 25.981 33.2418 26.9043 31.9796C27.8275 30.7174 29.8855 30.2723 31.0132 31.1398Z" fill="#4700D6"/>
<path d="M74.0054 50.4062C75.1332 51.2737 75.9464 52.9516 74.9155 54.5281C73.8845 56.1045 72.0125 56.2653 70.7246 55.4231C69.4367 54.5809 68.9733 52.5081 69.8965 51.2459C70.8198 49.9838 72.8777 49.5387 74.0054 50.4062Z" fill="#4700D6"/>
<path fill-rule="evenodd" clip-rule="evenodd" d="M16.8614 10.1553L16.8946 10.1646C16.7491 10.1337 16.721 10.1174 16.8614 10.1553ZM29.081 21.6035C30.6861 20.1718 31.7854 18.1959 31.9414 16.1228C39.4178 19.2437 48.6649 23.2068 57.8698 27.2305C66.3776 30.9495 74.8227 34.7087 81.7795 37.8921C81.505 38.6054 81.3267 39.5213 81.257 40.6931C80.9026 46.6474 84.1481 51.5394 88.1399 52.1222C89.0167 52.2502 89.9092 52.2531 90.7737 52.1274C89.8336 54.4048 88.8066 56.8215 87.7511 59.2397C86.9552 61.0633 86.1483 62.8758 85.3559 64.6186C85.1585 64.4104 84.9417 64.1969 84.7047 63.9776C80.3258 59.9273 74.4279 59.3959 71.3804 62.1832C69.2067 64.1712 67.9471 67.1256 68.6623 69.9382C61.3744 66.871 52.4522 62.9754 43.5482 59.007C34.6252 55.0303 25.7531 50.995 18.6056 47.6685C18.8978 47.0597 19.1439 46.3003 19.3415 45.3602C20.5683 39.523 19.2508 37.835 14.9294 35.1285C13.5406 34.2588 12.0622 33.7442 10.6538 33.6054C11.5245 31.3378 12.471 28.9416 13.4441 26.5512C14.3787 24.2555 15.3289 21.9874 16.2519 19.8601C20.547 23.6669 26.151 24.2168 29.081 21.6035ZM101.051 40.8221C100.295 38.7326 20.7686 4.19062 17.9413 4.27114C15.114 4.35165 -0.212894 43.8756 0.451085 45.358C1.11506 46.8403 80.6591 82.7742 83.0724 81.6978C85.4858 80.6214 101.807 42.9115 101.051 40.8221Z" fill="#4700D6"/>
<path d="M84.4498 5.29715C85.1493 8.8716 83.2446 13.7156 77.1807 15.5511C71.1167 17.3866 66.2908 14.9007 65.152 11.1384C64.0132 7.37608 67.6547 2.21093 72.7427 0.889407C77.8308 -0.432117 83.7503 1.7227 84.4498 5.29715Z" fill="#E60053"/>
<path d="M18.298 77.802C15.575 80.2209 10.4352 81.042 5.77282 76.7522C1.11045 72.4624 0.79899 67.0428 3.46058 64.1501C6.12217 61.2573 12.4212 61.7688 16.145 65.4793C19.8688 69.1899 21.0211 75.3831 18.298 77.802Z" fill="#E60053"/>
</g>
<defs>
<clipPath id="clip0">
<rect width="102" height="94" fill="white"/>
</clipPath>
</defs>
</svg>
