<svg xmlns="http://www.w3.org/2000/svg" fill="none" viewBox="0 0 1481 446">
  <path fill="#FDDB12" fill-rule="evenodd" d="M175.5 434.8l7 .7 7.2 2c106 29 197.2-20.9 232-84 46.6-84.8-9.8-227.8-127.3-266.7-117.5-39-239.5 7.8-283.5 98.5-33.4 68.9 6.7 232.1 164.6 249.5zm-13.5-5a184.2 184.2 0 01-136.7-99.5C-1.1 278.7-2.8 220.5 13.6 186.7 57 97.6 177.1 51 293.4 89.7c57.9 19.1 100.8 64 123.4 114.5 22.7 50.6 25 106.5 2.2 147.8-32.2 58.5-114 105.7-211.2 86.7 43.4 2.1 94-1.3 161.7-36.2a1.5 1.5 0 00-1.4-2.7c-76.4 39.4-130.8 38.4-177.9 34.8l-6.8-2h-.3l-.3-.1-6.6-.6A312.4 312.4 0 0179 376.8a1.5 1.5 0 10-1.9 2.3A324 324 0 00162 430z" clip-rule="evenodd" opacity=".7"/>
  <path fill="#E60053" d="M1411.9 200c3.8 2.7 71.4 66.7 68.4 69.9-3 3.3-76.4 67.9-76.4 67.9l-65.9-65.3s70.1-75 73.9-72.4z" opacity=".6"/>
  <path fill="#FDDB12" d="M876.6 6.4c25.5 13 35.6 48.2 23.7 76.5-11.8 28.2-46.3 44.5-73.9 30.7-27.6-13.9-47-46.8-32.4-80.6C808.5-.7 851-6.6 876.6 6.4z" opacity=".6"/>
  <path fill="#4700D6" d="M851.4 304.5c1.6-.8 129.3 18.3 125 26.8-4.3 8.4-84.6 90-84.6 90s-41.9-116.1-40.4-116.8z" opacity=".6"/>
</svg>
