<?xml version="1.0" encoding="utf-8"?>
<!-- Generator: Adobe Illustrator 25.0.1, SVG Export Plug-In . SVG Version: 6.00 Build 0)  -->
<svg version="1.1" id="Layer_1" xmlns="http://www.w3.org/2000/svg" xmlns:xlink="http://www.w3.org/1999/xlink" x="0px" y="0px"
	 viewBox="0 0 250 250" style="enable-background:new 0 0 250 250;" xml:space="preserve">
<style type="text/css">
	.st0{fill:#E60053;}
	.st1{fill:#FFFFFF;}
	.st2{fill:#FDDB12;}
	.st3{fill:#7E4CE2;}
</style>
<g>
	<g>
		<path class="st0" d="M76.51,31.83c-2.35,3.48,0.31,10.61,0.83,14.51c1.69,12.74,1.91,24.79,0.92,37.61
			c-0.29,3.74-1.02,7.38-0.9,11.16c0.02,0.46,0.05,0.95,0.3,1.34c0.32,0.49,0.93,0.71,1.49,0.88c10.35,3.15,21.11,1.72,31.67,0.69
			c11.64-1.14,23.35-1.61,35.05-1.42c5.85,0.1,11.69,0.36,17.53,0.79c2.98,0.22,10.34,2.18,12.23-1.2c0.45-0.8,0.48-1.75,0.5-2.67
			c0.25-11.32,0.49-22.64,0.74-33.97c0.12-5.66,0.25-11.32,0.37-16.98c0.07-3.16,1.56-8.07-0.83-10.77
			c-2.29-2.58-6.74-1.18-9.75-1.17c-15.61,0.04-31.22,0.06-46.83,0.04c-7.93-0.01-15.86-0.03-23.79-0.06
			c-3.94-0.02-7.93,0.14-11.86-0.06C81.24,30.38,78.02,29.6,76.51,31.83z"/>
	</g>
	<g>
		<path class="st1" d="M87.1,38.69c-1.89,1.96-2.55,5.01-2.41,7.8c0.31,6.41,1.87,11.21,2.25,17.66c0.44,7.58,0.32,15.18,0.32,22.77
			c0.03,1.46,0.19,3.16,1.42,3.93c2.46,1.55,7.98,0.42,10.73,0.41c4.65-0.01,9.31-0.02,13.96-0.03c11.47,0,22.96,0.04,34.43-0.19
			c5.07-0.1,13.39,1.24,18.05-0.99c1.28-0.61,1.92-2.1,2.12-3.51c0.67-4.72-0.12-9.38,0.12-14.09c0.48-9.3,1.23-18.59,2.06-27.86
			c0.11-1.27,0.22-2.59-0.18-3.8c-1.47-4.43-9.7-2.51-13.19-2.6c-6.22-0.17-12.44-0.64-18.65-0.88c-9.37-0.36-18.75-0.51-28.11-0.98
			c-5.62-0.28-11.29-0.16-16.88,0.11c-1.73,0.08-3.5,0.43-4.95,1.38C87.79,38.08,87.1,38.69,87.1,38.69z"/>
	</g>
	<g>
		<path class="st2" d="M94.94,88.52c-1.9,0-3.46-1.52-3.5-3.43c-0.04-1.93,1.49-3.53,3.42-3.57l65.06-1.39c0.03,0,0.05,0,0.08,0
			c1.9,0,3.46,1.52,3.5,3.43c0.04,1.93-1.49,3.53-3.42,3.57l-65.06,1.39C94.99,88.51,94.96,88.52,94.94,88.52z"/>
	</g>
	<g>
		<path class="st0" d="M109.03,98.85c-1.12,2.56-2.23,5.13-3.35,7.69c-0.34,0.78-0.62,1.85,0.06,2.37c0.38,0.29,0.92,0.26,1.4,0.22
			c2.68-0.22,5.38-0.15,8.04,0.21c0.34-4.5,1.54-8.94,3.53-12.99c-2.92,0.28-5.93,0.55-8.74-0.29
			C109.37,97.73,108.76,99.38,109.03,98.85z"/>
	</g>
	<g>
		<path class="st0" d="M134.17,95.74c2.22,3.46,3.87,7.29,4.84,11.28c0.25,1.04,0.72,2.33,1.79,2.4c0.44,0.03,0.86-0.17,1.25-0.36
			c2.09-0.98,4.35-1.59,6.65-1.82c-0.21-3.95-3.61-7.08-4.25-10.98C141.04,96.39,137.62,96.52,134.17,95.74z"/>
	</g>
	<g>
		<path class="st3" d="M205.19,220.73c-0.04,0-0.07,0-0.11,0l-60.76-1.28c-2.63-0.06-4.77-2.14-4.89-4.77l-3.88-83.05l-65.32,1.56
			l0.48,82c0.01,1.34-0.53,2.63-1.48,3.58c-0.95,0.95-2.26,1.51-3.59,1.45l-17.69-0.26c-2.73-0.04-4.93-2.27-4.93-5v-82.15
			l-10.63-0.53c-1.39-0.07-2.68-0.71-3.57-1.77c-0.89-1.06-1.31-2.45-1.14-3.82L30,107.71c0.3-2.49,2.41-4.38,4.92-4.4l181.26-1.54
			c0.01,0,0.03,0,0.04,0c2.58,0,4.74,1.97,4.98,4.54l1.86,20.2c0.25,2.69-1.68,5.08-4.35,5.42l-12.15,1.53l3.64,82.05
			c0.06,1.38-0.45,2.73-1.42,3.72C207.83,220.19,206.54,220.73,205.19,220.73z M149.21,209.55l50.75,1.07l-3.61-81.32
			c-0.12-2.6,1.79-4.86,4.37-5.18l11.93-1.5l-0.99-10.81l-172.27,1.46l-1.13,9.28l10.02,0.5c2.66,0.13,4.75,2.33,4.75,4.99v81.98
			l7.66,0.11l-0.48-81.81c-0.02-2.73,2.15-4.96,4.88-5.03l75.12-1.79c2.69-0.08,4.99,2.05,5.11,4.77L149.21,209.55z"/>
	</g>
	<g>
		<path class="st3" d="M202.65,185.32c-19.81-0.12-39.91-0.58-59.72-1.38l0.4-9.99c19.7,0.79,39.68,1.25,59.38,1.37L202.65,185.32z"
			/>
	</g>
	<g>
		<path class="st3" d="M202.96,155c-19.98-0.59-40.23-0.82-60.2-0.68l-0.07-10c20.09-0.14,40.47,0.09,60.57,0.68L202.96,155z"/>
	</g>
	<g>
		<path class="st3" d="M56.46,131.39c-7.78,0-16.14-0.58-25.34-1.75l1.26-9.92c11.87,1.51,22.22,1.99,31.62,1.46
			c5.09-0.28,10.31-0.88,15.36-1.46c4.01-0.46,8.16-0.94,12.3-1.27c11.65-0.92,23.4-0.68,34.76-0.44l88.32,1.83l-0.21,10
			l-88.32-1.83c-11.12-0.23-22.61-0.47-33.76,0.42c-3.96,0.31-8.02,0.78-11.95,1.23c-5.19,0.6-10.57,1.21-15.95,1.51
			C61.93,131.32,59.23,131.39,56.46,131.39z"/>
	</g>
</g>
</svg>
