<svg xmlns="http://www.w3.org/2000/svg" fill="none" viewBox="0 0 810 797">
  <path fill="#E60053" fill-rule="evenodd" d="M422.6 199l-5.5 2-5.8.8c-103.2 14.8-163.6 108.2-169.8 191-8.3 110.6 94.4 238.4 210.7 228.7 116.3-9.8 204-112.8 207.7-228.7 3-88-93.8-245-237.3-193.8zm-22.1 7.8c-94.6 19.4-150.1 107.5-156 186.2-4.1 54.4 19.1 113.2 57.9 157.3 38.7 44 92.6 73 149.6 68.2 114.5-9.6 201.2-111.3 205-225.8 1.4-43.6-22.3-105.1-64.6-148.6-39-40-93.3-64.4-158-45.7a256 256 0 0195.2 17 1.5 1.5 0 11-1 2.9A246.2 246.2 0 00423.2 202l-5 1.9-.4.1h-.4l-5.3.8c-42 17.8-88 53.8-136.6 114.7a1.5 1.5 0 11-2.3-2c44.8-56.1 87.6-91.3 127.3-110.7z" clip-rule="evenodd" opacity=".5"/>
  <path fill="#4700D6" fill-rule="evenodd" d="M366.2 110.2c-81.4 21.2-159.2 69-199.7 139-29 50-64.2 137-47.2 223.7 17 86.3 86.2 172.8 267.3 221.6a1.5 1.5 0 01-.7 3c-182-49.1-252.2-136.2-269.5-224C99 385.7 134.9 298 163.9 247.6c41-71 119.6-119.1 201.5-140.4 82-21.4 167.5-16 222.5 20.9 109.6 73.3 192.6 262.3 92.9 431.6-99.8 169.2-293 200-429.3 104a1.5 1.5 0 011.8-2.5c134.9 95 326 64.7 424.9-103 98.8-167.7 16.6-355-92-427.6-54-36.2-138.6-41.7-220-20.5z" clip-rule="evenodd" opacity=".3"/>
  <path fill="#FD3" fill-rule="evenodd" d="M227.8 81.5c-.6-.6-.6-1.5 0-2A311.6 311.6 0 01263.4 49C168.1 81.5 98.1 142.2 67.9 186.2 17.5 259.7-7.4 365.7 9 469a363.7 363.7 0 00188.3 267.3c229 126.8 453 26.4 560.5-133.5 53.4-79.6 61-189 33.9-291-27-102-88.5-196-172-244.4-133.4-77.4-241.8-79.8-327-32a422.3 422.3 0 01241 8.5 1.5 1.5 0 01-1 2.8 419 419 0 00-249.7-5.5l-4.3 2.7-.3.2-.4.2-4.7 1.4a303.2 303.2 0 00-43.3 35.7c-.6.6-1.5.6-2.1 0zm53.8-43C369.3-15.6 482.1-15.7 621.1 65c168.7 98 247.3 378.6 139 539.6C652 765.5 426.4 866.7 195.7 739-34.9 611.3-36.3 333 65.4 184.5 97 138.5 171.2 74.8 272 43l5-1.6 4.7-3z" clip-rule="evenodd" opacity=".7"/>
</svg>
