<svg width="95" height="95" viewBox="0 0 95 95" fill="none" xmlns="http://www.w3.org/2000/svg">
<rect width="95" height="95" fill="white"/>
<path fill-rule="evenodd" clip-rule="evenodd" d="M80.6193 18.3712C87.8362 26.3902 92 36.8971 92 48.2949C92 54.8567 90.1065 61.1534 86.9514 66.833C87.6853 66.7029 88.4853 66.6089 89.368 66.5573C92.2674 60.9452 94 54.7623 94 48.2949C94 36.1779 89.4957 25.043 81.7347 16.6252C81.4145 17.2406 81.0401 17.8247 80.6193 18.3712ZM75.27 83.4805C74.2842 83.4263 73.4138 83.2603 72.6318 82.9924C64.3307 89.1966 54.8717 92.5629 47.1657 91.9225C32.3945 90.6948 21.1304 85.8924 13.5733 78.4472C13.0678 77.9492 12.5781 77.4386 12.1043 76.9156C11.7996 77.0737 11.4968 77.2786 11.2136 77.5318C10.9724 77.7474 10.7646 77.9805 10.5925 78.2257C18.5571 87.0377 30.8634 92.5744 47 93.9156C55.7971 94.6468 66.3773 90.5828 75.27 83.4805ZM7.43343 74.2325C7.57888 74.0837 7.72839 73.9408 7.88125 73.8042C8.22453 73.4973 8.594 73.2133 8.98434 72.9572C8.91369 72.8536 8.84354 72.7497 8.77392 72.6454C8.72646 72.6806 8.68496 72.7148 8.64913 72.7476C8.49851 72.8854 8.49919 72.9364 8.4999 72.9891L8.5 73H6.61823C6.88228 73.4162 7.15403 73.8271 7.43343 74.2325ZM4.71123 69.637C5.16699 69.0983 5.71368 68.6599 6.28332 68.305C3.46698 62.5358 2 55.8253 2 48.2949C2 41.1849 3.44445 34.4491 6.08152 28.4514C5.55551 27.8974 5.06972 27.3389 4.64504 26.785C1.6463 33.2576 0 40.577 0 48.2949C0 56.2964 1.60345 63.4699 4.71123 69.637ZM13.132 14.2715C14.6179 13.5797 16.1985 13.0251 17.8229 12.605C24.9526 6.59064 34.1081 3 44.4821 3C50.7854 3 56.6668 4.04966 61.995 5.96023C62.3575 5.37663 62.7636 4.81092 63.2096 4.27542C57.526 2.16327 51.2321 1 44.4821 1C31.8431 1 20.9662 6.07502 13.132 14.2715Z" fill="#FDDB12"/>
<path fill-rule="evenodd" clip-rule="evenodd" d="M14.863 69.5302C13.1284 69.4419 10.52 69.6686 8.2266 70.7557C5.76812 71.921 3.99999 75.5 3.49999 78.0128C2.99999 80.5256 3.19231 80.1972 3.49999 80.5128C4.35698 81.3918 8.2266 81 8.49999 80.5128C8.77339 80.0256 8.49999 78.0128 8.49999 78.0128C8.49999 76.6317 9.1629 75.8451 10.3682 75.2738C11.7068 74.6393 13.4543 74.4582 14.6516 74.5261L14.7223 74.5301H14.7931C16.2702 74.5301 17.0305 74.8266 17.4719 75.0969C17.9464 75.3875 18.3023 75.7922 18.8238 76.5019C18.8749 76.5714 18.9297 76.6473 18.9883 76.7285C19.4478 77.3648 20.1416 78.3259 21.1049 79.0632C22.326 79.9979 23.8391 80.5128 25.7845 80.5128C27.7312 80.5128 29.2546 80.0001 30.5279 79.1793C31.559 78.5147 32.3956 77.6512 33.0192 77.0075C33.0993 76.9248 33.176 76.8457 33.249 76.7711C33.9574 76.0481 34.5109 75.5401 35.203 75.1715C35.857 74.8233 36.7744 74.5301 38.2414 74.5301C39.7008 74.5301 40.6324 74.8203 41.3433 75.1868C42.1129 75.5837 42.7297 76.1138 43.6332 76.8904L43.6647 76.9174C44.5364 77.6666 45.6516 78.6169 47.1629 79.3357C48.7122 80.0725 50.5502 80.5128 52.8965 80.5128C55.2065 80.5128 56.9815 80.0854 58.3754 79.1626C59.6911 78.2916 60.3987 77.1327 60.8388 76.4119C60.8565 76.3829 60.8737 76.3546 60.8906 76.3271C61.3706 75.5433 61.5759 75.2652 61.9018 75.0495C62.2024 74.8505 62.9005 74.5301 64.6207 74.5301C66.3246 74.5301 67.1862 74.8445 67.6662 75.1245C68.1586 75.4116 68.502 75.8 69.0178 76.5019C69.0658 76.5672 69.1172 76.6384 69.1721 76.7144C69.6375 77.3588 70.354 78.3508 71.4029 79.1065C72.6912 80.0346 74.2859 80.5128 76.3448 80.5128C78.4174 80.5128 80.0314 80.031 81.407 79.2564C82.5022 78.6397 83.4262 77.8334 84.1478 77.2038C84.2629 77.1033 84.3729 77.0074 84.4776 76.9174C85.2987 76.2117 86.012 75.6604 86.9373 75.252C87.8474 74.8504 89.0993 74.5301 91 74.5301C91 74.5301 93.218 74.7951 93.5 74.5301C94 74.0601 94.5 70.5 93.5 69.5301C93.3158 69.3569 91 69.5301 91 69.5301C88.5041 69.5301 86.5502 69.9576 84.9185 70.6777C83.3021 71.3911 82.1377 72.3355 81.2186 73.1255C81.0738 73.2499 80.9382 73.3674 80.8098 73.4786C80.0693 74.12 79.5693 74.553 78.9538 74.8996C78.3372 75.2468 77.5697 75.5128 76.3448 75.5128C75.1063 75.5128 74.5943 75.2432 74.3255 75.0496C73.9623 74.7879 73.7188 74.4562 73.1503 73.6819C73.117 73.6365 73.0825 73.5895 73.0469 73.541C72.4635 72.7472 71.6162 71.6399 70.1851 70.8053C68.7416 69.9635 66.9469 69.5301 64.6207 69.5301C62.3107 69.5301 60.5358 69.9575 59.1418 70.8803C57.8261 71.7513 57.1185 72.9102 56.6785 73.631C56.6608 73.66 56.6435 73.6883 56.6266 73.7158C56.1466 74.4996 55.9413 74.7777 55.6154 74.9934C55.3149 75.1924 54.6167 75.5128 52.8965 75.5128C51.2127 75.5128 50.1197 75.2053 49.3104 74.8204C48.4632 74.4174 47.7923 73.872 46.9237 73.1255C46.871 73.0802 46.8173 73.0339 46.7625 72.9867C45.9649 72.299 44.9419 71.4169 43.6349 70.7429C42.1703 69.9877 40.4458 69.5301 38.2414 69.5301C36.0445 69.5301 34.3057 69.9847 32.853 70.7582C31.4384 71.5115 30.4348 72.4991 29.6777 73.2718C29.5978 73.3533 29.5214 73.4315 29.4479 73.5067C28.7639 74.2069 28.3398 74.641 27.819 74.9767C27.352 75.2777 26.7688 75.5128 25.7845 75.5128C24.7988 75.5128 24.3884 75.2799 24.144 75.0928C23.7954 74.826 23.5442 74.4835 23.0029 73.7454C22.9552 73.6804 22.9053 73.6123 22.8529 73.541C22.2753 72.755 21.4404 71.664 20.083 70.8329C18.7074 69.9905 17.0163 69.5398 14.863 69.5302Z" fill="#4700D6"/>
<path d="M35.1961 13.3858C25.419 9.07071 9.99817 11.4289 3.56842 24.5988L15.8956 36.2958L32.715 44.429L48.0597 46.3201C54.4895 33.1501 44.9732 17.701 35.1961 13.3858Z" fill="white"/>
<path fill-rule="evenodd" clip-rule="evenodd" d="M24.9915 63.7996C24.3131 64.1811 23.6896 64.5875 23.1312 65.0196C21.4601 66.3126 20 68.143 20 70.5H25C25 70.3717 25.0789 69.8345 26.191 68.974C26.4069 68.807 26.6484 68.6389 26.9154 68.4708C26.3042 67.3178 25.6225 65.7206 24.9915 63.7996ZM33.7632 65.8104C38.1698 64.6905 43.8035 64 50 64C57.4038 64 64.0041 64.9857 68.6678 66.512C71.0133 67.2796 72.7305 68.1395 73.809 68.974C74.9211 69.8345 75 70.3717 75 70.5H80C80 68.143 78.5399 66.3126 76.8688 65.0196C75.1642 63.7006 72.8541 62.6211 70.223 61.76C64.9337 60.029 57.784 59 50 59C43.0683 59 36.6397 59.816 31.5798 61.2171C32.3048 62.9198 32.9896 64.2739 33.436 65.1565C33.5675 65.4164 33.6782 65.6354 33.7632 65.8104Z" fill="#FDDB12"/>
<path fill-rule="evenodd" clip-rule="evenodd" d="M32 30.5975C23.7095 45.891 32 66.4646 31.9708 67.2463C31.9416 68.028 30.6667 69.2718 29.3408 68.9471C28.0149 68.6223 20.2915 45.6395 29.3116 29L32 30.5975Z" fill="#E60053"/>
<path fill-rule="evenodd" clip-rule="evenodd" d="M19.4236 31.8959L35.0524 17.8837L37.0551 20.1174L21.4262 34.1296L19.4236 31.8959Z" fill="#E60053"/>
<path fill-rule="evenodd" clip-rule="evenodd" d="M34.9249 41.0128V19.0128H37.9249V41.0128H34.9249Z" fill="#E60053"/>
<path d="M36.4249 15.5128C27.4249 11.5128 13.4532 13.1923 7.92493 24.5159L19.4249 35.0128L34.9249 42.5128L48.931 44.5356C54.4593 33.212 45.4249 19.5128 36.4249 15.5128Z" fill="white"/>
<path fill-rule="evenodd" clip-rule="evenodd" d="M14.4165 23.6715C14.5 25.5 22.258 30.8291 22.258 30.8291L36.4058 37.6748C36.4058 37.6748 44.5 40 45.4803 38.9853C46.4606 37.9707 45.2649 32.7091 43.6615 29.5289C41.4101 25.0638 37.6911 21.5472 34.3942 20.0819C30.9186 18.5372 26.3202 18.0537 22.0927 19.117C19.107 19.8679 14.333 21.8431 14.4165 23.6715ZM48.931 44.5356C46 45.5 34.9249 42.5128 34.9249 42.5128L19.4249 35.0128C19.4249 35.0128 7.92493 26 7.92493 24.5159C10.8498 15.5317 27.4249 11.5128 36.4249 15.5128C45.4249 19.5128 54.5 33.5 48.931 44.5356Z" fill="#E60053"/>
<path fill-rule="evenodd" clip-rule="evenodd" d="M45 13C45 13 59 10.5 59.6286 11C60.2572 11.5 59.6286 12.9334 59.6286 12.9334C59.6286 12.9334 46 16.5 45.6286 15.9334C45.2572 15.3668 45 13 45 13Z" fill="#FDDB12"/>
<path fill-rule="evenodd" clip-rule="evenodd" d="M54 23C54 23 60 17.0001 61 17C62 17 62.9524 19.2778 62.9524 19.2778C62.9524 19.2778 57 25.5 55.9524 25.2778C54.9047 25.0556 54 23 54 23Z" fill="#FDDB12"/>
<path fill-rule="evenodd" clip-rule="evenodd" d="M58 37C58 36 66.4142 21.9789 66.4142 21.9789C66.4142 21.9789 68.5 22.4999 68 24.4999C67.5 26.4999 60.5858 38.521 60.5858 38.521C60.5858 38.521 58 38 58 37Z" fill="#FDDB12"/>
<path fill-rule="evenodd" clip-rule="evenodd" d="M80 35C79 34.5 75.5 23 75.5 23C75.5 23 76 21.9999 78 23C80 24 82.8 33.9231 82.8 33.9231C82.8 33.9231 81 35.5001 80 35Z" fill="#FDDB12"/>
<path d="M80 11.5C80 16.1944 75.5 19.5 71.5 20C67.5 20.5 63 16.1944 63 11.5C63 6.80558 67.5 3 71.5 3C75.5 3 80 6.80558 80 11.5Z" fill="#FDDB12"/>
<line x1="36.0943" y1="18.0259" x2="21.0943" y2="34.0259" stroke="#E60053" stroke-width="3"/>
<line x1="37.4987" y1="17.0624" x2="36.4987" y2="41.0624" stroke="#E60053" stroke-width="3"/>
</svg>
