<svg xmlns="http://www.w3.org/2000/svg" fill="none" viewBox="0 0 163 86">
  <path fill="#4700D6" fill-rule="evenodd" d="M5.7 4.5c.8-.1 1.6.4 1.8 1.2C10.8 20.8 20.7 29.6 34 35c13.5 5.5 30.3 7.8 47.2 10l1.6.1c16.3 2 32.6 4.1 45.5 9.2 12.5 4.9 22 12.6 25.5 26l5.8-8.3A1.5 1.5 0 11162 74l-7.8 11c-.5.6-1.4.8-2 .3l-11-7.8a1.5 1.5 0 111.7-2.4l7.8 5.5c-3.3-11.8-11.8-18.8-23.5-23.3-12.6-5-28.5-7-45-9l-1.4-.2c-16.8-2.1-34-4.4-48-10.1C19 32 8.3 22.7 4.6 6.3c-.1-.8.4-1.6 1.2-1.8z" clip-rule="evenodd"/>
  <path fill="#4700D6" d="M12 6.1A6.6 6.6 0 016 12c-3.1.1-6-2.9-6-5.9 0-3 2.3-6 6-6.1 3.7-.1 6.1 3.4 6 6.1z"/>
</svg>
