<svg width="96" height="93" viewBox="0 0 96 93" fill="none" xmlns="http://www.w3.org/2000/svg">
<g clip-path="url(#clip0)">
<rect width="96" height="93" fill="white"/>
<path d="M93 47.2949C93 59.8772 86.2462 71.4301 77.0467 79.6683C67.8294 87.9224 56.3394 92.6884 47.0828 91.919C32.1437 90.6774 20.6366 85.8097 12.8715 78.1596C5.11658 70.5195 1 60.013 1 47.2949C1 21.8749 19.1567 1 44.4821 1C72.9041 1 93 21.9767 93 47.2949Z" stroke="#FDDB12" stroke-width="2"/>
<rect x="58" y="80.4817" width="18" height="17" transform="rotate(-28.1125 58 80.4817)" fill="white"/>
<rect x="81.0861" y="52.1576" width="16.7288" height="9.84754" transform="rotate(-17.9571 81.0861 52.1576)" fill="white"/>
<path fill-rule="evenodd" clip-rule="evenodd" d="M20.6538 69.8613C21.0063 70.0999 21.3678 70.3434 21.7335 70.5892C22.1479 70.8678 22.5696 71.1504 22.9868 71.43C23.7874 71.9666 24.5717 72.4922 25.2569 72.957C25.6282 72.7048 26.0314 72.4208 26.456 72.1125C27.4689 71.3772 28.4682 70.6037 29.2238 70.0058C29.5989 69.7089 29.908 69.4601 30.1214 69.287C30.2279 69.2006 30.3103 69.1333 30.3648 69.0887L30.4249 69.0393L30.4402 69.0268C30.4402 69.0268 32.6107 66.6144 33.5757 66.4366C34.5406 66.2588 36.9111 68.7637 36.9111 68.7637C39.4199 70.5142 42.6517 72.1186 45.942 73.0428C49.285 73.9819 52.2257 74.093 54.4197 73.4392C54.4197 73.4392 57.0524 72.3191 57.5707 72.5001C58.089 72.681 59.8326 74.8865 59.8326 74.8865C61.324 76.46 64.4047 80.6847 66.6154 81.1291C67.1872 81.2441 69.8631 80.1737 69.9421 79.6522C70.1333 78.3896 69.2258 76.496 68.9248 75.2673C68.8105 74.8004 68.7139 74.4126 68.6461 74.1427C68.6123 74.0078 68.5857 73.9025 68.5677 73.8317L68.5415 73.7286C68.5415 73.7286 67.1872 70.5403 67.5489 69.8432C67.9107 69.1461 70.9983 67.7991 70.9983 67.7991C73.089 66.5601 74.9183 65.1778 76.4474 63.0131C77.9844 60.8372 79.465 57.5156 80.234 52.0752C81.4428 43.5224 77.401 35.8781 70.4321 30.4278C63.382 24.914 53.9706 22.2079 45.9595 23.3949L41.8407 24.0052L40.2364 20.163C39.7 18.8783 38.242 17.5404 35.9144 16.809C34.6716 16.4185 33.4821 16.2985 32.4661 16.3593C32.8043 16.8639 33.1464 17.328 33.517 17.8307C33.7499 18.1466 33.994 18.4777 34.2553 18.8436C34.5395 19.2414 35.0784 19.9992 35.4468 20.803C35.5915 21.1189 36.0654 22.1651 36.0242 23.5313C36.0003 24.322 35.7971 25.4081 35.0817 26.47C34.3448 27.5637 33.3461 28.2136 32.4419 28.5547C30.8587 29.1518 30.3228 29.66 29.802 30.2719C29.4417 30.6952 29.0975 31.1725 28.5277 31.9625C28.4874 32.0184 28.446 32.0758 28.4034 32.1348C27.7958 32.9769 27.0363 34.0172 26.0448 35.1942C24.2534 37.3208 22.0027 38.1932 20.1608 38.5608C18.7886 38.8346 17.3219 38.8716 16.4241 38.8899C16.3604 40.1002 16.3266 41.8288 16.3858 43.7618C16.432 45.2684 16.5308 46.7404 16.6853 47.9873C16.8255 49.1187 16.9822 49.8087 17.0799 50.1302C17.1418 50.2062 17.2793 50.3662 17.5393 50.614C18.0959 51.1446 18.8413 51.7375 19.8633 52.529C19.9929 52.6294 20.1305 52.7353 20.275 52.8464C22.0054 54.1768 24.7154 56.2604 26.3295 58.7635C26.3295 58.7635 29.1289 61.8892 28.8912 62.736C28.6536 63.5828 25.2662 65.7685 25.2662 65.7685L25.2624 65.7717L25.2454 65.786L25.1722 65.8476C25.1066 65.9028 25.0084 65.9859 24.8825 66.093C24.6304 66.3073 24.2686 66.6171 23.8363 66.993C22.9667 67.7491 21.8339 68.7536 20.7427 69.7778C20.7129 69.8057 20.6833 69.8336 20.6538 69.8613ZM21.8317 61.664C21.8317 61.664 12.152 69.287 13.0346 70.9153C13.6682 72.1459 17.0346 73.8834 20.0278 75.8896C22.179 77.3314 24.1057 78.6228 24.5863 79.0515C25.6066 79.9616 33.8487 73.1529 33.8487 73.1529C39.7793 77.2907 48.9408 80.6565 55.9482 78.5681C60.2297 83.0854 65.0464 87.1312 66.1168 87.1312C67.1872 87.1312 74.1446 81.7793 74.6798 80.7089C75.215 79.6385 73.0743 73.7286 73.6095 72.1459C74.1447 70.5631 83.8089 65.0239 85.5332 52.8242C88.6166 31.0088 64.4252 15.2485 45.175 18.1008C42.5387 11.7869 33.195 9.34061 27.7745 12.1432C24.9911 13.5823 26.1388 16.4223 27.7397 18.9109C27.7534 18.9321 27.7671 18.9533 27.7808 18.9745C28.2908 19.7617 28.8434 20.512 29.3277 21.1696C29.5792 21.511 29.8123 21.8275 30.0115 22.1112C30.5643 22.8986 30.8556 23.4331 30.5531 23.5472C27.0395 24.8725 25.9018 26.4515 24.2245 28.7797C23.5945 29.6541 22.8884 30.6342 21.9517 31.7462C20.5261 33.4384 18.3459 33.4898 16.3205 33.5375C13.9547 33.5932 11.8002 33.6439 11.3065 36.299C10.8318 38.8513 10.7793 48.7704 12.152 52.2428C12.7711 53.8087 14.7559 55.3443 16.8365 56.9541C17.2306 57.259 17.6282 57.5666 18.0206 57.8775C18.849 58.5341 19.6543 59.2056 20.3551 59.8989C20.9337 60.4712 21.4412 61.0583 21.8317 61.664Z" fill="#4700D6"/>
<circle cx="33.9317" cy="40.5064" r="3.21114" transform="rotate(10.5345 33.9317 40.5064)" fill="#4700D6"/>
<path d="M82.8994 49.4232C83.7481 52.6658 87.1926 57.9516 94.1816 53.1544" stroke="#4700D6" stroke-width="5"/>
<path d="M74.0333 25.0005C72.8984 31.103 67.0314 35.1301 60.9289 33.9953C54.8264 32.8604 50.7994 26.9934 51.9342 20.8909C53.069 14.7884 59.6788 11.5878 65.0385 11.8962C70.3982 12.2046 75.1681 18.898 74.0333 25.0005Z" fill="#E60053"/>
<path d="M72.9364 42.397C69.7665 33.0977 54.846 29.4158 49.4785 30.958L55.906 48.214L72.9364 42.397Z" fill="white"/>
<path fill-rule="evenodd" clip-rule="evenodd" d="M54.0325 32.5183C51.9304 32.2573 50.0611 33.077 49.1898 32.6391C48.3185 32.2012 48.303 29.5528 48.303 29.5528C48.303 29.5528 52.1241 29.0455 54.4282 29.3317C56.7656 29.6219 59.3642 30.2617 61.888 31.2561C66.8612 33.2155 71.9148 36.7095 73.724 42.017C73.724 42.017 71.4687 43.2456 70.6846 43.053C69.9006 42.8605 65.3323 36.0645 60.7109 34.2437C58.4374 33.348 56.1013 32.7753 54.0325 32.5183Z" fill="#4700D6"/>
</g>
<defs>
<clipPath id="clip0">
<rect width="96" height="93" fill="white"/>
</clipPath>
</defs>
</svg>
