<svg width="94" height="93" viewBox="0 0 94 93" fill="none" xmlns="http://www.w3.org/2000/svg">
<g clip-path="url(#clip0)">
<rect width="94" height="93" fill="white"/>
<path fill-rule="evenodd" clip-rule="evenodd" d="M92 47.2949C92 59.515 85.4331 70.8158 76.3796 78.9233C67.2904 87.0628 56.0603 91.6617 47.1657 90.9224C33.4882 89.7857 22.8177 85.584 15.3129 79.0572C14.5179 79.3295 13.6734 79.4785 12.8068 79.4859C20.7635 86.9841 32.2903 91.693 47 92.9156C66.2369 94.5144 94 73.1839 94 47.2949C94 21.4058 73.4375 -9.79901e-06 44.4821 -9.68107e-06C18.5248 -9.49569e-06 2.79643e-06 21.4058 2.92524e-06 47.2949C3.03196e-06 55.58 1.71911 62.9773 5.04731 69.2888C5.28413 68.4428 5.64478 67.6505 6.10663 66.9381C3.40566 61.2519 2 54.6661 2 47.2949C2 22.3439 19.7887 1.99999 44.4821 1.99999C72.3706 1.99999 92 22.5477 92 47.2949Z" fill="#FDDB12"/>
<path fill-rule="evenodd" clip-rule="evenodd" d="M11.7152 41.3138C11.8059 39.329 12.0272 37.4201 12.3762 35.6686L71.2733 47.404C70.9205 49.1744 70.3909 51.0172 69.7105 52.8696C66.9036 60.5119 61.5302 68.3181 55.4207 71.8774C45.5636 77.62 22.2609 71.6342 16.2874 62.4279C12.8492 57.129 11.3781 48.6959 11.7152 41.3138ZM64.0759 51.7469C63.5132 51.1452 18.0666 41.9154 17.345 42.4356C16.6235 42.9557 17.4071 46.7127 17.6946 48.8822C18.27 53.2235 19.4801 56.9397 21.0401 59.3441C23.7599 63.5358 28.3978 64.8571 36.8427 66.5398C37.6576 66.7022 38.4254 66.8605 39.1552 67.011C41.9421 67.5857 44.1758 68.0463 46.3721 68.1834C48.9064 68.3417 50.817 68.0025 52.5687 66.982C55.3083 65.386 58.223 62.3365 60.7201 58.3679C62.0608 56.2373 64.6386 52.3485 64.0759 51.7469Z" fill="#4700D6"/>
<path fill-rule="evenodd" clip-rule="evenodd" d="M17.236 36.4091L39.1998 40.7854C39.1998 40.7854 44.7064 19.0727 43.6301 18.0049C34.9531 13.3085 21.278 23.1878 17.236 36.4091ZM50.344 13.3026C50.344 13.3026 45.1549 45.3334 43.7648 46.3217C42.3748 47.31 9.56005 40.8487 11.1188 35.5557C16.6058 16.9243 32.1749 9.68229 50.344 13.3026Z" fill="#4700D6"/>
<path d="M17.3762 72.4818C16.9266 74.738 14.7332 76.2026 12.4769 75.753C10.2207 75.3035 8.75614 73.11 9.2057 70.8538C9.681 68.4684 11.8259 66.9671 14.0049 67.559C16.5233 68.2431 17.8132 70.2883 17.3762 72.4818Z" stroke="#4700D6" stroke-width="3"/>
<path d="M60.7155 81.1172C60.266 83.3734 58.0725 84.838 55.8163 84.3885C54.5971 84.1455 53.7541 83.5899 53.2332 82.8364C52.7061 82.0738 52.3959 80.9436 52.5655 79.3553C52.7152 77.9524 53.3583 77.1182 54.1639 76.6443C55.0185 76.1416 56.1955 75.9691 57.4443 76.218C59.7005 76.6675 61.1651 78.861 60.7155 81.1172Z" stroke="#4700D6" stroke-width="3"/>
<path fill-rule="evenodd" clip-rule="evenodd" d="M78.7164 34.4449C79.618 34.0504 86.8288 35.9303 86.8288 35.9303C86.8288 35.9303 85.7714 41.0524 85.1226 41.4505C84.4738 41.8485 81.489 40.1723 80.4826 40.5737C79.4761 40.9752 69.4437 51.0199 69.4437 51.0199L65.5495 46.9048C65.5495 46.9048 77.8148 34.8394 78.7164 34.4449Z" fill="#4700D6"/>
<line x1="54.2942" y1="20.7001" x2="64.2381" y2="12.6092" stroke="#E60053" stroke-width="3"/>
<line x1="58.7418" y1="26.719" x2="68.1271" y2="24.0643" stroke="#E60053" stroke-width="3"/>
<line x1="56.6779" y1="34.4432" x2="66.4956" y2="38.6674" stroke="#E60053" stroke-width="3"/>
<line x1="28.4733" y1="19.5801" x2="39.8044" y2="42.2423" stroke="#4700D6" stroke-width="2"/>
<path d="M17.3808 27.9592L39.5597 41.7613" stroke="#4700D6" stroke-width="2"/>
</g>
<defs>
<clipPath id="clip0">
<rect width="94" height="93" fill="white"/>
</clipPath>
</defs>
</svg>
