<svg width="94" height="93" viewBox="0 0 94 93" fill="none" xmlns="http://www.w3.org/2000/svg">
<rect width="94" height="93" fill="white"/>
<path d="M93 47.2949C93 59.8772 86.2462 71.4301 77.0467 79.6683C67.8294 87.9224 56.3394 92.6884 47.0828 91.919C32.1437 90.6774 20.6366 85.8097 12.8715 78.1596C5.11658 70.5195 1 60.013 1 47.2949C1 21.8749 19.1567 1 44.4821 1C72.9041 1 93 21.9767 93 47.2949Z" stroke="#FDDB12" stroke-width="2"/>
<path d="M9 63H20V86C20 86 11 88 10 87C9 86 9 63 9 63Z" fill="white"/>
<path d="M63 60H82V82.7348C82 82.7348 66.4545 84.7117 64.7273 83.7232C63 82.7348 63 60 63 60Z" fill="white"/>
<path fill-rule="evenodd" clip-rule="evenodd" d="M57.6296 22C56.2592 21 32.6296 22 32.6296 22C32.6296 22 31.7592 33.2407 32.6296 34.3704C33.5 35.5 57.6296 34.3704 57.6296 34.3704C57.6296 34.3704 59 23 57.6296 22ZM29.6296 19C29.0001 20 28.7592 36.7407 29.6296 37.3704C30.032 37.6614 36.5531 37.818 43.5118 37.8399C43.58 39.1059 43.6376 40.7793 43.524 41.5647C39.3259 41.5903 35.5358 41.7231 35.3704 41.963C35.0001 42.5 35 45.4074 35 45.4074H55.5C55.5 45.4074 55.5 43 54.8889 41.963C54.6358 41.7405 51.3083 41.6102 47.4699 41.572C47.3687 40.7249 47.0326 39.0829 46.7651 37.8404C53.7767 37.8204 60.3363 37.6637 60.6296 37.3704C61.2592 36.7407 61 20 60.6296 19C60.2592 18 30.2592 18 29.6296 19Z" fill="#E60053"/>
<rect x="21.2963" y="37.3704" width="3.44444" height="8.03704" fill="#FDDB12"/>
<rect x="16.5556" y="37.3704" width="3.44444" height="8.03704" fill="#FDDB12"/>
<rect x="62.9259" y="43.1111" width="9.18519" height="2.2963" fill="#FDDB12"/>
<path fill-rule="evenodd" clip-rule="evenodd" d="M39.9182 50.5892H39.9183L39.9217 50.5892L39.9357 50.5894C41.0677 50.6039 42.2142 50.6185 43.3689 50.6331C43.2475 57.9138 42.9102 80.5804 43.4074 81C44 81.5 77.5 81.5 79 81C79.2686 79.3057 79.0822 57.0927 79.0189 50.3408C79.1052 49.5875 79.4403 46.3806 79 45.5C68.5 44.5 12.5 44.5 11.5 45.5C10.5 46.5 11 80.5 11.5 81C12.0001 81.5 16 81.5 16.5 81C16.7501 80.75 16.6251 73.2494 16.5001 65.749V65.749C16.3751 58.2493 16.2501 50.75 16.5 50.5C16.7075 50.2925 27.4198 50.4294 39.9182 50.5892ZM48.2112 61C48.2782 56.2045 48.3748 51.8353 48.4008 50.6953C58.3889 50.815 68.2884 50.9054 74.0162 50.816C74.0669 52.1182 74.2259 56.3587 74.3352 61L48.2112 61ZM48.1744 64C48.112 69.9979 48.1265 75.763 48.4074 76C48.4814 76 48.9197 76.0156 49.6323 76.0409C54.631 76.2184 73.1248 76.8752 74 76C74.4689 75.5311 74.4981 69.8754 74.3968 64L48.1744 64ZM62.9259 55.1666C62.9259 56.1178 62.5 57 61.2037 56.8889C59.9075 56.7777 59.4815 56.1178 59.4815 55.1666C59.4815 54.2155 59.9075 53.3889 61.2037 53.4444C62.5 53.5 62.9259 54.2155 62.9259 55.1666ZM60.1721 70.4708C60.6319 71.6879 61.6115 71.6909 62.4693 71.28C63.3271 70.8691 63.7884 70.1758 63.2785 68.9828C62.7686 67.7897 61.8391 67.7627 60.9813 68.1736C60.1235 68.5845 59.7123 69.2538 60.1721 70.4708Z" fill="#4700D6"/>
</svg>
