<?xml version="1.0" encoding="utf-8"?>
<!-- Generator: Adobe Illustrator 25.0.1, SVG Export Plug-In . SVG Version: 6.00 Build 0)  -->
<svg version="1.1" id="Layer_1" xmlns="http://www.w3.org/2000/svg" xmlns:xlink="http://www.w3.org/1999/xlink" x="0px" y="0px"
	 viewBox="0 0 250 250" style="enable-background:new 0 0 250 250;" xml:space="preserve">
<style type="text/css">
	.st0{fill:#E60053;}
	.st1{fill:#7E4CE2;}
	.st2{fill:#FFFFFF;}
</style>
<g>
	<g>
		<path class="st0" d="M93.14,169.11c-3.11,1.12-5.83,3.52-7.33,6.89c-1.56,3.5-2.32,7.49-1.34,11.2c1.33,5.04,6.03,8.98,11.22,9.52
			c5.19,0.53,10.54-2.31,13.1-6.85c3.44-6.11,1.44-13.77-3.6-18.33C101.63,168.31,97.06,167.7,93.14,169.11z"/>
	</g>
	<g>
		<path class="st0" d="M182.45,167.91c-9.59-3.19-21.71,1.44-21.25,13.07c0.2,5.12,3.28,9.93,7.61,12.67
			c4.33,2.75,9.75,3.52,14.79,2.59c3.58-0.66,7.09-2.2,9.61-4.84c4.6-4.81,4.1-11.53-0.09-16.39
			C190.36,171.83,186.46,169.25,182.45,167.91z"/>
	</g>
	<g>
		<path class="st1" d="M76.68,109.03c-1.99,0-3.87-1.2-4.65-3.16c-2.06-5.21-0.83-10.33,0.25-14.85c0.18-0.75,0.36-1.49,0.52-2.23
			c0.53-2.46,0.84-4.98,0.9-7.5c0.02-0.8-0.01-1.16-0.04-1.33c-0.06-0.06-0.18-0.18-0.43-0.34c-0.97-0.63-2.23-0.88-3.36-0.65
			c-0.74,0.15-1.64,0.52-2.59,0.91c-0.91,0.37-1.93,0.8-3.06,1.13c-4.3,1.27-8.44,0.43-11.06-2.24c-1.93-1.97-1.9-5.14,0.07-7.07
			c1.91-1.87,4.93-1.9,6.87-0.12c0.23,0.03,0.69,0.01,1.28-0.16c0.62-0.18,1.33-0.47,2.07-0.78c1.29-0.53,2.75-1.14,4.45-1.47
			c3.69-0.73,7.61,0.02,10.77,2.08c1.86,1.21,3.21,2.71,4.03,4.47c0.94,2.02,1.03,4,0.98,5.84c-0.08,3.14-0.46,6.29-1.13,9.36
			c-0.18,0.81-0.37,1.62-0.57,2.44c-0.81,3.37-1.58,6.56-0.68,8.83c1.02,2.57-0.24,5.47-2.81,6.49
			C77.92,108.91,77.29,109.03,76.68,109.03z"/>
	</g>
	<g>
		<path class="st2" d="M75.28,100.6c-3.03,22.74,2.26,48.94,21.33,61.69c9.41,6.29,20.96,8.49,32.25,9.45
			c8.54,0.72,17.3,0.79,25.48-1.76c14.37-4.47,25.38-16.69,31.41-30.47c6.04-13.78,7.69-29.06,8.23-44.1
			c-9.63-1.44-19.48-2.87-29.06-1.08c-8.72,1.63-16.76,5.86-25.4,7.89c-10.78,2.54-22.04,1.59-33.08,0.61
			C93.87,101.73,81.3,100.62,75.28,100.6z"/>
		<path class="st1" d="M138.04,177.17c-3.43,0-6.68-0.21-9.59-0.45c-10.26-0.87-23.46-2.82-34.6-10.27
			c-21.91-14.65-26.51-43.96-23.51-66.51c0.33-2.49,2.45-4.34,4.96-4.34c0.01,0,0.01,0,0.02,0c6.23,0.03,18.55,1.11,31.59,2.26
			c10.51,0.93,21.39,1.88,31.49-0.5c3.67-0.87,7.26-2.17,11.06-3.55c4.64-1.69,9.44-3.43,14.57-4.39
			c10.5-1.96,21.24-0.36,30.71,1.05c2.52,0.38,4.35,2.58,4.26,5.12c-0.51,14.11-1.93,30.61-8.65,45.93
			c-7.25,16.56-19.83,28.67-34.51,33.23C149.86,176.62,143.7,177.17,138.04,177.17z M79.75,105.75
			c-2.33,27.27,8.39,44.86,19.65,52.39c7.21,4.83,16.43,7.48,29.89,8.62c6.81,0.58,15.64,0.92,23.57-1.55
			c11.91-3.7,22.23-13.8,28.32-27.7c5.37-12.25,6.99-25.71,7.62-37.8c-7.71-1.08-15.53-1.85-22.95-0.46
			c-4.32,0.81-8.53,2.34-12.99,3.96c-3.9,1.42-7.94,2.89-12.18,3.89c-11.67,2.75-23.89,1.68-34.66,0.73
			C96.32,106.97,86.36,106.09,79.75,105.75z"/>
	</g>
	<g>
		<path class="st1" d="M134.65,84.21c-1.51,0-3-0.68-3.99-1.98L122.14,71c-1.67-2.2-1.24-5.34,0.96-7.01s5.34-1.24,7.01,0.96
			l8.52,11.23c1.67,2.2,1.24,5.34-0.96,7.01C136.76,83.87,135.7,84.21,134.65,84.21z"/>
	</g>
	<g>
		<path class="st1" d="M155.55,83.48c-0.2,0-0.4-0.01-0.61-0.04c-2.74-0.33-4.7-2.82-4.36-5.56l2.51-20.79
			c0.33-2.74,2.8-4.7,5.56-4.36c2.74,0.33,4.7,2.82,4.36,5.56l-2.51,20.79C160.2,81.61,158.04,83.48,155.55,83.48z"/>
	</g>
	<g>
		<path class="st1" d="M178.75,85.23c-1.03,0-2.06-0.31-2.95-0.97c-2.23-1.63-2.71-4.76-1.08-6.99l11.63-15.86
			c1.63-2.23,4.76-2.71,6.99-1.07c2.23,1.63,2.71,4.76,1.08,6.99l-11.63,15.86C181.8,84.52,180.29,85.23,178.75,85.23z"/>
	</g>
</g>
</svg>
