<?xml version="1.0" encoding="utf-8"?>
<!-- Generator: Adobe Illustrator 25.0.1, SVG Export Plug-In . SVG Version: 6.00 Build 0)  -->
<svg version="1.1" id="Layer_1" xmlns="http://www.w3.org/2000/svg" xmlns:xlink="http://www.w3.org/1999/xlink" x="0px" y="0px"
	 viewBox="0 0 250 250" style="enable-background:new 0 0 250 250;" xml:space="preserve">
<style type="text/css">
	.st0{fill:#FFFFFF;}
	.st1{fill:#7E4CE2;}
	.st2{fill:#E60053;}
</style>
<g>
	<g>
		<path class="st0" d="M102.67,88.01c-13.32,0.18-26.64,0.36-39.96,0.53c-5.36,0.07-11.47,0.5-14.8,4.74
			c-2.35,2.99-2.62,7.08-2.79,10.9c-0.3,6.59-0.59,13.18-0.89,19.77c-0.62,13.81-1.21,27.88,2.4,41.22
			c3.61,13.33,12.18,26.05,24.95,31.01c10.03,3.9,21.2,2.62,31.9,1.61c23.21-2.2,46.56-2.92,69.86-2.14
			c8.39,0.28,17.65,0.48,24.12-4.92c7.41-6.18,8.24-17.17,8.29-26.87c0.09-17.42-0.46-34.85-1.66-52.24
			c-0.49-7.17-1.58-15.26-7.34-19.49c-4.05-2.98-9.4-3.23-14.4-3.36C147.74,87.81,113.19,87.87,102.67,88.01z"/>
		<path class="st1" d="M87.77,203.83c-6.06,0-12.11-0.71-18.01-3c-13.06-5.08-23.52-17.92-27.97-34.36
			c-3.85-14.21-3.17-29.37-2.57-42.75l0.89-19.77c0.18-3.96,0.42-9.39,3.85-13.76c5.08-6.47,13.92-6.58,18.67-6.65l39.96-0.53
			c11.54-0.15,46.25-0.17,79.88,0.75c4.97,0.14,11.78,0.32,17.23,4.33c7.19,5.29,8.75,14.26,9.36,23.17
			c1.2,17.42,1.76,35.12,1.67,52.61c-0.06,11.62-1.33,23.38-10.09,30.69c-8.06,6.73-18.83,6.37-27.49,6.08
			c-23.01-0.77-46.3-0.05-69.22,2.12l-1.3,0.12C97.75,203.35,92.76,203.83,87.77,203.83z M102.74,93.01l-39.96,0.53
			c-4.26,0.06-8.97,0.33-10.94,2.83c-1.34,1.71-1.57,4.65-1.73,8.03l-0.89,19.77c-0.6,13.26-1.21,26.98,2.23,39.69
			c3.62,13.39,11.83,23.73,21.94,27.66c8.52,3.31,18.58,2.35,28.32,1.42l1.3-0.12c23.34-2.22,47.06-2.95,70.5-2.16
			c7.32,0.24,15.61,0.52,20.75-3.76c5.63-4.69,6.45-13.86,6.5-23.06c0.09-17.24-0.46-34.68-1.65-51.87
			c-0.45-6.51-1.4-12.93-5.31-15.81c-2.71-1.99-6.85-2.26-11.58-2.39C148.73,92.84,114.21,92.85,102.74,93.01L102.74,93.01z"/>
	</g>
	<g>
		<g>
			<path class="st2" d="M139.6,193.46c-1.51,0-2.91-0.75-3.75-2.01c-5.18-7.78-13.06-13.8-25.56-19.53
				c-10.21-4.67-20.47-10.4-30.47-17.01c-6.33-4.18-13.32-9.32-16.11-17.3c-1.98-5.64-1.64-12.28,1-19.73
				c3.43-9.68,9.39-16.9,16.79-20.34c3.25-1.51,6.91-2.3,10.61-2.3c4.68,0,9.21,1.23,13.09,3.57c5.09,3.06,8.46,7.71,9.79,13.48
				c0.86-1.58,1.84-3.21,3.1-4.73c5.33-6.39,12.46-11.34,20.6-14.32c5.48-2,11.19-3.02,16.97-3.02c6.45,0,12.57,1.26,18.18,3.75
				c5.55,2.46,9.03,5.59,10.63,9.56c1.76,4.36,0.88,9.02-0.08,12.58c-0.83,3.09-1.95,6.28-3.32,9.47
				c-4.42,10.29-10.86,19.45-17.09,28.31c-1.32,1.88-2.64,3.75-3.94,5.63c-3.67,5.33-6.98,10.97-9.83,16.76
				c-1.42,2.9-2.76,5.88-3.97,8.88c-0.13,0.32-0.4,0.9-0.74,1.62c-0.51,1.08-1.2,2.55-1.72,3.84
				C143.1,192.35,141.46,193.46,139.6,193.46z"/>
		</g>
		<g>
			<path class="st0" d="M155.67,93.22c5.83,0,11.63,1.13,16.96,3.49c3.77,1.67,7.53,4.12,9.07,7.94c1.36,3.36,0.75,7.18-0.19,10.68
				c-0.83,3.1-1.92,6.12-3.18,9.07c-5.21,12.13-13.3,22.63-20.75,33.42c-3.77,5.46-7.13,11.19-10.06,17.14
				c-1.46,2.97-2.82,6-4.06,9.08c-0.32,0.78-1.59,3.29-2.46,5.47c-0.25,0.62-0.82,0.95-1.4,0.95c-0.47,0-0.95-0.22-1.25-0.67
				c-6.41-9.64-16.31-15.79-26.81-20.59c-10.45-4.78-20.48-10.45-30.07-16.79c-6.14-4.06-12.5-8.82-14.94-15.79
				c-2-5.7-1.02-12.05,1-17.74c2.75-7.76,7.76-15.15,15.23-18.62c2.92-1.36,6.13-2.03,9.35-2.02c4.04,0,8.08,1.06,11.55,3.14
				c4.52,2.72,7.4,6.77,8.49,11.93c0.18,0.86,0.33,1.74,0.76,2.5c0.47,0.82,1.01,1.17,1.58,1.17c0.08,0,0.16-0.01,0.23-0.02
				c0.89-0.15,1.8-1.11,2.43-2.33c0.94-1.81,1.95-3.59,3.25-5.15c5.1-6.11,11.88-10.7,19.33-13.43
				C144.82,94.19,150.26,93.22,155.67,93.22 M155.67,87.22c-6.14,0-12.2,1.08-18,3.2c-8.64,3.16-16.2,8.42-21.87,15.22
				c-0.01,0.02-0.03,0.04-0.04,0.05c-2.02-3.87-5.06-7.08-9-9.45c-4.35-2.62-9.41-4-14.64-4c-4.13,0-8.24,0.89-11.87,2.58
				c-8.14,3.78-14.66,11.61-18.36,22.05c-2.88,8.11-3.21,15.42-1.01,21.72c2.96,8.44,10.06,14.03,17.29,18.81
				c10.13,6.7,20.52,12.5,30.88,17.24c11.97,5.48,19.47,11.17,24.31,18.46c1.39,2.1,3.73,3.35,6.24,3.35c3.09,0,5.83-1.85,6.97-4.72
				c0.48-1.21,1.16-2.63,1.65-3.67c0.36-0.77,0.63-1.33,0.81-1.78c1.18-2.92,2.48-5.84,3.88-8.68c2.78-5.66,6.02-11.18,9.61-16.38
				c1.29-1.88,2.61-3.74,3.92-5.61c6.32-8.98,12.86-18.28,17.4-28.85c1.43-3.32,2.59-6.65,3.46-9.87c1.08-4.02,2.06-9.3-0.04-14.49
				c-1.91-4.73-5.9-8.38-12.2-11.18C169.07,88.57,162.54,87.22,155.67,87.22L155.67,87.22z"/>
		</g>
	</g>
	<g>
		<path class="st0" d="M34.6,80.52c-4.33-2.53-8.66-5.05-12.99-7.58"/>
		<path class="st1" d="M34.59,85.52c-0.86,0-1.72-0.22-2.51-0.68l-12.99-7.58c-2.39-1.39-3.19-4.45-1.8-6.84s4.45-3.19,6.84-1.8
			l12.99,7.58c2.39,1.39,3.19,4.45,1.8,6.84C37.99,84.63,36.31,85.52,34.59,85.52z"/>
	</g>
	<g>
		<path class="st0" d="M68.74,68.05c-2.46-5.17-4.34-10.6-5.6-16.18"/>
		<path class="st1" d="M68.74,73.05c-1.87,0-3.66-1.05-4.52-2.85c-2.61-5.5-4.62-11.29-5.96-17.23c-0.61-2.69,1.08-5.37,3.78-5.98
			c2.69-0.61,5.37,1.08,5.98,3.78c1.18,5.21,2.94,10.31,5.23,15.14c1.19,2.49,0.12,5.48-2.37,6.66
			C70.19,72.9,69.46,73.05,68.74,73.05z"/>
	</g>
	<g>
		<path class="st0" d="M185.55,69.69c1.82-5.79,2.96-11.79,3.4-17.84"/>
		<path class="st1" d="M185.55,74.69c-0.5,0-1-0.07-1.5-0.23c-2.63-0.83-4.1-3.63-3.27-6.27c1.7-5.42,2.77-11.04,3.19-16.7
			c0.2-2.75,2.59-4.81,5.35-4.62c2.75,0.2,4.82,2.6,4.62,5.35c-0.47,6.44-1.69,12.82-3.62,18.98
			C189.65,73.32,187.68,74.69,185.55,74.69z"/>
	</g>
	<g>
		<path class="st0" d="M214.18,75c5.43-4.62,10.03-10.2,13.54-16.41"/>
		<path class="st1" d="M214.18,80c-1.41,0-2.82-0.6-3.81-1.76c-1.79-2.1-1.54-5.26,0.56-7.05c5.01-4.27,9.19-9.34,12.43-15.06
			c1.36-2.4,4.41-3.25,6.81-1.89c2.4,1.36,3.25,4.41,1.89,6.81c-3.82,6.75-8.75,12.72-14.65,17.75C216.48,79.61,215.33,80,214.18,80
			z"/>
	</g>
	<g>
		<path class="st1" d="M90.04,91.02c-0.07-2.83-0.68-5.85-1.33-9.05c-1.36-6.68-2.9-14.25,0.84-21.3
			c5.81-10.97,20.41-12.22,25.2-12.63c10.81-0.93,21.77-0.87,32.57,0.16c1.88,0.18,5.37,0.51,7.96,3.17
			c2.51,2.58,2.83,5.92,3.02,7.92l2.41,25.5l-9.96,0.94l-2.41-25.5c-0.04-0.39-0.13-1.33-0.26-1.82c-0.32-0.09-0.9-0.18-1.71-0.26
			c-10.2-0.97-20.55-1.02-30.76-0.15c-9.39,0.8-15.03,3.21-17.22,7.35c-2.06,3.89-1.05,8.87,0.12,14.63
			c0.71,3.48,1.44,7.09,1.53,10.8L90.04,91.02z M148.29,58.49L148.29,58.49L148.29,58.49z"/>
	</g>
	<g>
		<path class="st0" d="M121.83,124.52c2.14,0.94,6.51-1.81,8.56-0.67c1.29,0.72,1.53,2.43,1.63,3.91c0.16,2.49,0.32,4.99,0.48,7.48
			c0.04,0.6,0.11,1.27,0.56,1.68c0.42,0.38,1.03,0.41,1.59,0.42c4.57,0.09,3.57-0.14,8.14-0.06c0.91,0.02,1.95,0.1,2.47,0.84
			c0.3,0.43,0.35,0.98,0.39,1.51c0.16,2.17,0.33,4.34,0.49,6.5c0.04,0.58,0.05,1.25-0.38,1.63c-0.35,0.31-0.86,0.31-1.33,0.3
			c-5.08-0.1-6.32,0.43-11.4,0.32c-0.03,4.84,0.15,9.68,0.53,14.5c-2.99,0.35-5.99,0.71-8.98,1.06c-0.51,0.06-1.07,0.11-1.49-0.18
			c-0.46-0.32-0.59-0.94-0.67-1.49c-0.66-4.42-0.88-8.92-0.65-13.38c-3.92-0.08-7.85,0.11-11.74,0.57c-0.03-2.63-0.07-5.25-0.1-7.88
			c-0.01-0.62,0.01-1.3,0.43-1.75c0.37-0.4,0.96-0.5,1.49-0.57c3.38-0.48,6.76-0.96,10.14-1.44c-0.65,0-0.51-12.01-0.31-13.02
			c0.03-0.03,0.06-0.06,0.09-0.09"/>
	</g>
</g>
</svg>
