<svg xmlns="http://www.w3.org/2000/svg" fill="none" viewBox="0 0 1355 795">
  <path fill="#FDDB12" fill-rule="evenodd" d="M637.5 725.5l6.4 2 6 3.5c204.3 115.4 448 60.2 579-50.7 173.5-146.7 176-460.6-43-596C967-51.3 664.4-17.4 491.3 142.7 358.9 265.2 304 616.4 637.5 725.5zm-11.3-7C470.5 663 404.6 552.9 392.9 441 380.8 324.4 427.5 206 493.3 145c172.1-159.2 473.2-193 691-58.2C1401.4 221 1399.1 532.5 1227 678 1099.6 786 864.7 840.8 664.4 735.5c97.5 29.8 213.8 57 410 16a1.5 1.5 0 10-.7-3c-205 43-322.3 11-422.6-20.3l-5.7-3.2-.3-.2-.3-.1-6-2c-61.5-37-119-90-168.5-162.3a1.5 1.5 0 00-2.5 1.7 552.8 552.8 0 00158.4 156.4z" clip-rule="evenodd" opacity=".5"/>
  <path fill="#FDDB12" d="M104.3 268.7c1 4.5 8 97.3 3.6 97.7-4.4.4-102.2-1.1-102.2-1.1L.8 272.7s102.4-8.4 103.5-4z" opacity=".7"/>
  <path fill="#E60053" d="M1202.6 64.1c-1 28.6-31.1 52.7-64.4 53.9-33.4 1.2-65.4-23-64.5-53.9A65.2 65.2 0 011138.2.5c40-1.1 65.5 35 64.4 63.6z" opacity=".5"/>
  <path fill="#4700D6" d="M426.2 747.6c-1.6.6-127.7-26.8-123-35 4.9-8 90.4-84.3 90.4-84.3s34.2 118.7 32.6 119.3z" opacity=".5"/>
</svg>
