<?xml version="1.0" encoding="utf-8"?>
<!-- Generator: Adobe Illustrator 25.0.1, SVG Export Plug-In . SVG Version: 6.00 Build 0)  -->
<svg version="1.1" id="Layer_1" xmlns="http://www.w3.org/2000/svg" xmlns:xlink="http://www.w3.org/1999/xlink" x="0px" y="0px"
	 viewBox="0 0 250 250" style="enable-background:new 0 0 250 250;" xml:space="preserve">
<style type="text/css">
	.st0{fill:#F9CF39;}
	.st1{fill:#FFFFFF;}
	.st2{fill:#7E4CE2;}
	.st3{fill:#E60053;}
</style>
<g>
	<g>
		<path class="st0" d="M67.25,67.73c-9.78,1.81-19.36,6.67-24.99,14.87s-6.47,20-0.46,27.93c3.79,5,9.69,7.95,15.63,9.97
			c10.4,3.53,23.27,4.15,31-3.64c5.89-5.94,7.05-14.97,7.68-23.31c0.64-8.59,0.6-18.4-5.69-24.29C83.96,63.2,74.4,66.4,67.25,67.73z
			"/>
	</g>
	<g>
		<path class="st0" d="M198.66,99.34c-0.22,0.14-0.43,0.29-0.63,0.44c-1.37,1.01-2.54,2.28-3.57,3.64
			c-0.96,1.27-1.99,2.62-2.26,4.23c-0.63,3.66,0.81,7.52,3.41,10.18c2.6,2.65,6.24,4.15,9.94,4.52c3.01,0.3,6.26-0.2,8.53-2.19
			c1.88-1.65,2.85-4.12,3.45-6.55c0.74-2.98,1-6.24-0.31-9.02c-1.16-2.45-3.28-4.23-5.72-5.32c-2.1-0.94-4.27-1.36-6.52-1.65
			C202.77,97.33,200.51,98.13,198.66,99.34z"/>
	</g>
	<g>
		<path class="st0" d="M182.35,98.09c-4.93,0-9.69-1.12-13.72-3.27c-5.94-3.17-10.25-8.48-11.82-14.58
			c-1.68-6.5-0.89-13.02,2.09-17.46c1.76-2.62,4.03-4.6,6.02-6.19c0.91-0.73,1.74-1.35,2.53-1.9c1.75-1.22,3.41-2.16,5.08-2.85
			c8.44-3.52,19.72-0.29,27.15,4.46c7.03,4.5,11.28,12.16,10.83,19.52c-0.27,4.38-2.17,8.82-5.35,12.49
			c-4.47,5.16-11.07,8.53-18.58,9.5C185.16,98,183.74,98.09,182.35,98.09z M180.55,58.34c-1.79,0-3.48,0.27-4.95,0.88
			c-1.13,0.47-2.3,1.13-3.57,2.02l0,0c-0.65,0.45-1.33,0.97-2.11,1.59c-1.52,1.21-3.22,2.69-4.38,4.41
			c-1.68,2.49-2.06,6.8-0.98,10.99c1,3.88,3.93,7.44,7.84,9.52c3.72,1.98,8.39,2.74,13.15,2.12c5.48-0.71,10.42-3.19,13.56-6.81
			c2.04-2.35,3.25-5.1,3.41-7.75c0.28-4.5-2.53-9.33-7.16-12.29C191.21,60.38,185.47,58.34,180.55,58.34z"/>
	</g>
	<g>
		<path class="st0" d="M180.54,157c-0.28,0-0.56-0.01-0.83-0.02c-8.3-0.39-14.59-6.22-18.6-10.56c-2.44-2.65-5.08-5.9-6.16-9.96
			c-1.31-4.93,1.64-7.91,5.72-12.04c0.65-0.65,1.35-1.37,2.13-2.17l0,0c4.78-4.94,12.65-6.65,19.58-4.24
			c6.04,2.1,11.11,7.01,13.9,13.48c1.32,3.07,1.95,6.06,1.86,8.88c-0.15,4.64-2.26,9.09-5.78,12.21
			C189.13,155.41,184.87,157,180.54,157z M162.64,134.25c0,0,0.01,0.06,0.04,0.15c0.63,2.37,2.45,4.57,4.31,6.59
			c4.86,5.26,9.02,7.8,13.1,8c2.52,0.11,5.11-0.78,6.95-2.41c1.85-1.64,3.01-4.06,3.09-6.48c0.05-1.64-0.35-3.47-1.21-5.45
			c-1.88-4.35-5.31-7.75-9.17-9.09c-3.98-1.38-8.59-0.46-11.21,2.25l0,0c-0.8,0.82-1.53,1.56-2.19,2.23
			C164.7,131.71,162.84,133.59,162.64,134.25z"/>
	</g>
	<g>
		<path class="st0" d="M48.52,163.91c-0.31,0-0.61-0.01-0.92-0.03c-5.5-0.35-10.85-3.76-14.68-9.37c-3.8-5.56-5.19-11.88-3.81-17.33
			c1.8-7.11,8.45-12.08,15.15-11.33l0,0c0.46,0.05,1.46-0.02,2.35-0.09c1.45-0.11,3.25-0.25,5.11-0.09
			c4.13,0.35,7.79,1.95,10.3,4.51c2.91,2.96,4.46,7.28,4.49,12.48c0.03,5.45-1.58,10.55-4.52,14.36
			C58.65,161.33,53.57,163.91,48.52,163.91z M42.91,133.78c-2.55,0-5.3,2.39-6.05,5.36c-0.82,3.23,0.15,7.19,2.66,10.86
			c2.39,3.51,5.6,5.71,8.58,5.9c2.68,0.17,5.65-1.31,7.55-3.77c1.86-2.4,2.87-5.75,2.85-9.42c-0.01-1.76-0.31-4.99-2.19-6.92
			c-1.17-1.19-3.05-1.96-5.27-2.15c-1.22-0.11-2.55,0-3.83,0.09c-1.36,0.1-2.64,0.2-3.85,0.06l0,0
			C43.21,133.79,43.06,133.78,42.91,133.78z"/>
	</g>
	<g>
		<path class="st1" d="M77.96,171.03c3.55-19.25-0.34-39.69,5.88-58.25c4.42-13.2,14.33-24.84,27.36-29.75s29.01-2.28,38.7,7.73
			c9.79,10.12,11.85,25.2,13.42,39.18c1.02,9.12,2.05,18.24,3.07,27.36c0.36,3.17,0.78,6.52,2.76,9.01
			c4.79,6.04,15.46,3.67,20.66,9.36c5.53,6.06-0.05,16.59-7.83,19.19s-16.21,0.18-24.29-1.28c-25.64-4.62-51.86,0.79-77.78,3.4
			c-5.36,0.54-10.98,0.92-15.96-1.14s-9.06-7.33-7.94-12.6c1.26-5.98,7.93-8.85,13.73-10.79C73.63,171.17,77.53,169.86,77.96,171.03
			z"/>
		<path class="st2" d="M73.03,202.42c-3.7,0-7.41-0.46-11-1.94c-6.59-2.72-12.66-10.05-10.92-18.26c2-9.47,12.54-12.99,17.03-14.5
			c1.89-0.63,3.85-1.29,5.54-1.7c0.85-6.46,0.98-13.07,1.12-19.99c0.23-11.52,0.47-23.43,4.3-34.85
			c5.14-15.34,16.48-27.62,30.33-32.84c15.28-5.76,33.39-2.09,44.05,8.93c11.39,11.78,13.36,29.3,14.79,42.1l3.07,27.36
			c0.25,2.23,0.56,5.01,1.71,6.46c1.35,1.7,4.25,2.35,7.62,3.1c4.32,0.96,9.22,2.05,12.82,6c3.2,3.51,4.29,8.37,3,13.34
			c-1.64,6.32-6.84,11.93-12.94,13.96c-7.83,2.62-15.92,1.02-23.06-0.39c-1.24-0.24-2.47-0.49-3.69-0.71
			c-19.31-3.48-39.65-0.96-59.32,1.47c-5.59,0.69-11.37,1.41-17.07,1.98C77.99,202.21,75.52,202.42,73.03,202.42z M76.19,175.71
			c-1.27,0.3-3.46,1.03-4.87,1.5c-4.47,1.5-9.7,3.65-10.42,7.08c-0.57,2.69,2.1,5.77,4.96,6.95c3.85,1.59,8.61,1.28,13.55,0.78
			c5.58-0.56,11.31-1.27,16.84-1.95c20.41-2.53,41.52-5.14,62.32-1.39c1.28,0.23,2.56,0.48,3.85,0.74
			c6.5,1.28,12.64,2.49,17.96,0.72c2.92-0.98,5.63-3.92,6.43-6.99c0.44-1.71,0.21-3.08-0.71-4.08c-1.47-1.62-4.45-2.28-7.6-2.98
			c-4.56-1.02-9.73-2.17-13.28-6.64c-2.94-3.7-3.44-8.25-3.82-11.56l-3.07-27.36c-1.65-14.74-3.7-27.64-12.04-36.27
			c-7.97-8.24-21.68-10.93-33.34-6.53c-11.07,4.17-20.19,14.14-24.38,26.66c-3.34,9.97-3.55,20.61-3.78,31.88
			c-0.17,8.42-0.34,17.13-1.92,25.69c-0.41,2.21-2.24,3.88-4.48,4.07C77.63,176.07,76.88,175.96,76.19,175.71z"/>
	</g>
	<g>
		<path class="st1" d="M115.67,85.94c-3.63-7.36-7.27-14.73-11.06-23.48c10.98-0.56,22.41-1.23,32.01-6.6
			c4.11-2.3,9.73-5.24,12.85-1.71c-4.96,4.16-8.22,10.29-8.88,16.73c-0.25,2.43-0.16,4.96-1.17,7.19S135.79,82.05,115.67,85.94z"/>
		<path class="st2" d="M112.87,91.57l-1.69-3.42c-3.6-7.29-7.32-14.84-11.16-23.71l-2.86-6.61l7.2-0.36
			c9.86-0.5,21.04-1.07,29.82-5.97c3.93-2.19,13.13-7.33,19.03-0.66l3.4,3.85l-3.94,3.3c-3.99,3.34-6.58,8.23-7.11,13.41
			c-0.05,0.51-0.09,1.04-0.12,1.56c-0.15,2.19-0.32,4.67-1.47,7.19c-2.06,4.54-6.1,6.61-27.36,10.71L112.87,91.57z M112.12,67.03
			c2.14,4.68,4.26,9.04,6.34,13.26c12.06-2.45,15.53-3.81,16.48-4.47c0.34-0.88,0.43-2.19,0.52-3.56c0.04-0.63,0.09-1.26,0.15-1.88
			c0.35-3.39,1.28-6.69,2.73-9.76C130.04,65.04,120.85,66.39,112.12,67.03z"/>
	</g>
	<g>
		<path class="st3" d="M120.64,172.87c-0.72,0-1.44-0.04-2.15-0.11c-10.15-1.07-18.3-10.59-17.79-20.78l7.99,0.4
			c-0.3,5.88,4.77,11.81,10.63,12.42c2.34,0.25,4.95-0.18,7.76-1.27c4.03-1.56,7.32-4.08,9.25-7.11c2.05-3.19,2.6-7.1,1.44-10.2
			c-1.04-2.79-3.58-5.31-6.96-6.9c-3.71-1.75-8.03-2.3-11.38-2.59l-0.48-0.04c-3.13-0.27-7.03-0.6-10.24-3.01
			c-2.16-1.62-3.51-3.83-4.55-5.78c-1.62-3.05-3.6-7.65-2.03-12.38c2.08-6.24,8.98-8.71,14.75-8.94c7.21-0.29,14.55,1.65,20.69,5.44
			l-4.21,6.8c-4.79-2.96-10.53-4.48-16.16-4.25c-3.19,0.13-6.74,1.25-7.48,3.47c-0.45,1.36,0.04,3.35,1.5,6.09
			c0.66,1.23,1.39,2.47,2.3,3.15c1.37,1.03,3.67,1.22,6.11,1.43l0.5,0.04c4.01,0.35,9.24,1.04,14.09,3.33
			c5.33,2.51,9.26,6.54,11.05,11.34c2.05,5.49,1.23,11.97-2.2,17.31c-2.89,4.5-7.42,8.05-13.1,10.25
			C126.76,172.24,123.62,172.87,120.64,172.87z"/>
	</g>
	<g>
		<path class="st3" d="M132.66,180.68l-8-0.17c0.17-8.02-1.87-15.88-4.02-24.2c-0.33-1.26-0.65-2.53-0.97-3.79
			c-5.56-22.05-6.9-38.81-4.35-54.34l7.89,1.3c-2.37,14.4-1.07,30.16,4.21,51.09c0.31,1.25,0.64,2.49,0.96,3.74
			C130.58,162.79,132.85,171.56,132.66,180.68z"/>
	</g>
</g>
</svg>
