<svg width="95" height="95" viewBox="0 0 95 95" fill="none" xmlns="http://www.w3.org/2000/svg">
<g clip-path="url(#clip0)">
<rect width="95" height="95" fill="white"/>
<path fill-rule="evenodd" clip-rule="evenodd" d="M42.9198 1.5637C18.6277 2.8499 -0.0634879 23.4343 -0.0634879 48.804C-0.0634874 74.693 16.7222 91.9134 46.9365 94.4247C56.8674 95.2501 69.0706 89.9646 78.5534 81.0959C77.7604 80.9603 76.9282 80.8146 76.0609 80.6595C67.0174 88.6573 55.9137 93.1639 47.1022 92.4316C32.331 91.2038 21.0669 86.4015 13.5098 78.9563C5.97325 71.5314 1.93651 61.2956 1.93651 48.804C1.93651 24.6329 19.5568 5.13151 42.4222 3.59722C42.588 2.86453 42.7547 2.17892 42.9198 1.5637ZM74.1299 14.0753C74.2984 13.3417 74.4629 12.6181 74.6191 11.9207C78.3967 14.8198 81.7899 18.2293 84.6393 22.0271C83.5989 21.7529 82.5241 21.4727 81.4204 21.188C79.2426 18.5837 76.7913 16.1963 74.1299 14.0753ZM81.747 74.8108L83.516 75.2243L84.3202 71.4443C83.5119 72.6005 82.652 73.7239 81.747 74.8108ZM90.9747 40.1638C90.1155 36.3225 88.7052 32.6333 86.8432 29.1742C87.8047 29.4184 88.6735 29.6397 89.4346 29.8341C90.3934 31.7914 91.215 33.8144 91.8836 35.891L90.9747 40.1638Z" fill="#FDDB12"/>
<path fill-rule="evenodd" clip-rule="evenodd" d="M87.2611 31.4881C87.2611 31.4881 27.875 16.2713 25.1921 17.7141C22.5092 19.1569 16.186 58.2977 16.186 58.2977L78.4966 72.8136L87.2611 31.4881ZM20.5483 10.4215C19.0297 11.628 8.02576 60.3245 8.89335 62.9414C9.76094 65.5584 80.3156 80.457 82.8987 79.3643C85.4819 78.2716 95.0567 30.0641 94.382 28.0549C93.7073 26.0457 22.0669 9.21488 20.5483 10.4215Z" fill="#4700D6"/>
<path fill-rule="evenodd" clip-rule="evenodd" d="M44.748 0.136405C46.2651 -0.319691 74.4603 5.479 74.5889 6.75854C74.7175 8.03808 70.7481 24.0662 70.7481 24.0662L64.7799 22.7418C64.7799 22.7418 67.8062 13.2324 67.2963 11.4023C66.7864 9.57223 49.3918 7.42901 49.3918 7.42901L46.8754 18.7685L40.9072 17.4441C40.9072 17.4441 43.2309 0.592502 44.748 0.136405Z" fill="#4700D6"/>
<circle cx="50.5299" cy="44.628" r="15.8947" transform="rotate(12.512 50.5299 44.628)" fill="#E60053"/>
<line x1="52.2142" y1="34.9825" x2="47.976" y2="54.0806" stroke="white" stroke-width="4"/>
<line x1="60.1755" y1="46.3124" x2="41.0773" y2="42.0742" stroke="white" stroke-width="4"/>
</g>
<defs>
<clipPath id="clip0">
<rect width="95" height="95" fill="white"/>
</clipPath>
</defs>
</svg>
