<?xml version="1.0" encoding="utf-8"?>
<!-- Generator: Adobe Illustrator 25.0.1, SVG Export Plug-In . SVG Version: 6.00 Build 0)  -->
<svg version="1.1" id="Layer_1" xmlns="http://www.w3.org/2000/svg" xmlns:xlink="http://www.w3.org/1999/xlink" x="0px" y="0px"
	 viewBox="0 0 250 250" style="enable-background:new 0 0 250 250;" xml:space="preserve">
<style type="text/css">
	.st0{fill:none;stroke:#F9CF39;stroke-width:8;stroke-miterlimit:10;}
	.st1{fill:#FFFFFF;stroke:#7E4CE2;stroke-width:10;stroke-linejoin:round;stroke-miterlimit:10;}
	.st2{fill:none;stroke:#7E4CE2;stroke-width:10;stroke-linecap:round;stroke-linejoin:round;stroke-miterlimit:10;}
	.st3{fill:#E60053;}
	.st4{fill:#FFFFFF;}
	.st5{fill:none;stroke:#F9CF39;stroke-width:7;stroke-linecap:round;stroke-miterlimit:10;}
</style>
<g>
	<path class="st0" d="M178.56,100.03c-0.74-0.01-1.47,0.01-2.21,0.04c-7.04,0.31-13.02,2.98-17.91,8.05
		c-16.67,17.23-4.68,48.43,19.43,49.37c10.52,0.41,20.37-5.23,27.09-13.02c6.78-7.86,12.31-20.15,7.61-30.35
		c-4.83-10.48-16.82-12.63-27.1-13.65C183.18,100.24,180.87,100.05,178.56,100.03z"/>
	<path class="st1" d="M62.48,181.29c48.23-1.75,96.55-0.99,144.7,2.26c-14.51-15.06-29.01-30.12-43.52-45.18
		c-4.13,3.27-7.75,7.19-10.68,11.57c-10.24-11.63-20.47-23.26-30.64-35.67c-17.62,25.18-43.12,43.84-62.17,67.96
		C60.79,182.83,62.02,182.53,62.48,181.29z"/>
	<path class="st2" d="M152.6,150.32c-3.52,4.79-7.04,9.58-10.56,14.37"/>
	<g>
		<g>
			<path class="st3" d="M94.71,194.29l-9.48-0.51c-0.75-0.04-1.88-0.1-2.95-0.75c-1.39-0.83-1.99-2.21-2.35-3.03
				c0-0.01-0.04-0.09-0.04-0.1c-0.37-0.85-0.74-1.72-1.11-2.6s-0.72-1.75-1.08-2.64c-0.35-0.88-0.7-1.76-1.04-2.65
				c-0.34-0.89-0.67-1.77-1-2.67c-0.33-0.89-0.65-1.78-0.96-2.68s-0.62-1.79-0.92-2.69c-0.3-0.9-0.59-1.8-0.88-2.71
				c-0.29-0.9-0.57-1.81-0.84-2.72c-0.27-0.91-0.54-1.82-0.8-2.73s-0.51-1.83-0.76-2.74c-0.25-0.92-0.49-1.83-0.72-2.75
				c-0.23-0.92-0.46-1.84-0.68-2.76c-0.22-0.92-0.43-1.85-0.64-2.77c-0.21-0.92-0.41-1.85-0.6-2.78c-0.19-0.93-0.38-1.86-0.56-2.79
				c-0.18-0.93-0.35-1.86-0.52-2.8c-0.17-0.93-0.33-1.87-0.48-2.8c-0.15-0.93-0.3-1.87-0.44-2.81c-0.14-0.94-0.27-1.88-0.4-2.82
				c-0.13-0.94-0.25-1.88-0.36-2.82c-0.11-0.94-0.22-1.89-0.32-2.83c-0.1-0.94-0.19-1.89-0.28-2.83c-0.09-0.94-0.17-1.89-0.24-2.83
				s-0.14-1.89-0.2-2.84c-0.06-0.95-0.11-1.89-0.15-2.84c-0.04-0.95-0.08-1.9-0.11-2.84c-0.03-0.95-0.06-1.9-0.07-2.85
				c-0.02-0.95-0.03-1.9-0.03-2.84c0-0.53,0-1.05,0-1.58c-2.59,1.13-5.01,2.44-6.82,4.61c-6.06,7.26-6.95,16.01-7.89,25.27
				c-0.08,0.82-0.17,1.64-0.25,2.47c-0.06,0.53-0.23,2.13-1.71,3c-0.51,0.3-1.08,0.45-1.71,0.45c-0.27,0-0.54-0.03-0.83-0.09
				c-2.23-0.44-3.71-2.09-4.62-3.3c-5.49-7.19-6.53-16.18-2.85-24.66c2.65-6.12,7.44-11.1,13.21-14.08
				c-0.15-0.03-0.3-0.06-0.44-0.08c-4.35-0.62-8.45-0.93-12.19-0.93c-11.71,0-20.33,3-25.61,8.93c-0.48,0.54-1.17,0.84-1.87,0.84
				c-0.25,0-0.5-0.04-0.75-0.12c-0.94-0.29-1.62-1.11-1.73-2.09c-0.52-4.36,1.06-9.29,3.92-12.27c3.38-3.51,8.34-4.89,11.77-5.62
				c4.44-0.95,9.03-1.43,13.63-1.43c3.27,0,6.51,0.24,9.7,0.71c-0.26-0.09-0.53-0.18-0.8-0.27c-6.2-2.05-12.6-2.32-18.04-2.32
				c-2,0-4.01,0.04-6.02,0.08c-1.81,0.04-3.63,0.07-5.44,0.08c0,0-0.01,0-0.01,0c-0.7,0-1.36-0.29-1.83-0.8
				c-0.48-0.51-0.71-1.2-0.66-1.9c0.31-3.9,3.46-7.04,8.85-8.85c4.22-1.41,8.68-2.12,13.26-2.12c4.67,0,9.29,0.74,13.64,2.16
				c-2.36-3.76-4.23-7.98-5.5-12.5l-0.17-0.59c-1.61-5.59-2.9-11.22,0.55-13.19c0.73-0.42,1.6-0.63,2.6-0.63
				c5.04,0,13.87,5.82,14.24,6.06c4.87,3.23,8.11,7.3,9.37,11.76c0.15,0.52,0.26,1.04,0.34,1.56c2.02-1.65,4.61-3.08,7.73-4.26
				c6.49-2.45,13.94-3.32,18.76-3.32c0.83,0,1.61,0.03,2.33,0.07l0.96,0.06c4.12,0.26,9.75,0.61,12.51,5.47
				c0.43,0.77,0.43,1.71,0,2.47c-0.44,0.77-1.25,1.24-2.13,1.26c-8.06,0.14-15.69,2.18-21.47,5.75c-3.57,2.21-6.47,5.14-8.44,8.4
				c3.2-1.38,6.74-2.21,9.31-2.8l0.87-0.2c5.16-1.23,10.26-1.85,15.14-1.85c6.67,0,12.85,1.16,18.36,3.46
				c5.45,2.27,8.74,5.6,9.5,9.65c0.38,2-0.48,3.13-1.04,3.62c-0.65,0.58-1.49,0.88-2.49,0.88c0,0-0.22,0-0.33-0.01
				c-2.75-0.14-5.25-0.99-7.66-1.82c-0.56-0.19-1.12-0.38-1.68-0.57c-4.43-1.44-9-2.14-13.98-2.14c-0.58,0-1.17,0.01-1.76,0.03
				c3.12,2.29,5.78,5.18,7.81,8.48c1.4,2.28,1.67,4.23,0.8,5.78c-0.57,1.02-1.87,2.24-4.8,2.24c-2.67,0-5.76-0.97-6.35-1.17
				c-0.8-0.26-1.6-0.53-2.41-0.8c-3.69-1.24-7.17-2.41-10.8-3.08c-1.47-0.27-2.95-0.4-4.52-0.4c-3.44,0-6.77,0.65-9.73,1.42
				c0.23,2.44,0.49,5.43,0.75,8.33c0.41,4.69,0.83,9.53,1.13,11.98c0.77,6.23,1.57,12.67,3.05,18.81c0.52,2.17,1.15,4.37,1.76,6.5
				c0.71,2.5,1.45,5.08,2.05,7.68c0.23,1.02,0.45,2.04,0.66,3.07c0.56,2.71,1.09,5.27,2,7.7c1.19,3.19,3.01,6.11,4.94,9.21
				c1.95,3.13,3.97,6.37,5.34,9.99c0.3,0.79,0.18,1.68-0.32,2.36c-0.47,0.65-1.22,1.02-2.02,1.02
				C94.8,194.29,94.75,194.29,94.71,194.29z"/>
			<path class="st4" d="M47.05,54.15c3.68,0,10.85,4.32,12.86,5.65c3.75,2.49,7.1,5.94,8.35,10.36c0.96,3.38,0.11,6.83,0.01,10.23
				c0.97-10.81,19.55-14.43,29.22-14.43c0.78,0,1.5,0.02,2.15,0.07c4.02,0.28,9.2,0.27,11.47,4.27c-7.77,0.14-16.07,2.01-22.74,6.12
				c-6.82,4.21-12.14,11.44-12.47,19.45c0.26-6.17,11.53-8.41,16.1-9.49c4.72-1.12,9.65-1.78,14.57-1.78
				c5.96,0,11.89,0.97,17.4,3.26c3.59,1.49,7.28,3.98,8,7.8c0.09,0.45,0.1,0.98-0.24,1.29c-0.22,0.2-0.52,0.24-0.82,0.24
				c-0.07,0-0.14,0-0.21-0.01c-3-0.15-5.83-1.34-8.69-2.27c-4.95-1.61-9.83-2.26-14.75-2.26c-4.14,0-8.3,0.46-12.55,1.21
				c0.37-0.06,0.74-0.08,1.1-0.08c2.13,0,4.23,0.91,6.09,2.02c3.77,2.26,6.98,5.43,9.27,9.18c2.02,3.3,0.44,4.22-1.87,4.22
				c-1.89,0-4.26-0.61-5.57-1.04c-4.47-1.47-8.91-3.12-13.53-3.97c-1.68-0.31-3.33-0.44-4.97-0.44c-4.22,0-8.34,0.9-12.42,2.06
				c0.63,5.94,1.54,17.97,2.1,22.47c0.79,6.4,1.59,12.82,3.11,19.09c1.15,4.75,2.71,9.39,3.8,14.16c0.85,3.71,1.42,7.51,2.75,11.09
				c2.54,6.81,7.71,12.4,10.28,19.2c-3.16-0.17-6.32-0.34-9.48-0.51c-0.62-0.03-1.27-0.08-1.8-0.39c-0.67-0.4-1.03-1.16-1.34-1.88
				c-0.01-0.03-0.02-0.05-0.03-0.08c-0.37-0.86-0.74-1.72-1.1-2.59s-0.71-1.73-1.06-2.6c-0.35-0.87-0.69-1.74-1.02-2.62
				c-0.33-0.87-0.66-1.75-0.98-2.63c-0.32-0.88-0.64-1.76-0.95-2.65c-0.31-0.88-0.61-1.77-0.91-2.66s-0.59-1.78-0.87-2.67
				c-0.28-0.89-0.56-1.79-0.83-2.68c-0.27-0.9-0.53-1.8-0.79-2.7c-0.26-0.9-0.51-1.8-0.75-2.71c-0.24-0.9-0.48-1.81-0.71-2.72
				c-0.23-0.91-0.46-1.82-0.67-2.73c-0.22-0.91-0.43-1.82-0.63-2.74c-0.2-0.91-0.4-1.83-0.59-2.75c-0.19-0.92-0.38-1.83-0.55-2.75
				c-0.18-0.92-0.35-1.84-0.51-2.76c-0.16-0.92-0.32-1.84-0.48-2.77c-0.15-0.92-0.3-1.85-0.44-2.78c-0.14-0.93-0.27-1.85-0.4-2.78
				c-0.13-0.93-0.24-1.86-0.35-2.79c-0.11-0.93-0.22-1.86-0.31-2.79c-0.1-0.93-0.19-1.86-0.27-2.8c-0.08-0.93-0.16-1.87-0.23-2.8
				c-0.07-0.93-0.14-1.87-0.19-2.8c-0.06-0.93-0.11-1.87-0.15-2.81c-0.04-0.94-0.08-1.87-0.11-2.81c-0.03-0.94-0.05-1.87-0.07-2.81
				c-0.02-0.94-0.03-1.87-0.03-2.81c0-0.94,0-1.87,0.01-2.81c0.01-0.47,0.01-0.94,0.02-1.4c0-0.22,0.01-0.43,0.01-0.65
				c-0.33,0.09-0.67,0.18-1.01,0.29l-1.01,0.07c-3.41,1.39-6.75,2.93-9.26,5.94c-7.11,8.51-7.6,18.56-8.72,29.08
				c-0.04,0.42-0.13,0.9-0.49,1.11c-0.13,0.08-0.29,0.11-0.45,0.11c-0.12,0-0.23-0.02-0.35-0.04c-1.31-0.26-2.31-1.3-3.12-2.36
				c-11.49-15.07,0.69-35.84,18.26-37.65c-0.18,0.02-0.37,0.03-0.57,0.03c-2.78,0-6.72-1.78-9.41-2.16
				c-3.92-0.56-8.2-0.95-12.54-0.95c-10.22,0-20.74,2.21-27.47,9.77c-0.41-3.48,0.79-7.69,3.24-10.24c2.72-2.82,6.77-4.12,10.5-4.91
				c4.31-0.92,8.7-1.38,13.11-1.38c7.69,0,15.38,1.39,22.56,4.13c-2.85-4.42-7.88-6.93-12.88-8.58c-6.2-2.05-12.48-2.45-18.82-2.45
				c-3.81,0-7.63,0.14-11.48,0.16c0.28-3.45,3.86-5.58,7.15-6.67c4.02-1.34,8.24-1.99,12.47-1.99c8.79,0,17.61,2.83,24.6,8.17
				c-6.97-5.34-11.7-13.31-14.06-21.69c-0.65-2.3-2.99-9.68-0.78-10.94C46.06,54.24,46.52,54.15,47.05,54.15 M47.06,49.15
				C47.06,49.15,47.06,49.15,47.06,49.15c-1.44,0-2.73,0.32-3.84,0.96c-5.45,3.12-3.11,11.21-1.71,16.05l0.17,0.58
				c0.78,2.78,1.78,5.45,2.97,7.98c-2.85-0.54-5.76-0.82-8.7-0.82c-4.85,0-9.58,0.76-14.05,2.25c-6.31,2.11-10.15,6.12-10.55,11.02
				c-0.11,1.4,0.37,2.77,1.32,3.8c0.95,1.02,2.28,1.6,3.67,1.6c0.01,0,0.02,0,0.02,0c0.13,0,0.27,0,0.4,0
				c-2.46,0.99-4.95,2.42-7,4.55c-3.41,3.54-5.22,9.15-4.61,14.3c0.23,1.95,1.59,3.59,3.47,4.18c0.49,0.16,1,0.23,1.5,0.23
				c1.4,0,2.77-0.59,3.73-1.67c4.78-5.37,12.77-8.09,23.74-8.09c1.79,0,3.66,0.07,5.61,0.22c-3.62,3.06-6.57,6.94-8.49,11.37
				c-4.04,9.34-2.89,19.24,3.16,27.17c0.67,0.88,2.71,3.55,6.13,4.23c0.45,0.09,0.89,0.13,1.32,0.13c1.06,0,2.1-0.28,2.99-0.8
				c1.17-0.69,2.62-2.1,2.92-4.89c0.09-0.83,0.17-1.66,0.26-2.48c0.94-9.26,1.76-17.25,7.33-23.92c0.7-0.83,1.51-1.52,2.43-2.12
				c0,0.13,0,0.25,0.01,0.38c0.02,0.96,0.04,1.92,0.07,2.88c0.03,0.96,0.07,1.92,0.11,2.88c0.05,0.96,0.1,1.92,0.16,2.88
				c0.06,0.96,0.13,1.92,0.2,2.88c0.07,0.96,0.15,1.91,0.24,2.87c0.09,0.96,0.18,1.91,0.28,2.87c0.1,0.96,0.21,1.91,0.32,2.86
				c0.11,0.95,0.24,1.91,0.36,2.86c0.13,0.95,0.26,1.9,0.41,2.85c0.14,0.95,0.29,1.9,0.45,2.85c0.16,0.95,0.32,1.89,0.49,2.84
				c0.17,0.95,0.35,1.89,0.53,2.83c0.18,0.94,0.37,1.88,0.57,2.82c0.2,0.94,0.4,1.88,0.61,2.82c0.21,0.94,0.43,1.87,0.65,2.81
				c0.22,0.93,0.45,1.87,0.69,2.8c0.24,0.93,0.48,1.86,0.73,2.79c0.25,0.93,0.51,1.85,0.77,2.78c0.26,0.92,0.53,1.85,0.81,2.76
				c0.28,0.92,0.56,1.84,0.85,2.75c0.29,0.92,0.59,1.83,0.89,2.74c0.3,0.91,0.61,1.82,0.93,2.73c0.32,0.91,0.64,1.81,0.97,2.71
				c0.33,0.9,0.67,1.8,1.01,2.7c0.34,0.9,0.69,1.79,1.05,2.68c0.36,0.89,0.72,1.78,1.09,2.67c0.37,0.89,0.75,1.77,1.13,2.65
				l0.04,0.08c0.41,0.95,1.27,2.93,3.35,4.17c1.61,0.96,3.23,1.05,4.1,1.1l6.38,0.35l3.1,0.17c0.09,0,0.18,0.01,0.27,0.01
				c1.59,0,3.09-0.76,4.03-2.05c1-1.36,1.24-3.14,0.64-4.72c-1.45-3.84-3.54-7.19-5.55-10.43c-1.86-2.98-3.61-5.8-4.72-8.76
				c-0.84-2.25-1.35-4.72-1.89-7.33c-0.22-1.04-0.43-2.08-0.67-3.12c-0.61-2.67-1.36-5.28-2.08-7.81c-0.63-2.21-1.22-4.29-1.74-6.41
				c-1.45-6-2.24-12.37-3-18.53c-0.3-2.4-0.72-7.22-1.12-11.88c-0.18-2.1-0.37-4.24-0.55-6.19c2.23-0.49,4.62-0.84,7.04-0.84
				c1.41,0,2.74,0.12,4.07,0.36c3.45,0.64,6.85,1.78,10.46,2.99c0.81,0.27,1.61,0.54,2.42,0.81c0.92,0.3,4.16,1.29,7.13,1.29
				c4.36,0,6.24-2.2,6.98-3.52c0.93-1.65,1.53-4.44-0.85-8.31c-0.96-1.57-2.07-3.06-3.28-4.45c2.88,0.3,5.63,0.89,8.32,1.76
				c0.55,0.18,1.09,0.36,1.64,0.55c2.46,0.85,5.24,1.8,8.35,1.96c0.15,0.01,0.3,0.01,0.46,0.01c2.04,0,3.38-0.82,4.15-1.51
				c0.76-0.68,2.46-2.61,1.83-5.95c-0.93-4.91-4.73-8.88-11-11.49c-5.82-2.42-12.32-3.65-19.32-3.65c-5.08,0-10.37,0.65-15.72,1.92
				L90,81.71c-0.25,0.06-0.51,0.12-0.79,0.18c0.57-0.43,1.17-0.83,1.79-1.22c5.4-3.33,12.58-5.24,20.2-5.38
				c1.76-0.03,3.38-0.99,4.25-2.52c0.87-1.53,0.88-3.41,0.01-4.94c-3.42-6.04-10.1-6.46-14.53-6.74c-0.32-0.02-0.63-0.04-0.94-0.06
				c-0.77-0.05-1.61-0.08-2.5-0.08c-7.71,0-17.79,1.76-25.02,6.07c-1.71-4.34-5.06-8.25-9.79-11.39
				C61.05,54.54,52.63,49.15,47.06,49.15L47.06,49.15z"/>
		</g>
	</g>
	<path class="st5" d="M140.48,129.17c-3.92,1.5-7.95,2.71-12.04,3.64"/>
	<path class="st5" d="M142.94,115.15c-4.64-1.19-9.23-2.61-13.74-4.24"/>
	<path class="st5" d="M150.6,98.55c-4.05-2.77-7.81-5.94-11.22-9.46"/>
	<path class="st5" d="M170.14,86.84c-0.84-4.19-1.4-8.43-1.68-12.7"/>
	<path class="st5" d="M191.36,87c-0.74-4.58-0.7-9.29,0.14-13.86"/>
	<path class="st5" d="M216.59,80.85c-2.65,3.37-5.09,6.9-7.29,10.57"/>
	<path class="st5" d="M235.76,105.08c-3.57,2.13-7.49,3.68-11.56,4.55"/>
	<path class="st5" d="M238.21,130.91c-4.87,0.03-9.74-0.99-14.19-2.98"/>
	<path class="st5" d="M228.94,156.2c-4.03-3.03-8.06-6.05-12.08-9.08"/>
	<path class="st5" d="M210.85,172.51c-2.39-3.04-4.78-6.08-7.17-9.12"/>
	<path class="st5" d="M140.33,146.78c-2.33,1.85-4.67,3.69-7,5.54"/>
</g>
</svg>
