<?xml version="1.0" encoding="utf-8"?>
<!-- Generator: Adobe Illustrator 25.0.1, SVG Export Plug-In . SVG Version: 6.00 Build 0)  -->
<svg version="1.1" id="Layer_1" xmlns="http://www.w3.org/2000/svg" xmlns:xlink="http://www.w3.org/1999/xlink" x="0px" y="0px"
	 viewBox="0 0 250 250" style="enable-background:new 0 0 250 250;" xml:space="preserve">
<style type="text/css">
	.st0{fill:#FFFFFF;stroke:#7E4CE2;stroke-width:10;stroke-linecap:round;stroke-linejoin:round;stroke-miterlimit:10;}
	.st1{fill:#7E4CE2;}
	.st2{fill:#FFFFFF;stroke:#F9CF38;stroke-width:8;stroke-miterlimit:10;}
	.st3{fill:#F9CF38;}
	.st4{fill:#FFFFFF;stroke:#7E4CE2;stroke-width:10;stroke-linecap:round;stroke-miterlimit:10;}
	.st5{opacity:0.2392;fill:#F9CF38;}
</style>
<path class="st0" d="M181.8,117.62c-1.57,1.59-3,3.32-4.27,5.16c-1.28,1.86-2.42,3.94-2.53,6.2c-0.17,3.4,2.1,6.58,5.03,8.32
	s6.42,2.25,9.82,2.4c2.59,0.12,5.28,0.02,7.63-1.08c3.43-1.61,5.4-4.99,6.82-8.35c1.61-3.81,1.26-7.16,0.65-11.23
	c-1.27-8.41-4.47-16.54-9.43-23.46c-7.98-11.14-20.07-18.93-33.06-23.3c-12.99-4.36-26.88-5.49-40.58-5.09
	c-6.71,0.2-13.73,0.85-19.38,4.48c-4.38,2.81-8.01,7.4-13.17,7.99c-3.03-4.47-3.23-10.4-6.23-14.89
	c-4.18-6.27-13.88-7.92-19.82-3.01c4.11,6.04,0.7,14.97,4.39,21.02c-1.64,0.46-3.24,1.1-4.69,2c-5.19,3.23-7.69,9.4-9.34,15.28
	s-2.45,12.64-2.45,12.64l-0.65,2.01c-4.97-0.98-11.67,0.89-16.61,2.03c-0.25,7.52-0.5,15.05-0.74,22.57c-0.03,0.94,0,2.03,0.73,2.62
	c0.6,0.49,1.46,0.47,2.24,0.41c5.31-0.39,10.6-0.96,15.87-1.7c-1.96,14.23,8.33,29.08,22.33,32.26c1.31,0.3,2.77,0.57,3.62,1.61
	c0.61,0.74,0.79,1.73,0.92,2.68c0.68,4.88,0.59,9.87-0.26,14.73c-0.14,0.79-0.29,1.65,0.1,2.35c0.36,0.66,1.1,1,1.8,1.27
	c1.96,0.78,3.98,1.41,6.04,1.88c4.9,1.11,9.54-1.3,14.56-1.59c5-0.29,2.71-13.02,2.71-13.02c13.84-2.01,27.88-2.64,41.85-1.9
	c1.16,0.06,2.44,0.19,3.21,1.06c0.66,0.74,0.75,1.82,0.65,2.81c-0.39,3.93-2.8,8.87,0.45,11.11c1,0.69,2.27,0.81,3.47,0.91
	c7.58,0.63,15.16,1.27,22.74,1.9c-0.27-7.72-0.53-15.44-0.8-23.16c14.04-6.88,24.78-20.15,28.6-35.31
	c1.15-4.56,1.66-9.27,1.57-13.97"/>
<path class="st1" d="M83.33,104.55c-1.31-0.23-2.68-0.28-4-0.25c-2,0.05-4.07,0.28-5.78,1.32c-1.88,1.14-3.13,3.16-3.62,5.3
	c-1.15,5.08,1.28,11.27,5.73,14.05c2.46,1.54,5.67,2,8.34,0.85c2.38-1.03,4.11-3.19,5.26-5.51c2.12-4.31,2.88-10.51-1.34-13.85
	C86.58,105.42,85,104.84,83.33,104.55z"/>
<path class="st2" d="M144.33,92.82c6.32-1.34,14.53-7.8,17.36-14.37s3.56-14.06,3.48-21.37c-0.06-6.04-0.73-12.34-3.64-17.39
	c-4.73-8.19-13.96-11.03-22.4-12.95c-10.54-2.39-22.84-3.81-30.73,4.49c-2.42,2.55-4.18,5.81-5.55,9.23
	c-4.74,11.84-4.89,25.94-0.42,37.9c1.35,3.61,3.18,7.13,5.96,9.46s7.87,6.78,10.95,5"/>
<path class="st3" d="M186.72,48.14c-9.03,4.11-6.26,19.79,4.49,18.2c8.7-1.29,12.32-16.09,2.58-18.7
	C191.18,46.94,188.75,47.21,186.72,48.14z"/>
<path class="st3" d="M182.49,6.25c-4.55,0.85-9.62,2.03-12.09,5.94c-3.09,4.89-0.45,11.43,3.23,15.88c3.3,3.99,8.16,7.51,13.26,6.57
	c3.45-0.64,6.2-3.19,8.54-5.81c2.04-2.28,3.99-4.83,4.52-7.84c0.88-4.92-2.45-9.9-6.89-12.2C188.62,6.49,183.35,6.41,182.49,6.25z"
	/>
<path class="st4" d="M89.84,91.54c25.1,1.01,50.22,1.42,75.34,1.23"/>
<path class="st5" d="M128.21,35.78c-6.54-1.74-13.43,3.11-16.13,9.32s-2.14,13.31-1.01,19.99c1.06,6.32,2.94,13.11,8.13,16.86
	c3.86,2.79,8.87,3.35,13.63,3.45c3.19,0.07,6.42-0.05,9.47-0.97c5.57-1.7,10.09-6.09,12.67-11.31s3.34-11.2,2.96-17.01
	c-0.19-2.88-0.66-5.79-1.98-8.35c-2.02-3.95-5.85-6.69-9.86-8.57C138.31,35.54,129.27,34.64,128.21,35.78z"/>
</svg>
