<svg width="185" height="53" viewBox="0 0 185 53" fill="none" xmlns="http://www.w3.org/2000/svg">
<g clip-path="url(#clip0)">
<path opacity="0.6" d="M42.7354 12.2886C42.5599 17.7292 36.7683 23.6964 30.4501 23.9596C24.132 24.1351 17.9893 18.168 18.1648 12.2008C18.4281 6.32143 22.8157 0.266523 30.4501 0.00326628C38.0846 -0.172238 42.9109 6.76019 42.7354 12.2886Z" fill="#DEE7FC"/>
<path opacity="0.8" d="M28.6953 48.7935C28.6953 48.4425 42.9112 22.2046 44.4907 23.7841C45.9825 25.3637 57.6536 49.1445 57.6536 49.1445C57.6536 49.1445 28.6953 49.1445 28.6953 48.7935Z" fill="#DEE7FC"/>
<path opacity="0.3" d="M32.2051 32.9104C28.4963 39.8845 24.2725 46.5722 19.5688 52.9179L0 41.5101L11.6711 22.2924C11.6711 22.2924 32.6438 31.9451 32.2051 32.8226V32.9104Z" fill="#DEE7FC"/>
<path d="M73.7573 27.3721H78.9868L72.2705 46H67.1265L60.4443 27.3721H65.9131L69.7925 41.1123L73.7573 27.3721Z" fill="#DEE7FC"/>
<path d="M86.304 30.8926C85.1761 30.8926 84.2988 31.2458 83.6722 31.9521C83.0569 32.6585 82.6696 33.6156 82.5101 34.8232H90.0809C90.0011 33.5358 89.608 32.5617 88.9017 31.9009C88.2067 31.2287 87.3408 30.8926 86.304 30.8926ZM86.304 26.8765C87.8535 26.8765 89.2492 27.167 90.491 27.748C91.7329 28.3291 92.7583 29.2463 93.5672 30.4995C94.2964 31.6047 94.7692 32.8864 94.9856 34.3447C95.111 35.1992 95.1622 36.4297 95.1395 38.0361H82.3904C82.4588 39.9046 83.0455 41.2148 84.1507 41.9668C84.8229 42.4339 85.6318 42.6675 86.5774 42.6675C87.58 42.6675 88.3947 42.3827 89.0213 41.813C89.3631 41.5054 89.665 41.0781 89.9271 40.5312H94.9002C94.7749 41.6364 94.1995 42.7586 93.1741 43.8979C91.5791 45.7095 89.346 46.6152 86.4749 46.6152C84.1051 46.6152 82.0145 45.8519 80.2029 44.3252C78.3914 42.7985 77.4856 40.3148 77.4856 36.874C77.4856 33.6497 78.3003 31.1774 79.9295 29.457C81.5701 27.7367 83.695 26.8765 86.304 26.8765Z" fill="#DEE7FC"/>
<path d="M105.96 26.9277C107.886 26.9277 109.458 27.4347 110.677 28.4487C111.907 29.4513 112.523 31.1204 112.523 33.4561V46H107.532V34.6694C107.532 33.6896 107.401 32.9377 107.139 32.4136C106.661 31.4565 105.749 30.978 104.405 30.978C102.753 30.978 101.619 31.6787 101.004 33.0801C100.685 33.8206 100.525 34.7663 100.525 35.917V46H95.672V27.4062H100.372V30.1235C100.998 29.1665 101.591 28.4772 102.149 28.0557C103.152 27.3037 104.422 26.9277 105.96 26.9277Z" fill="#DEE7FC"/>
<path d="M112.32 31.0122V27.543H114.918V22.3477H119.737V27.543H122.762V31.0122H119.737V40.856C119.737 41.6193 119.834 42.0978 120.028 42.2915C120.221 42.4738 120.814 42.5649 121.805 42.5649C121.953 42.5649 122.107 42.5649 122.267 42.5649C122.437 42.5535 122.603 42.5422 122.762 42.5308V46.1709L120.455 46.2563C118.154 46.3361 116.581 45.9373 115.738 45.0601C115.191 44.5018 114.918 43.6416 114.918 42.4795V31.0122H112.32Z" fill="#DEE7FC"/>
<path d="M127.943 27.3721V38.6001C127.943 39.6597 128.068 40.4572 128.319 40.9927C128.763 41.9383 129.635 42.4111 130.934 42.4111C132.597 42.4111 133.737 41.7389 134.352 40.3945C134.671 39.6654 134.83 38.7026 134.83 37.5063V27.3721H139.769V46H135.035V43.3682C134.99 43.4251 134.876 43.596 134.694 43.8809C134.511 44.1657 134.295 44.4163 134.044 44.6328C133.281 45.3164 132.54 45.7835 131.822 46.0342C131.116 46.2848 130.284 46.4102 129.327 46.4102C126.57 46.4102 124.713 45.4189 123.756 43.4365C123.221 42.3428 122.953 40.7306 122.953 38.6001V27.3721H127.943Z" fill="#DEE7FC"/>
<path d="M151.803 26.9277C151.894 26.9277 151.968 26.9334 152.025 26.9448C152.094 26.9448 152.236 26.9505 152.453 26.9619V31.9521C152.145 31.918 151.872 31.8952 151.632 31.8838C151.393 31.8724 151.199 31.8667 151.051 31.8667C149.092 31.8667 147.776 32.5047 147.104 33.7808C146.728 34.4985 146.54 35.6037 146.54 37.0962V46H141.635V27.3721H146.283V30.6191C147.035 29.3773 147.69 28.5285 148.249 28.0728C149.16 27.3094 150.345 26.9277 151.803 26.9277Z" fill="#DEE7FC"/>
<path d="M159.872 30.8926C158.744 30.8926 157.867 31.2458 157.241 31.9521C156.625 32.6585 156.238 33.6156 156.078 34.8232H163.649C163.569 33.5358 163.176 32.5617 162.47 31.9009C161.775 31.2287 160.909 30.8926 159.872 30.8926ZM159.872 26.8765C161.422 26.8765 162.818 27.167 164.059 27.748C165.301 28.3291 166.327 29.2463 167.136 30.4995C167.865 31.6047 168.338 32.8864 168.554 34.3447C168.679 35.1992 168.731 36.4297 168.708 38.0361H155.959C156.027 39.9046 156.614 41.2148 157.719 41.9668C158.391 42.4339 159.2 42.6675 160.146 42.6675C161.148 42.6675 161.963 42.3827 162.59 41.813C162.931 41.5054 163.233 41.0781 163.495 40.5312H168.469C168.343 41.6364 167.768 42.7586 166.742 43.8979C165.147 45.7095 162.914 46.6152 160.043 46.6152C157.673 46.6152 155.583 45.8519 153.771 44.3252C151.96 42.7985 151.054 40.3148 151.054 36.874C151.054 33.6497 151.869 31.1774 153.498 29.457C155.138 27.7367 157.263 26.8765 159.872 26.8765Z" fill="#DEE7FC"/>
<path d="M173 40.0527C173.103 40.9186 173.325 41.5339 173.667 41.8984C174.27 42.5479 175.387 42.8726 177.016 42.8726C177.973 42.8726 178.731 42.7301 179.289 42.4453C179.859 42.1605 180.144 41.7332 180.144 41.1636C180.144 40.6167 179.916 40.2008 179.46 39.916C179.004 39.6312 177.312 39.1413 174.384 38.4463C172.277 37.9222 170.79 37.2671 169.924 36.481C169.058 35.7062 168.625 34.5897 168.625 33.1313C168.625 31.411 169.297 29.9355 170.642 28.7051C171.997 27.4632 173.9 26.8423 176.35 26.8423C178.674 26.8423 180.565 27.3094 182.024 28.2437C183.493 29.1665 184.336 30.7673 184.553 33.0459H179.682C179.614 32.4193 179.437 31.9237 179.152 31.5591C178.617 30.8983 177.706 30.5679 176.418 30.5679C175.358 30.5679 174.601 30.7331 174.145 31.0635C173.701 31.3939 173.479 31.7812 173.479 32.2256C173.479 32.7839 173.718 33.1883 174.196 33.439C174.675 33.701 176.367 34.151 179.272 34.7891C181.209 35.2448 182.662 35.9341 183.63 36.8569C184.587 37.7912 185.066 38.959 185.066 40.3604C185.066 42.2061 184.376 43.7157 182.998 44.8892C181.63 46.0513 179.511 46.6323 176.64 46.6323C173.712 46.6323 171.547 46.0171 170.146 44.7866C168.756 43.5448 168.061 41.9668 168.061 40.0527H173Z" fill="#DEE7FC"/>
<path d="M55.9526 10.6816H53.2715V8.2417H55.9526V10.6816ZM53.2715 11.8877H55.9526V22H53.2715V11.8877Z" fill="#DEE7FC"/>
<path d="M60.732 11.6465C61.3443 11.6465 61.8885 11.7826 62.3648 12.0547C62.841 12.3206 63.2276 12.6917 63.5244 13.168V8.34375H66.2056V22H63.6358V20.5991C63.2585 21.1991 62.8286 21.6351 62.3462 21.9072C61.8638 22.1794 61.2639 22.3154 60.5464 22.3154C59.3651 22.3154 58.3693 21.8392 57.5591 20.8867C56.7551 19.9281 56.353 18.7004 56.353 17.2036C56.353 15.478 56.7489 14.1204 57.5405 13.1309C58.3384 12.1413 59.4022 11.6465 60.732 11.6465ZM61.3071 20.0889C62.0555 20.0889 62.6245 19.8105 63.0142 19.2539C63.4038 18.6973 63.5987 17.9767 63.5987 17.0923C63.5987 15.8553 63.2863 14.9709 62.6616 14.439C62.2782 14.1174 61.8329 13.9565 61.3257 13.9565C60.5526 13.9565 59.9836 14.2503 59.6187 14.8379C59.2599 15.4193 59.0806 16.1429 59.0806 17.0088C59.0806 17.9427 59.263 18.6911 59.6279 19.2539C59.999 19.8105 60.5588 20.0889 61.3071 20.0889Z" fill="#DEE7FC"/>
<path d="M71.087 13.7988C70.4746 13.7988 69.9984 13.9906 69.6582 14.374C69.3243 14.7575 69.114 15.277 69.0274 15.9326H73.1372C73.094 15.2337 72.8806 14.7049 72.4971 14.3462C72.1198 13.9813 71.6498 13.7988 71.087 13.7988ZM71.087 11.6187C71.9281 11.6187 72.6857 11.7764 73.3599 12.0918C74.0341 12.4072 74.5907 12.9051 75.0298 13.5854C75.4257 14.1854 75.6823 14.8812 75.7998 15.6729C75.8679 16.1367 75.8957 16.8047 75.8833 17.6768H68.9624C68.9995 18.6911 69.3181 19.4023 69.918 19.8105C70.2829 20.0641 70.722 20.1909 71.2354 20.1909C71.7797 20.1909 72.2219 20.0363 72.562 19.7271C72.7476 19.5601 72.9115 19.3281 73.0537 19.0312H75.7535C75.6854 19.6312 75.3731 20.2404 74.8164 20.8589C73.9506 21.8423 72.7383 22.334 71.1797 22.334C69.8933 22.334 68.7583 21.9196 67.7749 21.0908C66.7915 20.262 66.2998 18.9137 66.2998 17.0459C66.2998 15.2956 66.7421 13.9535 67.6265 13.0195C68.5171 12.0856 69.6706 11.6187 71.087 11.6187Z" fill="#DEE7FC"/>
<path d="M81.7296 17.083C81.5626 17.1882 81.3925 17.2747 81.2193 17.3428C81.0523 17.4046 80.8204 17.4634 80.5235 17.519L79.9297 17.6304C79.3731 17.7293 78.9742 17.8499 78.733 17.9922C78.3248 18.2334 78.1207 18.6076 78.1207 19.1147C78.1207 19.5662 78.2444 19.894 78.4918 20.0981C78.7453 20.2961 79.0515 20.395 79.4102 20.395C79.9792 20.395 80.5019 20.228 80.9781 19.894C81.4605 19.5601 81.711 18.9508 81.7296 18.0664V17.083ZM80.1246 15.8491C80.6132 15.7873 80.9626 15.71 81.1729 15.6172C81.5502 15.4564 81.7388 15.2059 81.7388 14.8657C81.7388 14.4513 81.5935 14.1668 81.3028 14.0122C81.0183 13.8514 80.5977 13.771 80.0411 13.771C79.4164 13.771 78.9742 13.9256 78.7144 14.2349C78.5289 14.4637 78.4052 14.7729 78.3433 15.1626H75.7921C75.8477 14.2782 76.0951 13.5514 76.5342 12.9824C77.2331 12.0918 78.433 11.6465 80.1338 11.6465C81.2409 11.6465 82.2243 11.866 83.084 12.3052C83.9437 12.7443 84.3736 13.5731 84.3736 14.7915V19.4302C84.3736 19.7518 84.3798 20.1414 84.3922 20.5991C84.4107 20.9455 84.4633 21.1805 84.5499 21.3042C84.6365 21.4279 84.7663 21.5299 84.9395 21.6104V22H82.0635C81.9831 21.7959 81.9275 21.6042 81.8965 21.4248C81.8656 21.2454 81.8409 21.0413 81.8223 20.8125C81.4574 21.2083 81.0368 21.5454 80.5606 21.8237C79.9916 22.1515 79.3484 22.3154 78.6309 22.3154C77.7156 22.3154 76.9579 22.0557 76.358 21.5361C75.7642 21.0104 75.4673 20.2682 75.4673 19.3096C75.4673 18.0664 75.9467 17.1665 76.9053 16.6099C77.431 16.3068 78.2042 16.0903 79.2247 15.9604L80.1246 15.8491Z" fill="#DEE7FC"/>
<path d="M87.2696 18.7715C87.3253 19.2415 87.4459 19.5755 87.6314 19.7734C87.9592 20.126 88.5653 20.3022 89.4498 20.3022C89.9693 20.3022 90.3806 20.2249 90.6837 20.0703C90.9929 19.9157 91.1475 19.6838 91.1475 19.3745C91.1475 19.0776 91.0238 18.8519 90.7764 18.6973C90.529 18.5426 89.6106 18.2767 88.0211 17.8994C86.8769 17.6149 86.0697 17.2593 85.5997 16.8325C85.1296 16.4119 84.8946 15.8058 84.8946 15.0142C84.8946 14.0802 85.2595 13.2793 85.9893 12.6113C86.7253 11.9372 87.7582 11.6001 89.088 11.6001C90.3497 11.6001 91.3764 11.8537 92.168 12.3608C92.9659 12.8618 93.4236 13.7308 93.5411 14.9678H90.897C90.8599 14.6276 90.7641 14.3586 90.6095 14.1606C90.3188 13.8019 89.824 13.6226 89.1251 13.6226C88.5499 13.6226 88.1386 13.7122 87.8912 13.8916C87.65 14.071 87.5294 14.2812 87.5294 14.5225C87.5294 14.8255 87.6593 15.0451 87.919 15.1812C88.1788 15.3234 89.0972 15.5677 90.6744 15.9141C91.7258 16.1615 92.5144 16.5356 93.0401 17.0366C93.5596 17.5438 93.8194 18.1777 93.8194 18.9385C93.8194 19.9404 93.4452 20.7599 92.6969 21.397C91.9547 22.0278 90.8043 22.3433 89.2457 22.3433C87.6562 22.3433 86.481 22.0093 85.7203 21.3413C84.9657 20.6672 84.5885 19.8105 84.5885 18.7715H87.2696Z" fill="#DEE7FC"/>
<path d="M102.968 19.1055H101.447V22H98.8585V19.1055H93.5333V16.7954L98.4781 8.63135H101.447V17.0366H102.968V19.1055ZM98.8585 17.0366V11.229L95.4908 17.0366H98.8585Z" fill="#DEE7FC"/>
<path d="M102.682 22C102.707 21.0352 102.914 20.1538 103.304 19.356C103.681 18.4591 104.572 17.5098 105.976 16.5078C107.194 15.6357 107.983 15.0111 108.341 14.6338C108.892 14.0462 109.167 13.403 109.167 12.7041C109.167 12.1351 109.009 11.6619 108.694 11.2847C108.379 10.9074 107.927 10.7188 107.339 10.7188C106.535 10.7188 105.988 11.0187 105.697 11.6187C105.53 11.965 105.431 12.5155 105.401 13.27H102.831C102.874 12.1258 103.081 11.2012 103.452 10.4961C104.157 9.15397 105.41 8.48291 107.21 8.48291C108.632 8.48291 109.764 8.87874 110.605 9.67041C111.446 10.4559 111.867 11.498 111.867 12.7969C111.867 13.7926 111.57 14.6771 110.976 15.4502C110.587 15.9635 109.946 16.5356 109.056 17.1665L107.998 17.918C107.336 18.388 106.882 18.7282 106.634 18.9385C106.393 19.1488 106.189 19.3931 106.022 19.6714H111.895V22H102.682Z" fill="#DEE7FC"/>
</g>
<defs>
<clipPath id="clip0">
<rect width="185" height="53" fill="white"/>
</clipPath>
</defs>
</svg>
