<svg xmlns="http://www.w3.org/2000/svg" fill="none" viewBox="0 0 160 135">
  <title id="">Go to ideas42 Venture Studio home</title>
  <desc>The ideas42 Venture Studio logomark</desc>
  <path fill="#fddb12" d="M66.51 57.696a5.983 5.983 0 00-5.531 3.699 5.997 5.997 0 001.298 6.53 5.984 5.984 0 0010.22-4.237c0-1.59-.631-3.114-1.754-4.237a5.984 5.984 0 00-4.233-1.755zM88.696 66.336a5.985 5.985 0 014.364 3.583 5.997 5.997 0 01-1.299 6.53 5.985 5.985 0 01-10.219-4.236 5.995 5.995 0 013.696-5.536 5.98 5.98 0 013.458-.341zM63.023 94.578v-5.111l-2.96 5.111h2.96z"/>
  <path fill="#fddb12" fill-rule="evenodd" d="M75.368 80.345a15.645 15.645 0 00-19.767 1.946 15.668 15.668 0 00-4.585 11.078c0 3.099.917 6.129 2.637 8.706a15.655 15.655 0 0016.07 6.665 15.65 15.65 0 008.016-4.287 15.673 15.673 0 003.395-17.076 15.665 15.665 0 00-5.766-7.032zm-8.35 16.27c.332-.788 1.118-1.626 2.358-2.512a16.77 16.77 0 002.088-1.644c.464-.447.733-1.06.748-1.704a1.873 1.873 0 00-.42-1.25 1.691 1.691 0 00-2.637.295 3.987 3.987 0 00-.266 1.453h-2.245c0-.845.187-1.68.547-2.445.62-1.184 1.726-1.775 3.315-1.775a4.2 4.2 0 012.993 1.044 3.6 3.6 0 011.123 2.76 3.746 3.746 0 01-.786 2.34 7.783 7.783 0 01-1.695 1.517l-.936.66c-.583.419-.984.715-1.193.902a2.62 2.62 0 00-.55.648h5.178v2.056H66.47c.013-.81.2-1.607.55-2.337v-.008zm-.374-.213H65.31v2.558h-2.286v-2.558H58.33V94.37l4.359-7.201h2.619v7.414h1.335v1.82z" clip-rule="evenodd"/>
  <path fill="#fddb12" d="M102.354 93.118a5.994 5.994 0 00-3.696-5.536 5.981 5.981 0 00-6.524 1.3 5.993 5.993 0 004.233 10.228 5.993 5.993 0 005.987-5.992zM41.389 68.297a5.993 5.993 0 004.234 10.228 5.982 5.982 0 005.53-3.698 5.998 5.998 0 00-1.297-6.53 5.987 5.987 0 00-6.525-1.299 5.987 5.987 0 00-1.942 1.3z"/>
  <path fill="#fddb12" opacity="0.5" d="M66.326 0A1.705 1.705 0 0168 2.04 1.707 1.707 0 1166.326 0zM132.86 27.923a1.706 1.706 0 10-3.249.986 1.708 1.708 0 002.523.765 1.708 1.708 0 00.726-1.75zM.501 27.63a1.706 1.706 0 012.625 2.155A1.707 1.707 0 11.501 27.63z"/>
  <path fill="#fddb12" opacity="0.5" fill-rule="evenodd" d="M10.73 40.097a3.067 3.067 0 014.178-2.236 3.067 3.067 0 11-2.875 5.385 3.066 3.066 0 01-1.303-3.15zm2.726-.825a1.377 1.377 0 00-.705 2.325 1.377 1.377 0 10.705-2.325zM22.68 54.285a5.984 5.984 0 0111.742 0 5.997 5.997 0 01-2.544 6.152 5.983 5.983 0 01-8.857-2.69 5.996 5.996 0 01-.34-3.462zm5.276-1.835a3.06 3.06 0 00-2.232 1.832 3.063 3.063 0 102.232-1.832zM121.503 38.13a3.059 3.059 0 00-5.224 2.166 3.06 3.06 0 001.889 2.83 3.058 3.058 0 004-1.657 3.065 3.065 0 000-2.346 3.054 3.054 0 00-.665-.994zm-1.122 1.183a1.381 1.381 0 01-.21 2.12 1.38 1.38 0 01-2.037-.619 1.381 1.381 0 011.272-1.906 1.38 1.38 0 01.975.405zM105.758 49.258a5.985 5.985 0 014.817 5.877 5.994 5.994 0 01-4.817 5.876 5.981 5.981 0 01-6.147-2.547 5.995 5.995 0 012.688-8.865 5.98 5.98 0 013.459-.34zm1.839 5.279a3.064 3.064 0 10-5.837 1.772 3.067 3.067 0 002.831 1.894 3.061 3.061 0 002.832-1.894c.232-.56.292-1.177.174-1.772zM64.75 16.058a3.063 3.063 0 014.768 2.546 3.07 3.07 0 01-1.889 2.836 3.062 3.062 0 01-4.18-2.232 3.069 3.069 0 011.302-3.15zm2.5 1.359a1.376 1.376 0 00-.763-.236h-.007a1.376 1.376 0 00-1.145 2.143 1.376 1.376 0 002.42-1.287 1.377 1.377 0 00-.505-.62zM66.51 33.542a5.982 5.982 0 00-5.53 3.699 5.996 5.996 0 001.297 6.53 5.985 5.985 0 0010.22-4.237c0-1.59-.631-3.113-1.754-4.237a5.984 5.984 0 00-4.233-1.755zm0 2.928a3.062 3.062 0 012.831 1.895 3.069 3.069 0 01-2.236 4.181 3.061 3.061 0 01-3.145-1.307 3.07 3.07 0 011.378-4.536 3.06 3.06 0 011.172-.233zM125.474 89.79a5.994 5.994 0 01-4.977 9.32 5.983 5.983 0 01-5.531-3.7 5.997 5.997 0 011.298-6.529 5.985 5.985 0 019.21.908zm-2.429 5.032a3.074 3.074 0 00-.38-3.874 3.065 3.065 0 00-5.174 2.768 3.07 3.07 0 002.408 2.41 3.06 3.06 0 003.146-1.304zM144.473 93.062a3.067 3.067 0 00-3.66-3.012 3.062 3.062 0 00-2.41 2.408 3.073 3.073 0 001.302 3.15 3.063 3.063 0 004.768-2.546zm-1.639.034a1.381 1.381 0 01-.85 1.273 1.378 1.378 0 11.85-1.273z" clip-rule="evenodd"/>
  <path fill="#fddb12" opacity="0.5" d="M159.713 93.887c.188-.282.288-.614.287-.953a1.708 1.708 0 00-3.289-.653 1.71 1.71 0 003.002 1.606z"/>
  <path fill="#1D0354" d="M5.736 99.2h3.558v-3.243H5.736V99.2zM9.294 100.799H5.736v13.417h3.558v-13.417z"/>
  <path fill="#1D0354" fill-rule="evenodd" d="M17.806 101.016a4.262 4.262 0 011.542 1.498V96.11h3.554v18.106h-3.409v-1.872a4.904 4.904 0 01-1.71 1.737 4.774 4.774 0 01-2.387.543 4.99 4.99 0 01-3.954-1.902c-1.07-1.27-1.613-2.899-1.613-4.868 0-2.292.528-4.095 1.583-5.408a5.155 5.155 0 014.231-1.97 4.289 4.289 0 012.163.536v.004zm.864 9.556c.553-.85.827-1.851.786-2.864 0-1.641-.414-2.814-1.242-3.52a2.681 2.681 0 00-1.774-.645 2.471 2.471 0 00-2.245 1.165 5.406 5.406 0 00-.725 2.887 5.344 5.344 0 00.73 2.977 2.48 2.48 0 002.222 1.124 2.59 2.59 0 002.245-1.124h.003zM32.795 101.072a5.47 5.47 0 012.32 1.985c.265.39.486.807.66 1.242a5.118 5.118 0 01.892-2.047c.928-1.184 2.527-1.774 4.797-1.772a8.523 8.523 0 013.925.873c1.15.584 1.723 1.684 1.72 3.299v5.306l3.537-.022c.02.483.189.949.482 1.333.434.464 1.246.7 2.425.7a3.683 3.683 0 001.65-.307 1.026 1.026 0 00.613-.875 1.035 1.035 0 00-.493-.949c-.33-.204-1.553-.558-3.67-1.059-1.525-.377-2.599-.849-3.222-1.416a3.076 3.076 0 01-.936-2.415 4.195 4.195 0 011.463-3.195c.973-.891 2.345-1.336 4.116-1.336 1.676 0 3.048.334 4.116 1.003 1.067.669 1.672 1.825 1.814 3.468h-3.51a2.05 2.05 0 00-.373-1.075c-.375-.472-1.048-.711-1.976-.711a2.818 2.818 0 00-1.635.374 1.025 1.025 0 00-.486.835.912.912 0 00.52.873c.344.192 1.564.516 3.659.973 1.4.33 2.443.828 3.143 1.498a3.396 3.396 0 011.032 2.528 4.065 4.065 0 01-1.496 3.254c-.998.844-2.53 1.266-4.595 1.266-2.11 0-3.67-.446-4.68-1.337a4.357 4.357 0 01-1.497-3.169v.615c0 .427.007.944.022 1.55a1.94 1.94 0 00.214.937c.132.18.31.321.516.408v.509h-3.817a3.74 3.74 0 01-.22-.749 9.726 9.726 0 01-.101-.812c-.49.528-1.056.98-1.68 1.34a5.066 5.066 0 01-2.574.656 4.461 4.461 0 01-3.031-1.042 3.307 3.307 0 01-1.012-1.601 4.336 4.336 0 01-.612.71c-1.2 1.303-2.88 1.956-5.043 1.959a7.296 7.296 0 01-4.726-1.652c-1.362-1.106-2.044-2.898-2.047-5.377 0-2.327.616-4.11 1.849-5.348 1.232-1.238 2.83-1.862 4.793-1.872a7.601 7.601 0 013.154.629v.015zm2.465 9.223c.041-.683.203-1.283.484-1.797h-9.216c.06 1.344.523 2.288 1.403 2.831.584.35 1.257.525 1.938.505a2.99 2.99 0 001.934-.614c.308-.256.562-.57.748-.925h2.709zm1.05-2.562c.244-.249.53-.469.858-.658a8.59 8.59 0 013.102-.861l1.194-.154c.48-.041.95-.146 1.403-.311a1.052 1.052 0 00.748-1 1.18 1.18 0 00-.58-1.123 3.651 3.651 0 00-1.702-.315c-.838 0-1.433.203-1.781.614a2.527 2.527 0 00-.501 1.233h-3c.055.221.099.446.13.673a16.6 16.6 0 01.13 1.902zm-8.754-3.647a3.651 3.651 0 00-.935 2.079h6.039a2.93 2.93 0 00-.935-2.12 3.074 3.074 0 00-2.084-.726 2.788 2.788 0 00-2.088.786l.003-.019zm15.375 3.947c.237-.09.465-.203.68-.337v1.315c-.027 1.173-.362 1.981-1.006 2.423-.62.437-1.36.669-2.118.666a1.926 1.926 0 01-1.23-.4 1.567 1.567 0 01-.506-1.3 1.607 1.607 0 01.827-1.498 5.29 5.29 0 011.613-.479l.8-.15c.32-.054.634-.134.94-.24z" clip-rule="evenodd"/>
  <path fill="#1D0354" d="M93.258 134.966a4.372 4.372 0 01-3.884-2.284l.771-.551a3.744 3.744 0 003.203 1.97c1.639 0 2.963-1.015 2.963-2.67 0-1.61-1.6-2.249-2.365-2.555l-.063-.025c-.737-.296-1.564-.644-2.08-.922a3.306 3.306 0 01-1.84-2.947c-.001-1.842 1.6-3.13 3.74-3.13a3.992 3.992 0 013.312 1.655l-.7.61a3.188 3.188 0 00-1.169-1.031 3.188 3.188 0 00-1.517-.351c-1.47 0-2.65.772-2.65 2.21s.992 2.007 1.894 2.397c.263.113.57.244.881.375.753.32 1.526.647 1.738.767a3.365 3.365 0 011.84 2.947c-.007 1.932-1.608 3.535-4.074 3.535zM14.873 122.035l-4.636 12.732h-.775l-4.62-12.732H5.93l3.955 11.051 3.959-11.051h1.029zM17.45 134.745h7.035v-.903h-6.04v-5.396h5.58v-.902h-5.58v-4.606h5.909v-.903H17.45v12.71zM37.315 134.745h.901v-12.71h-.995v10.961l-8.374-10.961h-.995v12.71h.995V123.6l8.468 11.145zM45.647 122.938h3.779v-.903h-8.538v.903h3.764v11.807h.995v-11.807zM60.123 133.401c.846-1.068.902-2.341.902-3.775l.003-7.591h-.995v7.681c0 .97-.019 2.131-.643 2.996a3.746 3.746 0 01-2.872 1.344 3.743 3.743 0 01-2.872-1.344c-.643-.877-.643-2.038-.643-2.996v-7.681h-.995v7.591c0 1.442.067 2.741.898 3.775.83 1.033 2.039 1.565 3.606 1.565 1.568 0 2.765-.498 3.611-1.565z"/>
  <path fill="#1D0354" fill-rule="evenodd" d="M71.351 134.745h1.269l-3.85-5.932c1.601-.239 3.131-1.251 3.131-3.37 0-2.12-1.567-3.408-3.958-3.408h-2.945v12.71h.992v-5.894h1.62l3.741 5.894zm-3.977-11.807c1.025 0 1.841.018 2.522.535a2.194 2.194 0 01.939 1.97 2.247 2.247 0 01-.94 1.988c-.68.498-1.507.517-2.52.517h-1.4v-5.01h1.4z" clip-rule="evenodd"/>
  <path fill="#1D0354" d="M75.108 134.745h7.03v-.903H76.1v-5.396h5.58v-.902h-5.58v-4.606h5.912v-.903h-6.903v12.71zM107.798 122.938h-3.783v11.807h-.995v-11.807h-3.76v-.903h8.538v.903zM119.397 129.626c0 1.434-.056 2.707-.902 3.775-.846 1.067-2.043 1.565-3.607 1.565s-2.78-.532-3.611-1.565c-.83-1.034-.901-2.333-.901-3.775v-7.591h.995v7.681c0 .958 0 2.119.644 2.996a3.745 3.745 0 002.871 1.344 3.741 3.741 0 002.872-1.344c.625-.865.643-2.026.643-2.996v-7.681h.996v7.591z"/>
  <path fill="#1D0354" fill-rule="evenodd" d="M131.489 132.996a6.585 6.585 0 01-4.65 1.749h-3.499v-12.71h3.499a6.586 6.586 0 014.635 1.749 6.454 6.454 0 010 9.212h.015zm-.864-8.695a5.584 5.584 0 00-3.865-1.363h-2.41v10.904h2.41a5.575 5.575 0 003.865-1.344 5.611 5.611 0 001.775-4.099 5.625 5.625 0 00-1.775-4.098z" clip-rule="evenodd"/>
  <path fill="#1D0354" d="M137.689 134.745h-.995v-12.71h.995v12.71z"/>
  <path fill="#1D0354" fill-rule="evenodd" d="M147.395 134.966c-3.443 0-6.443-2.505-6.443-6.557 0-4.052 2.993-6.557 6.443-6.557 3.449 0 6.443 2.505 6.443 6.557 0 4.052-2.982 6.557-6.443 6.557zm0-12.23c-2.889 0-5.392 2.082-5.392 5.654 0 3.573 2.522 5.617 5.392 5.617 2.869 0 5.414-2.097 5.414-5.617s-2.507-5.654-5.414-5.654z" clip-rule="evenodd"/>
</svg>
