<svg xmlns="http://www.w3.org/2000/svg" fill="none" viewBox="0 0 790 754" width="790" height="754">
  <path fill="url(#paint0_linear)" d="M789.55 376.261c-15.996 20.58-398.773 392.575-416.762 377.28C354.798 738.246 0 363.005 0 363.005L389.778 0S805.546 355.68 789.55 376.261z" opacity=".12"/>
  <path fill="url(#paint1_linear)" d="M260.154 461.898c5.443 3.22 135.68 61.423 141.801 59.03 6.121-2.393 126.838-61.104 126.838-61.104l-132.619-56.797s-141.462 55.651-136.02 58.871z" opacity=".08"/>
  <path fill="#CA21EE" d="M528.868 307.554s3.745 148.231-2.385 150.629L400.745 521c-5.45-3.226 0-152.158 0-152.158l128.123-61.288z" opacity=".2"/>
  <path fill="#E60053" d="M261.19 307.554s-3.934 148.231 2.506 150.629L395.778 521c5.726-3.226 4.357-153.243 4.357-153.243L261.19 307.554z" opacity=".1"/>
  <path fill="url(#paint2_linear)" d="M260.154 309.871c5.443 3.22 135.68 61.423 141.801 59.03 6.121-2.393 126.838-61.104 126.838-61.104L396.174 251s-141.462 55.651-136.02 58.871z" opacity=".1"/>
  <path fill="#D32CDB" d="M442.341 77.904c1.744.53 38.291 6.324 38.594 4.723.304-1.601 3.113-37.391 3.113-37.391l-36.533-4.998s-6.919 37.136-5.174 37.666z" opacity=".35"/>
  <path fill="#CA21EE" d="M518.673 635s1.081 32.64-.688 33.168L481.699 682c-1.573-.71 0-33.505 0-33.505L518.673 635z" opacity=".4"/>
  <path fill="#E60053" d="M81 516.53s21.535 32.214 22.949 31.457l31.044-12.628c.456-1.809-22.215-33.359-22.215-33.359L81 516.53z" opacity=".46"/>
  <defs>
    <linearGradient id="paint0_linear" x1="0" x2="793.537" y1="245.869" y2="254.226" gradientUnits="userSpaceOnUse">
      <stop stop-color="#F3568F"/>
      <stop offset="1" stop-color="#C81EF2"/>
    </linearGradient>
    <linearGradient id="paint1_linear" x1="528.793" x2="258.909" y1="441.496" y2="447.677" gradientUnits="userSpaceOnUse">
      <stop stop-color="#F3568F"/>
      <stop offset="1" stop-color="#C81EF2"/>
    </linearGradient>
    <linearGradient id="paint2_linear" x1="528.793" x2="258.909" y1="289.469" y2="295.65" gradientUnits="userSpaceOnUse">
      <stop stop-color="#F3568F"/>
      <stop offset="1" stop-color="#C81EF2"/>
    </linearGradient>
  </defs>
</svg>
