<svg xmlns="http://www.w3.org/2000/svg" fill="none" viewBox="0 0 544 505">
  <path fill="#FDDB12" fill-rule="evenodd" d="M253.8 1a2 2 0 011.7.2 86.2 86.2 0 015.4 6.2c2.6 3.4 6 8.1 10 13.9 7.9 11.6 18.6 27.7 31.1 46.9a9899 9899 0 0190.5 142.3c66 105.6 134.4 218 150.9 250a1 1 0 11-1.8 1c-16.5-32-84.8-144.3-150.8-249.9a9902 9902 0 00-90.5-142.3 2224.3 2224.3 0 00-31.1-46.9 410.6 410.6 0 00-13-17.7 12.8 12.8 0 00-1.8-1.8l-.8.5c-.8.6-1.8 1.7-3 3.3-2.6 3-5.8 8-9.8 14.4-8 12.8-18.5 31.7-30.8 54.7a6325 6325 0 00-86.9 171c-31 62.8-61.4 126.1-84 174.2a3949.6 3949.6 0 00-34.7 75.7 112.5 112.5 0 00-2.3 6h.2l3.1.2c2.8 0 6.9 0 12.2-.3 10.5-.5 25.7-1.5 44.3-3 37.3-3 88.3-7.7 143.8-13a17978 17978 0 00311.7-33 1 1 0 11.2 1.9C446 464 317 477.7 206 488.5a8779 8779 0 01-143.8 13 1472 1472 0 01-44.4 3.1 208.4 208.4 0 01-15.7.1l-1-.2c-.2 0-.4-.2-.5-.3-.2-.1-.4-.4-.5-.7v-.6l.2-.6c0-.4.2-.9.4-1.5l2-4.8a3951.4 3951.4 0 0134.7-75.8c22.6-48.1 53-111.5 84-174.3 31-62.8 62.4-125 87-171 12.3-23 22.8-42 30.8-54.9 4-6.4 7.3-11.4 9.9-14.6 1.3-1.6 2.4-2.8 3.4-3.6l1.4-.8zM1.6 502.6zm.4.6z" clip-rule="evenodd" opacity=".8"/>
  <path fill="#4700D6" fill-rule="evenodd" d="M112.9 141.6a3 3 0 012.6-.5c1.3.4 3.3 1.3 5.8 2.6a912.6 912.6 0 0136.3 21.5c21 13.2 47.3 30.3 73 47.2a10138.8 10138.8 0 0197.8 65.3l1.6 1 .6.5-.6.8-.6.8-.5-.4-1.7-1a14521.2 14521.2 0 00-97.8-65.4 4070 4070 0 00-72.9-47 910.7 910.7 0 00-36-21.5 36.7 36.7 0 00-5.6-2.5c-.3 0-.5 0-.9.2-.3.3-.8.8-1.2 1.7-1 1.7-1.8 4.4-2.6 8.1-1.5 7.5-2.7 18.5-3.5 31.9-1.6 26.8-2 63.1-1.6 99.8a3659.7 3659.7 0 004.2 135.5 395 395 0 00.9 12.5l1.2-.4 6.3-3.1 22.3-12c18.7-10.4 44-24.8 70.9-40.3a5137 5137 0 00142.6-84.7l1 1.6A5139 5139 0 01212 378.6a4974 4974 0 01-70.9 40.3 938.1 938.1 0 01-28.7 15.2 19.6 19.6 0 01-2.5.9h-.5c-.1 0-.5-.2-.7-.5l-.2-.4v-.3l-.2-.8-.3-2.8-.6-9.9c-.5-8.3-1-20-1.6-34a3659 3659 0 01-2.6-101.6c-.3-36.7 0-73 1.6-100 .8-13.4 2-24.5 3.5-32a34 34 0 012.8-8.8c.5-1 1.1-1.8 1.9-2.3z" clip-rule="evenodd" opacity=".5"/>
  <path fill="#E60053" fill-rule="evenodd" d="M269.2 229.7l1.4-1.7.9 2c7.8 17.3 63.4 140.2 69.1 157.2.4 1.2.6 2 .4 2-2 1.1-184-12-179-24.4 4.7-11.6 94.7-120.2 107.2-135.1zm.9 2l-2.4 2.9a7986.3 7986.3 0 00-48 58.4c-13.2 16.3-26.6 33-37 46.4a640.6 640.6 0 00-17 22.9l-1.7 2.9.4.3a18 18 0 004.4 2c4.4 1.5 11 3 19.1 4.5a892 892 0 0061.2 8 2133 2133 0 0089.4 7.2l-1.7-4.5-7.7-18.4a13925 13925 0 00-59-132.6z" clip-rule="evenodd" opacity=".5"/>
  <path fill="#E60053" fill-rule="evenodd" d="M44.1 424c1.8-1.8 2.8-4 2.9-5.9 0-1.9-.8-4.3-2.4-6.1a8.2 8.2 0 00-6.5-3c-5.6.2-9 4.7-9.1 9.3 0 2 1 4.2 2.7 6 1.8 1.8 4 2.8 6.2 2.7 2.2 0 4.4-1.2 6.2-3zm-6.1 6c6.2-.2 11.8-6.2 12-11.7.2-5.6-4.6-12.5-12-12.3-7.5.2-11.8 6.3-12 12.3-.2 5.9 5.8 12 12 11.7z" clip-rule="evenodd" opacity=".5"/>
  <path fill="#4700D6" d="M328 94.7c-.2 4.8-5.3 10-11 10.3-5.7.2-11.1-5-11-10.3A11 11 0 01317 84c6.8-.2 11.2 5.9 11 10.7z" opacity=".6"/>
  <path fill="#FDDB12" d="M215 72.3c-.3 6.4-7 13.4-14.5 13.7-7.5.3-14.7-6.8-14.5-13.7.2-7 5.5-14 14.5-14.3 9-.3 14.7 7.9 14.5 14.3z" opacity=".6"/>
  <path fill="#4700D6" d="M359 471c-.2 5.8-8.5 18.7-16 15.5-7.6-3.2-9.2-9.3-9-15.6a13 13 0 0112.5-12.9c7.8-.2 12.7 7.1 12.5 13z" opacity=".5"/>
  <path fill="#E60053" d="M211.6 289.3c.7.7 11.9 16.9 11.3 17.4l-15 10.5-11-16.4s14-12.2 14.7-11.5z" opacity=".5"/>
</svg>
