<svg xmlns="http://www.w3.org/2000/svg" fill="none" viewBox="0 0 702 742" width="702" height="742">
  <path fill="url(#paint0_linear)" d="M701 400.815c6.148 43.185-63.362 213-86 235.185-22.638 22.185-202.703 106-247.508 106C322.687 742 150 678 103 645 84.299 620.312-2.632 468 4 400.815 10.632 333.629 275.984-11 367.492 1 459 13 694.852 357.629 701 400.815z" opacity=".1"/>
  <path fill="url(#paint1_linear)" d="M278.097 452.503c3.467 2.051 86.433 39.129 90.333 37.604 3.899-1.524 80.8-38.926 80.8-38.926L364.747 415s-90.117 35.451-86.65 37.503z" opacity=".14"/>
  <path fill="url(#paint2_linear)" d="M278.097 549.35c3.467 2.051 86.433 39.129 90.333 37.604 3.899-1.524 80.8-38.926 80.8-38.926l-84.483-36.181s-90.117 35.451-86.65 37.503z" opacity=".09"/>
  <path fill="#CA21EE" d="M449.279 451.027s2.385 94.429-1.52 95.956L367.659 587c-3.472-2.055 0-96.93 0-96.93l81.62-39.043z" opacity=".2"/>
  <path fill="#E60053" d="M278.757 451.027s-2.506 94.429 1.596 95.956L364.495 587c3.647-2.055 2.775-97.622 2.775-97.622l-88.513-38.351z" opacity=".1"/>
  <path fill="url(#paint3_linear)" d="M440.996 445.048c-.428-2.073-75.812-32.72-76.556-29.987-.313 1.151-76.127 27.449-76.127 27.449l77.278 40.163s75.834-35.551 75.405-37.625z" opacity=".03"/>
  <path fill="#CA21EE" d="M440.996 445.048c-.428-2.073-73.599-116.944-75.405-110.306-1.807 6.638 0 147.931 0 147.931s75.834-35.551 75.405-37.625z" opacity=".18"/>
  <path fill="#E60053" d="M365.513 481.947V334.351c0 3.515-78.517 109.721-78.517 109.721l78.517 37.875z" opacity=".08"/>
  <path fill="url(#paint4_linear)" d="M429.967 272.386c-1.077 29.393-30.908 61.308-63.947 62.578-33.039 1.269-64.83-30.88-63.946-62.578.883-31.697 24.234-64.134 63.946-65.303 39.712-1.17 65.024 35.91 63.947 65.303z" opacity=".29"/>
  <path fill="url(#paint5_linear)" d="M410.985 261.019c-.736 22.055-29.569 46.001-52.138 46.954-22.57.952-50.441-23.17-49.837-46.954.603-23.783 22.709-48.121 49.837-48.999 27.127-.877 52.873 26.945 52.138 48.999z" opacity=".38"/>
  <path fill="#fff" d="M371.992 241.953c-.368 9.877-14.786 20.601-26.071 21.028-11.286.427-25.218-6.308-24.916-16.959.302-10.651 11.351-25.62 24.916-26.013 13.565-.393 26.439 12.067 26.071 21.944z" opacity=".26"/>
  <path fill="#CA21EE" d="M540.665 656s1.109 39.585-.707 40.225L502.717 713c-1.614-.861 0-40.633 0-40.633L540.665 656zM511.988 106.978c-.378 10.338-10.87 21.563-22.491 22.009-11.62.447-22.801-10.861-22.491-22.009.311-11.149 8.524-22.557 22.491-22.968 13.968-.412 22.87 12.63 22.491 22.968z" opacity=".36"/>
  <path fill="#E60053" d="M37 544v-69.971c0 1.666-37 52.015-37 52.015L37 544z" opacity=".41"/>
  <defs>
    <linearGradient id="paint0_linear" x1="3.64" x2="704.523" y1="242.423" y2="249.055" gradientUnits="userSpaceOnUse">
      <stop stop-color="#F3568F"/>
      <stop offset="1" stop-color="#C81EF2"/>
    </linearGradient>
    <linearGradient id="paint1_linear" x1="449.23" x2="277.304" y1="439.506" y2="443.444" gradientUnits="userSpaceOnUse">
      <stop stop-color="#F3568F"/>
      <stop offset="1" stop-color="#C81EF2"/>
    </linearGradient>
    <linearGradient id="paint2_linear" x1="449.23" x2="277.304" y1="536.353" y2="540.291" gradientUnits="userSpaceOnUse">
      <stop stop-color="#F3568F"/>
      <stop offset="1" stop-color="#C81EF2"/>
    </linearGradient>
    <linearGradient id="paint3_linear" x1="440.998" x2="287.691" y1="436.992" y2="440.464" gradientUnits="userSpaceOnUse">
      <stop stop-color="#F3568F"/>
      <stop offset="1" stop-color="#C81EF2"/>
    </linearGradient>
    <linearGradient id="paint4_linear" x1="302.056" x2="430.574" y1="248.777" y2="250.068" gradientUnits="userSpaceOnUse">
      <stop stop-color="#F3568F"/>
      <stop offset="1" stop-color="#C81EF2"/>
    </linearGradient>
    <linearGradient id="paint5_linear" x1="335.666" x2="386.866" y1="232.333" y2="290.613" gradientUnits="userSpaceOnUse">
      <stop stop-color="#fff"/>
      <stop offset="1" stop-color="#E7DCFF" stop-opacity=".5"/>
    </linearGradient>
  </defs>
</svg>
