<svg xmlns="http://www.w3.org/2000/svg" fill="none" viewBox="0 0 778 683" width="778" height="683">
  <g opacity=".05">
    <path fill="#FF004D" d="M.851 678.043C-.199 667.683 372.267-39.977 413.827 1.83c41.561 41.807 363.281 673.887 363.281 673.887S1.901 688.403.851 678.043z"/>
    <path fill="url(#paint0_linear)" d="M.851 678.043C-.199 667.683 372.267-39.977 413.827 1.83c41.561 41.807 363.281 673.887 363.281 673.887S1.901 688.403.851 678.043z"/>
  </g>
  <g opacity=".03">
    <path fill="#FF004D" d="M550.662 483.551c-.844-3.883-149.447-61.266-150.914-56.148-.617 2.155-150.07 51.396-150.07 51.396L402.016 554s149.491-66.567 148.646-70.449z"/>
    <path fill="url(#paint1_linear)" d="M550.662 483.551c-.844-3.883-149.447-61.266-150.914-56.148-.617 2.155-150.07 51.396-150.07 51.396L402.016 554s149.491-66.567 148.646-70.449z"/>
  </g>
  <g opacity=".11">
    <path fill="#FF004D" d="M550.662 483.551c-.844-3.883-145.085-218.967-148.646-206.538-3.562 12.429 0 276.987 0 276.987s149.491-66.566 148.646-70.449z"/>
    <path fill="url(#paint2_linear)" d="M550.662 483.551c-.844-3.883-145.085-218.967-148.646-206.538-3.562 12.429 0 276.987 0 276.987s149.491-66.566 148.646-70.449z"/>
  </g>
  <g opacity=".05">
    <path fill="#FF004D" d="M401.862 552.641s0-282.939-.001-276.359c0 6.58-154.78 205.441-154.78 205.441l154.781 70.918z"/>
    <path fill="url(#paint3_linear)" d="M401.862 552.641s0-282.939-.001-276.359c0 6.58-154.78 205.441-154.78 205.441l154.781 70.918z"/>
  </g>
  <defs>
    <linearGradient id="paint0_linear" x1="326" x2="647.589" y1="72" y2="551.951" gradientUnits="userSpaceOnUse">
      <stop stop-color="#FF003D"/>
      <stop offset="1" stop-color="#5200FF"/>
    </linearGradient>
    <linearGradient id="paint1_linear" x1="467.656" x2="455.51" y1="462.059" y2="550.818" gradientUnits="userSpaceOnUse">
      <stop stop-color="#FF003D"/>
      <stop offset="1" stop-color="#5200FF"/>
    </linearGradient>
    <linearGradient id="paint2_linear" x1="509.233" x2="398.236" y1="315.149" y2="470.999" gradientUnits="userSpaceOnUse">
      <stop stop-color="#FF003D"/>
      <stop offset="1" stop-color="#5200FF"/>
    </linearGradient>
    <linearGradient id="paint3_linear" x1="359.769" x2="249.908" y1="314.679" y2="471.976" gradientUnits="userSpaceOnUse">
      <stop stop-color="#FF003D"/>
      <stop offset="1" stop-color="#5200FF"/>
    </linearGradient>
  </defs>
</svg>
