<svg xmlns="http://www.w3.org/2000/svg" fill="none" viewBox="0 0 793 750" width="793" height="750">
  <path transform="scale(0.95)" fill="url(#paint0_linear)" d="M749.806 382.963c-6.312 172.299-181.178 359.38-374.85 366.823C181.283 757.23-5.072 568.771.106 382.963 5.282 197.154 142.167 7.013 374.955.158c232.788-6.855 381.162 210.505 374.85 382.805z" opacity=".045"/>
  <g opacity=".05">
    <path fill="#FF004D" d="M15.978 194.004c-.146-1.556 56.52-107.286 62.707-100.968 6.187 6.317 53.734 101.491 53.734 101.491s-116.295 1.032-116.44-.523z"/>
    <path fill="url(#paint1_linear)" d="M15.978 194.004c-.146-1.556 56.52-107.286 62.707-100.968 6.187 6.317 53.734 101.491 53.734 101.491s-116.295 1.032-116.44-.523z"/>
  </g>
  <g opacity=".05">
    <path fill="#FF004D" d="M474.97 637.189c-.985 25.73-28.264 53.668-58.477 54.779-30.213 1.112-59.284-27.032-58.477-54.779.808-27.747 22.162-56.142 58.477-57.165 36.315-1.024 59.461 31.435 58.477 57.165z"/>
    <path fill="url(#paint2_linear)" d="M474.97 637.189c-.985 25.73-28.264 53.668-58.477 54.779-30.213 1.112-59.284-27.032-58.477-54.779.808-27.747 22.162-56.142 58.477-57.165 36.315-1.024 59.461 31.435 58.477 57.165z"/>
  </g>
  <g opacity=".05">
    <path fill="#FF004D" d="M379.941 64.904c-2.085 2.675-51.992 51.024-54.337 49.036C323.258 111.952 277 63.181 277 63.181L327.819 16s54.208 46.229 52.122 48.904z"/>
    <path fill="url(#paint3_linear)" d="M379.941 64.904c-2.085 2.675-51.992 51.024-54.337 49.036C323.258 111.952 277 63.181 277 63.181L327.819 16s54.208 46.229 52.122 48.904z"/>
  </g>
  <g transform="translate(-50 0)">
    <path fill="url(#paint4_linear)" d="M792.977 370.956c-.758 20.675-21.742 43.125-44.982 44.018-23.241.894-45.604-21.721-44.982-44.018.621-22.297 17.047-45.114 44.982-45.937 27.934-.823 45.739 25.261 44.982 45.937z" opacity=".1"/>
    <path fill="url(#paint5_linear)" d="M785.199 366.033c-.574 17.294-23.082 36.071-40.7 36.818-17.617.747-39.374-18.168-38.903-36.818.471-18.649 17.727-37.733 38.903-38.421 21.176-.688 41.274 21.128 40.7 38.421z" opacity=".41"/>
    <path fill="url(#paint6_linear)" d="M761.839 353.112c-.337 9.143-13.548 19.071-23.889 19.466-10.341.395-23.107-5.839-22.83-15.699.276-9.861 10.401-23.718 22.83-24.082 12.43-.364 24.226 11.171 23.889 20.315z" opacity=".72"/>
  </g>
  <defs>
    <linearGradient id="paint0_linear" x1="180.403" x2="467.956" y1="66.177" y2="666.429" gradientUnits="userSpaceOnUse">
      <stop stop-color="#FF003D"/>
      <stop offset="1" stop-color="#5200FF"/>
    </linearGradient>
    <linearGradient id="paint1_linear" x1="65.432" x2="113.131" y1="103.462" y2="175.817" gradientUnits="userSpaceOnUse">
      <stop stop-color="#FF003D"/>
      <stop offset="1" stop-color="#5200FF"/>
    </linearGradient>
    <linearGradient id="paint2_linear" x1="386.143" x2="435.487" y1="589.882" y2="685.741" gradientUnits="userSpaceOnUse">
      <stop stop-color="#FF003D"/>
      <stop offset="1" stop-color="#5200FF"/>
    </linearGradient>
    <linearGradient id="paint3_linear" x1="305.407" x2="332.229" y1="29.651" y2="102.766" gradientUnits="userSpaceOnUse">
      <stop stop-color="#FF003D"/>
      <stop offset="1" stop-color="#5200FF"/>
    </linearGradient>
    <linearGradient id="paint4_linear" x1="748" x2="765.59" y1="347.5" y2="399.921" gradientUnits="userSpaceOnUse">
      <stop stop-color="#FF003D"/>
      <stop offset="1" stop-color="#5200FF"/>
    </linearGradient>
    <linearGradient id="paint5_linear" x1="726.405" x2="766.575" y1="343.54" y2="389.06" gradientUnits="userSpaceOnUse">
      <stop stop-color="#fff"/>
      <stop offset="1" stop-color="#E7DCFF"/>
    </linearGradient>
    <linearGradient id="paint6_linear" x1="727.766" x2="746.244" y1="332.788" y2="368.398" gradientUnits="userSpaceOnUse">
      <stop stop-color="#FFE7EC"/>
      <stop offset="1" stop-color="#F9F7FF"/>
    </linearGradient>
  </defs>
</svg>
