<svg xmlns="http://www.w3.org/2000/svg" fill="none" viewBox="0 0 774 750" width="774" height="750">
  <path fill="url(#paint0_linear)" d="M749.806 382.963c-6.312 172.299-181.178 359.38-374.85 366.823C181.283 757.23-5.072 568.771.106 382.963 5.282 197.154 142.167 7.013 374.955.158c232.788-6.855 381.162 210.505 374.85 382.805z" opacity=".15"/>
  <path fill="#E60053" d="M75.795 176.24c-.424-.398-10.857-43.729-7.588-43.484 3.27.245 39.903 15.114 39.903 15.114s-31.89 28.767-32.315 28.37z" opacity=".6"/>
  <path fill="#D32CDB" d="M541.98 628.275c-.639 16.771-18.359 34.98-37.984 35.704-19.626.725-38.51-17.619-37.985-35.704.524-18.085 14.395-36.592 37.985-37.26 23.589-.667 38.624 20.49 37.984 37.26z" opacity=".4"/>
  <path fill="#E60053" d="M183.978 683.965c-.769.982-19.181 18.743-20.046 18.013-.866-.73-17.932-18.646-17.932-18.646L164.749 666s19.999 16.982 19.229 17.965z" opacity=".65"/>
  <path fill="#CA21EE" d="M773.987 395.531c-.421 11.486-12.078 23.959-24.99 24.455-12.911.496-25.335-12.068-24.99-24.455.345-12.387 9.471-25.063 24.99-25.52 15.519-.457 25.411 14.033 24.99 25.52z" opacity=".5"/>
  <defs>
    <linearGradient id="paint0_linear" x1="0" x2="753.366" y1="244.564" y2="252.137" gradientUnits="userSpaceOnUse">
      <stop stop-color="#F3568F"/>
      <stop offset="1" stop-color="#C81EF2"/>
    </linearGradient>
  </defs>
</svg>
