<svg xmlns="http://www.w3.org/2000/svg" fill="none" viewBox="0 0 790 754" width="790" height="754">
  <g opacity=".05" transform="scale(0.94) translate(22 0)">
    <path fill="#FF004D" d="M789.55 376.261c-15.996 20.58-398.773 392.575-416.762 377.28C354.798 738.246 0 363.005 0 363.005L389.778 0S805.546 355.68 789.55 376.261z"/>
    <path fill="url(#paint0_linear)" d="M789.55 376.261c-15.996 20.58-398.773 392.575-416.762 377.28C354.798 738.246 0 363.005 0 363.005L389.778 0S805.546 355.68 789.55 376.261z"/>
  </g>
  <g transform="scale(0.95) translate(10 -10)">
    <path fill="url(#paint1_linear)" d="M260.154 461.898c5.442 3.22 135.679 61.423 141.8 59.03 6.121-2.393 126.838-61.104 126.838-61.104l-132.619-56.797s-141.462 55.651-136.019 58.871z" opacity=".05"/>
    <path fill="url(#paint2_linear)" d="M528.868 307.554s3.744 148.231-2.386 150.629L400.745 521c-5.451-3.226 0-152.158 0-152.158l128.123-61.288z" opacity=".15"/>
    <path fill="url(#paint3_linear)" d="M261.19 307.554s-3.934 148.231 2.505 150.629L395.777 521c5.726-3.226 4.357-153.243 4.357-153.243L261.19 307.554z" opacity=".05"/>
    <path fill="url(#paint4_linear)" d="M260.154 309.871c5.442 3.22 135.679 61.423 141.8 59.03 6.121-2.393 126.838-61.104 126.838-61.104L396.173 251s-141.462 55.651-136.019 58.871z" opacity=".04"/>
  </g>
  <defs>
    <linearGradient id="paint0_linear" x1="217.876" x2="424.732" y1="105.027" y2="667.148" gradientUnits="userSpaceOnUse">
      <stop stop-color="#FF003D"/>
      <stop offset="1" stop-color="#5200FF"/>
    </linearGradient>
    <linearGradient id="paint1_linear" x1="454.662" x2="438.233" y1="419.46" y2="516.541" gradientUnits="userSpaceOnUse">
      <stop stop-color="#FF003D"/>
      <stop offset="1" stop-color="#5200FF"/>
    </linearGradient>
    <linearGradient id="paint2_linear" x1="493.684" x2="412.482" y1="337.285" y2="467.212" gradientUnits="userSpaceOnUse">
      <stop stop-color="#FF003D"/>
      <stop offset="1" stop-color="#5200FF"/>
    </linearGradient>
    <linearGradient id="paint3_linear" x1="298.148" x2="377.541" y1="337.285" y2="470.727" gradientUnits="userSpaceOnUse">
      <stop stop-color="#FF003D"/>
      <stop offset="1" stop-color="#5200FF"/>
    </linearGradient>
    <linearGradient id="paint4_linear" x1="454.662" x2="438.233" y1="267.433" y2="364.514" gradientUnits="userSpaceOnUse">
      <stop stop-color="#FF003D"/>
      <stop offset="1" stop-color="#5200FF"/>
    </linearGradient>
  </defs>
</svg>
