<svg xmlns="http://www.w3.org/2000/svg" fill="none" viewBox="0 0 778 707" width="778" height="707">
  <path fill="url(#paint0_linear)" d="M.851 677.995c-1.05-10.36 371.416-718.02 412.976-676.213 41.561 41.807 363.281 673.886 363.281 673.886S1.901 688.355.851 677.995z" opacity=".12"/>
  <path fill="#E60053" transform="translate(280)" d="M130.244 706.59c-.552-.43-18.573-50.551-14.692-50.562 3.88-.012 48.966 14.157 48.966 14.157s-33.722 36.834-34.274 36.405z" opacity=".4"/>
  <path fill="#CA21EE" transform="translate(0 -120)" d="M556.979 321.795c.179-.676 39.221-36.906 40.752-33.34 1.532 3.565 6.176 50.596 6.176 50.596s-47.107-16.579-46.928-17.256z" opacity=".4"/>
  <path fill="#E60053" transform="translate(-140 390)" d="M229.221 127.348c.434.549 6.02 53.517 2.248 52.606-3.772-.912-44.196-25.396-44.196-25.396s41.514-27.758 41.948-27.21z" opacity=".5"/>
  <path fill="#E60053" transform="translate(100 -50)" d="M229.221 127.348c.434.549 6.02 53.517 2.248 52.606-3.772-.912-44.196-25.396-44.196-25.396s41.514-27.758 41.948-27.21z" opacity=".5"/>
  <defs>
    <linearGradient id="paint0_linear" x1="0" x2="753.366" y1="244.564" y2="252.137" gradientUnits="userSpaceOnUse">
      <stop stop-color="#F3568F"/>
      <stop offset="1" stop-color="#C81EF2"/>
    </linearGradient>
  </defs>
</svg>
