<svg width="250" height="95" viewBox="0 0 250 95" fill="none" xmlns="http://www.w3.org/2000/svg">
<mask id="mask0" mask-type="alpha" maskUnits="userSpaceOnUse" x="28" y="53" width="33" height="34">
<circle cx="44.5" cy="70.4998" r="16.5" fill="#AAA5B6"/>
</mask>
<g mask="url(#mask0)">
<circle cx="44.5" cy="70.4998" r="16.5" fill="#AAA5B6"/>
<path d="M44.9122 59.7769L65.9891 96.2831H23.8353L44.9122 59.7769Z" fill="white"/>
<path d="M44.9125 61.4238L52.4144 74.4176H37.4106L44.9125 61.4238Z" fill="#AAA5B6"/>
</g>
<path d="M63.6818 54.909L74.3636 74.8521V83.9999H82.2046V74.8521L92.8864 54.909H84.0795L78.3977 66.7271H78.1705L72.4886 54.909H63.6818Z" fill="#AAA5B6"/>
<path d="M99.3781 84.3976C106.48 84.3976 110.685 79.8521 110.685 73.1476C110.685 66.4431 106.48 61.8976 99.3781 61.8976C92.2759 61.8976 88.0713 66.4431 88.0713 73.1476C88.0713 79.8521 92.2759 84.3976 99.3781 84.3976ZM99.4349 78.6021C97.3327 78.6021 96.0827 76.5141 96.0827 73.0908C96.0827 69.6675 97.3327 67.5794 99.4349 67.5794C101.424 67.5794 102.674 69.6675 102.674 73.0908C102.674 76.5141 101.424 78.6021 99.4349 78.6021Z" fill="#AAA5B6"/>
<path d="M126.814 74.4544C126.829 76.6135 125.579 77.9203 123.633 77.9203C121.658 77.9203 120.522 76.6135 120.508 74.4544V62.1817H112.667V76.1021C112.681 80.8749 115.692 84.284 120.28 84.284C123.533 84.284 126.033 82.6362 126.985 79.8521H127.212V83.9999H134.655V62.1817H126.814V74.4544Z" fill="#AAA5B6"/>
<path d="M137.443 83.9999H145.284V72.6362C145.284 70.1362 147.003 68.4885 149.318 68.4885C150.128 68.4885 151.435 68.6163 152.216 68.8862V62.1959C151.591 62.0112 150.909 61.8976 150.227 61.8976C147.898 61.8976 146.08 63.2612 145.284 66.3294H145.057V62.1817H137.443V83.9999Z" fill="#AAA5B6"/>
<path d="M187.401 65.8181C186.776 58.6021 181.492 54.5112 174.163 54.5112C166.322 54.5112 160.129 59.7385 160.129 69.4544C160.129 79.1277 166.151 84.3976 174.163 84.3976C182.685 84.3976 187.004 78.4885 187.401 73.5453L179.39 73.4885C178.992 75.9743 177.231 77.5226 174.333 77.5226C170.484 77.5226 168.254 74.7953 168.254 69.4544C168.254 64.3976 170.413 61.3862 174.39 61.3862C177.43 61.3862 179.163 63.176 179.39 65.8181H187.401Z" fill="#AAA5B6"/>
<path d="M200.409 84.3976C207.512 84.3976 211.716 79.8521 211.716 73.1476C211.716 66.4431 207.512 61.8976 200.409 61.8976C193.307 61.8976 189.103 66.4431 189.103 73.1476C189.103 79.8521 193.307 84.3976 200.409 84.3976ZM200.466 78.6021C198.364 78.6021 197.114 76.5141 197.114 73.0908C197.114 69.6675 198.364 67.5794 200.466 67.5794C202.455 67.5794 203.705 69.6675 203.705 73.0908C203.705 76.5141 202.455 78.6021 200.466 78.6021Z" fill="#AAA5B6"/>
<path d="M217.959 84.4544C220.047 84.4544 221.908 82.693 221.937 80.4771C221.908 78.318 220.047 76.5567 217.959 76.5567C215.758 76.5567 213.954 78.318 213.982 80.4771C213.954 82.693 215.758 84.4544 217.959 84.4544Z" fill="#AAA5B6"/>
</svg>
