<svg xmlns="http://www.w3.org/2000/svg" fill="none" viewBox="0 0 250 95">
  <mask id="mask0" width="41" height="41" x="7" y="47" maskUnits="userSpaceOnUse">
    <circle cx="27" cy="67" r="20" fill="#817579"/>
  </mask>
  <g mask="url(#mask0)">
    <circle cx="27" cy="67" r="20" fill="#4700D6" fill-opacity=".1"/>
    <path fill="#4700D6" fill-opacity=".2" d="M27.5 54L53 98.3H2L27.5 54z"/>
    <path fill="#fff" d="M27.5 56l9 15.8h-18l9-15.8z"/>
  </g>
  <path fill="#4700D6" fill-opacity=".3" d="M50.3 48.1l12.9 24.2v11h9.5v-11l13-24.2H75l-7 14.3h-.2L61 48.1H50.3zM93.5 83.8c8.6 0 13.7-5.5 13.7-13.6s-5-13.6-13.7-13.6c-8.6 0-13.7 5.5-13.7 13.6S85 83.8 93.5 83.8zm0-7c-2.5 0-4-2.5-4-6.7 0-4.1 1.5-6.6 4-6.6s4 2.5 4 6.6c0 4.2-1.5 6.7-4 6.7zM126.8 71.8c0 2.6-1.5 4.2-3.9 4.2s-3.8-1.6-3.8-4.2V56.9h-9.5v16.9c0 5.8 3.7 10 9.3 10 3.9 0 7-2 8-5.5h.4v5h9V57h-9.5v14.9zM139.7 83.4h9.5V69.6c0-3 2-5 4.9-5 1 0 2.5.1 3.5.4v-8c-.8-.3-1.6-.4-2.4-.4-2.9 0-5 1.6-6 5.3h-.3v-5h-9.2v26.5zM200.2 61.3c-.7-8.7-7.1-13.7-16-13.7-9.5 0-17 6.4-17 18.1 0 11.8 7.3 18.1 17 18.1 10.3 0 15.5-7.1 16-13.1h-9.7c-.5 3-2.6 4.8-6.1 4.8-4.7 0-7.4-3.3-7.4-9.8 0-6 2.6-9.7 7.4-9.7 3.7 0 5.8 2.1 6.1 5.3h9.7zM216 83.8c8.6 0 13.7-5.5 13.7-13.6s-5.1-13.6-13.7-13.6-13.7 5.5-13.7 13.6 5 13.6 13.7 13.6zm0-7c-2.5 0-4-2.5-4-6.7 0-4.1 1.5-6.6 4-6.6s4 2.5 4 6.6c0 4.2-1.5 6.7-4 6.7zM237.3 84A5 5 0 00242 79c0-2.6-2.3-4.8-4.8-4.8a4.8 4.8 0 100 9.6z"/>
</svg>
