<svg xmlns="http://www.w3.org/2000/svg" fill="none" viewBox="0 0 250 95">
  <path fill="#0F2043" d="M118.505 51.605c.398 0 .599.214.599.638v28.24a.585.585 0 01-.24.498.96.96 0 01-.598.18h-4.82a1.297 1.297 0 01-.527-.098 1.506 1.506 0 01-.498-.459L100.62 64.352c-.108-.16-.201-.231-.28-.218-.079.013-.118.097-.118.263v16.086a.625.625 0 01-.201.527c-.202.124-.44.18-.677.158h-4.82c-.585 0-.875-.263-.875-.756V52.44a.93.93 0 01.18-.638.792.792 0 01.616-.197h5.687c.238-.016.476.025.696.118.206.143.384.321.527.527l10.596 14.937c.159.213.306.319.438.319s.2-.16.2-.48V52.362c0-.504.264-.757.791-.757h5.125zM128.69 56.82a1.023 1.023 0 01-.3.816c-.271.196-.602.29-.936.264h-4.978a.96.96 0 01-.737-.24 1.026 1.026 0 01-.219-.717V52.48a.959.959 0 01.2-.637.643.643 0 01.527-.238h5.737a.667.667 0 01.527.22c.139.158.211.365.201.576l-.022 4.417zm-.039 23.26a1.07 1.07 0 01-.279.839 1.42 1.42 0 01-.918.237h-4.938a.791.791 0 01-.957-.915V60.889c0-.559.24-.838.717-.838h5.698c.45 0 .677.264.677.756v19.275zM145.696 60.582a9.005 9.005 0 013.126 2.41 8.434 8.434 0 011.634 3.068c.037.13.064.264.079.398 0 .32-.24.504-.717.556l-4.82.32a.172.172 0 00-.079.02.147.147 0 01-.121-.02c-.211 0-.359-.159-.438-.478a6.05 6.05 0 00-1.035-1.97c-.398-.465-1.028-.694-1.911-.694a3.199 3.199 0 00-2.849 1.581c-.676 1.054-1.015 2.66-1.017 4.82.004 4.341 1.411 6.512 4.222 6.512 1.035 0 1.851-.264 2.448-.79a9.858 9.858 0 001.845-2.47.347.347 0 01.24-.198c.174-.028.352-.028.527 0l3.346.717c.264.027.398.158.398.398a2.167 2.167 0 01-.079.438 8.567 8.567 0 01-1.454 2.788 9.063 9.063 0 01-3.068 2.53c-1.316.702-2.902 1.054-4.759 1.054a11.265 11.265 0 01-5.577-1.376 9.859 9.859 0 01-3.863-3.845 11.293 11.293 0 01-1.394-5.655 11.47 11.47 0 011.413-5.737 10.09 10.09 0 013.884-3.93 11.066 11.066 0 015.534-1.393c1.548-.03 3.081.294 4.485.946zM174.145 80.445a.71.71 0 01-.224.52.724.724 0 01-.533.196h-6.056c-.527 0-.93-.303-1.194-.914l-3.465-7.53c-.108-.263-.24-.397-.4-.397a.657.657 0 00-.398.237l-2.351 2.232c-.211.215-.316.573-.316 1.075v4.217a1.115 1.115 0 01-.264.838 1.396 1.396 0 01-.935.237h-4.907a1.082 1.082 0 01-.791-.219.955.955 0 01-.219-.695v-27.8a.952.952 0 01.18-.617.6.6 0 01.498-.219h5.76c.451 0 .678.264.678.757v15.614c0 .213.052.319.158.319.053 0 .145-.066.279-.198l6.731-7.41a1.58 1.58 0 011.157-.638h4.899c.503 0 .756.16.756.48a.839.839 0 01-.279.595l-5.376 5.379c-.154.163-.252.37-.28.593.027.24.109.473.24.677l6.572 12.346.08.325z"/>
  <path fill="#0F2043" d="M181.827 75.682c.878.757 1.994 1.136 3.346 1.136a5.071 5.071 0 002.33-.559 9.474 9.474 0 002.372-1.871.494.494 0 01.358-.16c.137.001.272.029.398.081l3.265 1.352c.24.108.359.263.359.44a.87.87 0 01-.198.437c-1.328 1.914-2.734 3.231-4.217 3.953-1.482.722-3.354 1.082-5.615 1.078a11.65 11.65 0 01-5.616-1.354 10.057 10.057 0 01-3.953-3.766 10.59 10.59 0 01-1.434-5.516c-.034-2.06.48-4.091 1.489-5.887a10.501 10.501 0 013.953-3.982 10.82 10.82 0 015.439-1.415 11.109 11.109 0 015.498 1.333 9.377 9.377 0 013.744 3.885c.902 1.699 1.353 3.719 1.355 6.06.017.257-.017.514-.1.757-.069.132-.264.214-.577.24h-12.947c-.372 0-.559.21-.559.635-.005 1.325.431 2.366 1.31 3.123zm5.299-7.508c.182.014.364-.02.527-.1.092-.066.137-.219.137-.459a4.167 4.167 0 00-.896-2.548 2.925 2.925 0 00-2.488-1.196 3.591 3.591 0 00-2.748 1.157c-.717.769-1.062 1.805-1.036 3.106l6.504.04zM203.881 80.086a1.07 1.07 0 01-.279.838c-.27.182-.593.265-.917.237h-4.978a1.076 1.076 0 01-.791-.219.948.948 0 01-.219-.695l.158-27.805c0-.556.24-.836.717-.836h5.619a.642.642 0 01.508.206.808.808 0 01.179.559l.003 27.715zM215.294 63.83a4.324 4.324 0 00-2.108.48 1.457 1.457 0 00-.857 1.317 1.023 1.023 0 00.38.79c.251.228.749.433 1.494.618l4.38.996c2.233.506 3.86 1.329 4.881 2.47a5.947 5.947 0 011.533 4.102 5.88 5.88 0 01-2.688 5.12c-1.795 1.23-4.167 1.845-7.115 1.845-2.365 0-4.403-.404-6.114-1.215-1.711-.81-2.916-1.856-3.615-3.138a1.144 1.144 0 01-.198-.598.528.528 0 01.263-.477l3.107-1.595c.185-.097.39-.152.599-.158a.647.647 0 01.527.237 7.459 7.459 0 002.089 1.845c.758.44 1.827.659 3.208.659a6.144 6.144 0 002.609-.48c.678-.318 1.017-.77 1.017-1.354a1.194 1.194 0 00-.498-.954c-.334-.266-.912-.478-1.734-.638l-4.064-.79c-4.195-.826-6.293-2.912-6.293-6.257a6.22 6.22 0 011.096-3.623 7.16 7.16 0 013.205-2.49 12.677 12.677 0 014.98-.897 12.22 12.22 0 015.297 1.097c1.541.73 2.63 1.627 3.268 2.688.157.194.254.429.28.677a.412.412 0 01-.28.398l-3.268 1.581a.94.94 0 01-.398.119.895.895 0 01-.677-.398c-1.057-1.318-2.493-1.977-4.306-1.977z"/>
  <path fill="#fff" d="M27.68 51.656c0 .527.131 5.402.131 5.402l.353 3.787.965 3.724 3.558 2.635 3.953.922 3.865-.053 3.909-.87 3.294-3.03 1.45-7.115-.264-4.875s-7.906-2.108-8.565-2.108c-.659 0-10.278.79-10.278.79l-2.371.79zM55.614 51.656c0 .527.132 5.402.132 5.402l.353 3.787.964 3.724 3.558 2.635 3.953.922 3.866-.053 3.908-.87 3.294-3.03 1.45-7.115-.264-4.875s-7.906-2.108-8.565-2.108c-.658 0-10.277.79-10.277.79l-2.372.79z"/>
  <path fill="#DFE6EF" d="M45.642 66.404L41.2 68.381l-1.826 7.676-1.581 8.096 1.552 2.435s3.25 2.145 3.726 1.803c.477-.343 20.474-.707 20.474-.707l2.738-2.282.366-3.745-2.62-13.276-6.15-1.977H45.642z"/>
  <path fill="#999FAD" d="M41.2 68.374l-1.826 7.67-1.584 8.097-4.87-4.322-2.008-3.956-.608-9.74 10.896 2.25zM64.03 68.376l1.46 7.671 1.58 7.55 3.959-3.776 2.008-3.956.609-9.191-9.617 1.702zM26.528 51.643l11.382-1.645 9.816 1.69.657 13.287 7.792-.185-.068-13.013 10.172-1.597 11.933 1.523.592-4.06-1.186-1.055L60.8 41.536l.427 1.523-17.836.243.122-1.887L26.1 47.197s-.487 2.68-.427 2.862c.06.182.854 1.584.854 1.584z"/>
  <path fill="#0F2043" d="M68.114 82.168l-.492.446a.264.264 0 01-.177.066.226.226 0 01-.084 0 .264.264 0 01-.174-.203l-.114-.654c0-.042-.013-.081-.018-.123-.005-.043 0-.074-.018-.103l-2.327-11.18a6.446 6.446 0 00-.214-.79l-.356-.898c-.292 0-.582-.032-.872-.058.177.469.588 1.58.654 1.905l2.327 11.176c.31 1.49 0 2.899-.844 3.953-.843 1.054-2.163 1.629-3.69 1.629H43.07c-1.524 0-2.833-.577-3.69-1.629-.856-1.051-1.157-2.453-.846-3.953l2.33-11.176c.145-.602.321-1.195.527-1.779-.293.032-.59.058-.886.077a38.683 38.683 0 00-1.217 5.151c-.116.64-.237 1.302-.372 1.945l-1.054 5.044-.06.298-.03.135-.028.142c-.053.265-.09.534-.11.803l-.056.688a.263.263 0 01-.161.22.235.235 0 01-.103.023.263.263 0 01-.166-.06l-.527-.433c-2.667-2.145-4.743-5.076-5.397-7.642v-.066-.016c-.245-2.108-.448-5.655-.548-8.383-.28-.16-.551-.337-.812-.527.085 2.925.293 6.707.572 9.065a.31.31 0 000 .053c.83 3.329 3.78 7.076 7.342 9.321l.1.063c.046.03.082.073.103.124l.045.108c.184.458.434.886.743 1.27 1.012 1.244 2.54 1.927 4.311 1.927h18.65c1.768 0 3.3-.683 4.311-1.926a5.008 5.008 0 00.96-1.916l.034-.124a.263.263 0 01.097-.145l.103-.077c3.107-2.292 5.587-5.679 6.325-8.627a.171.171 0 000-.048c.264-2.25.466-5.919.561-8.718a9.213 9.213 0 01-.82.462c-.102 2.635-.294 6.082-.526 8.093a.035.035 0 000 .016v.065c-.614 2.283-2.348 4.897-4.66 6.986zM77.386 46.126l-15.71-4.986a2.467 2.467 0 00-.735-.135.79.79 0 00-.79.417.79.79 0 00-.034.58l.134.5a.263.263 0 01-.255.332h-.022l-.527-.042a90.377 90.377 0 00-7.47-.308c-2.338 0-4.694.09-7.005.263l-.504.04h-.02a.264.264 0 01-.256-.327l.12-.49a.79.79 0 00-.044-.548.79.79 0 00-.79-.417c-.252.008-.5.053-.738.135l-15.694 4.986a2.696 2.696 0 00-1.784 3.104l.425 1.905c.23-.154.478-.28.737-.38l-.376-1.688a1.9 1.9 0 011.24-2.161l15.644-4.978a.263.263 0 01.295.1.263.263 0 010 .31l-5.47 7.06c.318 0 .653 0 .995.022l4.34-5.605a.264.264 0 01.183-.103l.158-.013a92.455 92.455 0 018.554-.411c3.023 0 6.044.153 9.052.458l.155.016a.263.263 0 01.182.103l4.272 5.534c.34-.016.667-.03.994-.035l-5.426-7.025a.264.264 0 010-.311.263.263 0 01.295-.1l15.64 4.965a1.906 1.906 0 011.244 2.163l-.448 1.829c.26.098.507.224.738.377l.493-2.03a2.702 2.702 0 00-1.792-3.106zM40.99 57.478a2.054 2.054 0 100 4.107 2.054 2.054 0 000-4.107zM62.975 57.478a2.053 2.053 0 10-.005 4.105 2.053 2.053 0 00.005-4.105z"/>
  <path fill="#0F2043" d="M53.33 73.684c2.711-.487 5.007-2.674 5.141-5.563v-.047-.39a18.38 18.38 0 0011.959.92c2.224-.588 4.43-1.68 5.726-3.58 1.263-1.844 1.5-4.194 1.582-6.43.031-.872.05-1.757.34-2.58.263-.753.743-1.414 1.054-2.144.31-.73.474-1.618.07-2.309-.463-.806-1.483-1.054-2.395-1.238-5.078-.954-10.314-1.4-15.416-.575-2.97.48-5.893 1.386-8.902 1.423-3.737.048-7.353-1.246-11.068-1.705-4.393-.543-8.834.087-13.214.717-1.186.171-2.567.482-3.046 1.581-.622 1.418.725 2.862 1.23 4.325.314.911.296 1.897.322 2.861.066 2.33.472 4.78 1.95 6.589 1.157 1.407 2.852 2.269 4.586 2.827a18.097 18.097 0 0012.662-.643c-.017.165-.013.332.013.496.011.171.032.342.061.511a6.353 6.353 0 001.254 2.796c1.094 1.397 2.923 2.19 4.673 2.261.475.018.95-.017 1.418-.103zm-3.56-14.51a8.93 8.93 0 01.74-3.48 1.818 1.818 0 011.694-1.144 1.878 1.878 0 011.755 1.125c.18.373.317.764.409 1.167.226.969.354 1.958.38 2.952.018.298.036.598.06.896.042.544.122 1.085.237 1.618.078.356.174.708.287 1.054.124.366.27.724.438 1.073-.09-.016-.174-.043-.264-.05-2.825-.667-6.588 0-6.588 0-.082 0-.158.031-.24.044.056-.116.116-.226.169-.345.026-.066.047-.132.074-.198.063-.166.126-.329.181-.495.093-.264.17-.556.238-.833.253-1.11.397-2.244.43-3.383zm-11.159 7.98a15.235 15.235 0 01-5.534-1.08 6.882 6.882 0 01-1.636-.912c-.066-.053-.14-.098-.203-.15a6.258 6.258 0 01-1.932-2.799c-.029-.079-.045-.166-.07-.248a8.047 8.047 0 01-.265-1.117c-.029-.174-.068-.343-.086-.527V60.2a29.498 29.498 0 01-.148-2.296 16.721 16.721 0 010-1.454c0-.396.034-.79.066-1.17.017-.34.076-.677.176-1.002a3.355 3.355 0 012.003-2.063 7.849 7.849 0 011.318-.409 13.879 13.879 0 011.998-.295c.429-.037.89-.068 1.364-.095a22.397 22.397 0 012.024-.031l.643.02h.264c1.446.019 2.89.122 4.324.309.322.05.638.113.952.19 2.622.656 3.631 1.913 3.858 4.799.15 1.58.035 3.175-.343 4.717a7.519 7.519 0 01-1.844 3.452c-.1.1-.2.2-.306.295-.407.358-.859.66-1.344.901-.353.181-.72.331-1.099.448-.57.172-1.151.308-1.74.406-.804.148-1.621.226-2.44.232zm32.444-.93a15.34 15.34 0 01-5.192.912 15.51 15.51 0 01-2.09-.148c-.437-.06-.875-.134-1.317-.232a7.668 7.668 0 01-1.753-.63 6.037 6.037 0 01-2.2-1.739c-.904-1.125-1.484-2.596-1.703-4.393a17.268 17.268 0 010-3.874c.214-2.071 1.25-3.426 3.078-4.008a13.882 13.882 0 013.326-.564 62.072 62.072 0 013.71-.158c.607 0 1.221.01 1.845.032 1.03.04 2.058.145 3.076.313.097.016.187.047.282.066.57.109 1.124.286 1.652.527a3.366 3.366 0 011.926 2.735c.058.48.084.964.077 1.447V57.873c-.024.313-.035.635-.048.959-.016.48-.037.97-.092 1.465-.021.18-.053.361-.082.527 0 .056-.016.108-.026.164v.034a7.67 7.67 0 01-.735 2.058 6.213 6.213 0 01-2.043 2.298 7.336 7.336 0 01-1.317.69c-.143.058-.253.114-.374.156z"/>
  <path fill="#0F2043" stroke="#0F2043" stroke-linecap="round" stroke-linejoin="round" stroke-width="2.51" d="M60.603 78.358a10.15 10.15 0 01-3.781 2.654 12.175 12.175 0 01-9.24 0 10.128 10.128 0 01-3.781-2.656 25.072 25.072 0 004.182 1.428 18.26 18.26 0 008.433 0 24.686 24.686 0 004.187-1.426v0z"/>
  <path stroke="#0F2043" stroke-miterlimit="10" stroke-width="4.85" d="M52.213 71.054v9.732"/>
</svg>
