<svg xmlns="http://www.w3.org/2000/svg" fill="none" viewBox="0 0 250 95">
  <path fill="#FFCD00" d="M74.848 75.298l11.905-23.813c.761-1.538 1.418-2.504 1.972-2.897.31-.222.994-.393 2.049-.512 1.487-.188 2.23-.915 2.23-2.18 0-1.059-.57-1.802-1.712-2.23-1.124-.444-3.06-.666-5.81-.666-5.516 0-8.274 1.017-8.274 3.05 0 .718.45 1.308 1.349 1.77.813.41 1.22.905 1.22 1.486 0 .29-.113.71-.338 1.256-.225.53-1.02 2.281-2.386 5.255-.761 1.657-1.366 2.768-1.816 3.332-.45.564-.96.846-1.53.846-.588 0-1.116-.53-1.582-1.59l-3.243-7.228c-.31-.7-.467-1.239-.467-1.615 0-.41.346-.846 1.038-1.307.9-.615 1.349-1.282 1.349-2 0-1.11-.83-1.93-2.49-2.46-1.66-.53-4.254-.795-7.781-.795-3.39 0-5.992.36-7.808 1.077-1.815.7-2.723 1.709-2.723 3.025 0 1.076.519 1.708 1.556 1.896.882.154 1.556.47 2.023.949.484.461 1.02 1.341 1.608 2.64l10.609 23.095c.432.957.787 1.624 1.063 2 .294.358.692.675 1.193.948.657.359 1.401.538 2.231.538 1.003 0 1.833-.273 2.49-.82.657-.564 1.349-1.58 2.075-3.05z"/>
  <path fill="#FFCD00" fill-rule="evenodd" d="M94.778 67.044h12.191c.743 0 1.349-.35 1.815-1.051.467-.718.701-1.632.701-2.743 0-1.367-.407-2.768-1.219-4.203a11.104 11.104 0 00-2.802-3.282c-2.299-1.845-5.092-2.768-8.377-2.768-2.058 0-3.969.367-5.732 1.102-2.352.974-4.289 2.453-5.81 4.435-1.764 2.29-2.646 4.87-2.646 7.74 0 2.137.51 4.17 1.53 6.102a12.838 12.838 0 002.957 3.716c2.456 2.085 5.499 3.127 9.13 3.127 3.597 0 6.77-1.016 9.519-3.05 1.556-1.145 2.334-2.332 2.334-3.563 0-.58-.216-1.145-.648-1.691-.432-.547-.873-.82-1.323-.82-.346 0-.813.204-1.4.614-.657.462-1.496.855-2.516 1.18-1.003.307-1.92.46-2.75.46-1.4 0-2.714-.486-3.942-1.46-1.21-.991-1.816-2.042-1.816-3.153 0-.461.268-.692.804-.692zm3.294-4.793h-2.62c-.622 0-1.063-.103-1.322-.308-.242-.205-.363-.564-.363-1.077 0-.717.26-1.427.778-2.127.553-.752 1.314-1.128 2.282-1.128.865 0 1.565.29 2.101.872.536.58.804 1.332.804 2.255 0 1.008-.553 1.513-1.66 1.513z" clip-rule="evenodd"/>
  <path fill="#FFCD00" d="M121.159 53.15c.916 0 1.469.129 1.66.385.207.257.389 1.077.544 2.461.087.752.355 1.128.804 1.128.346 0 .675-.248.986-.743 1.383-2.136 3.19-3.205 5.421-3.205 1.573 0 2.862.505 3.865 1.513.484.495.882 1.136 1.193 1.922.311.77.467 1.513.467 2.23 0 .803-.191 1.632-.571 2.487-.38.837-.873 1.53-1.478 2.076-1.107 1.042-2.465 1.564-4.073 1.564-.882 0-1.625-.154-2.23-.462-.588-.307-1.366-.931-2.335-1.87-.363-.36-.7-.54-1.011-.54-.484 0-.804.274-.96.821-.138.53-.207 1.657-.207 3.383 0 2.58.095 4.341.285 5.281.121.513.285.871.493 1.077.225.188.691.384 1.4.589 1.557.462 2.335 1.265 2.335 2.41 0 .7-.251 1.315-.752 1.845-.502.513-1.168.855-1.998 1.025-1.66.342-4.098.513-7.314.513-3.061 0-5.386-.265-6.977-.795-1.418-.478-2.127-1.307-2.127-2.486 0-.888.519-1.683 1.556-2.384.502-.325.848-.615 1.038-.871.19-.274.32-.641.389-1.103.276-1.554.415-4.434.415-8.638 0-.769-.087-1.316-.26-1.64-.172-.342-.518-.615-1.037-.82-1.228-.479-1.842-1.171-1.842-2.077 0-.82.424-1.52 1.271-2.102.848-.598 2.265-1.187 4.254-1.768 2.663-.786 4.928-1.188 6.796-1.205z"/>
  <path fill="#FFCD00" fill-rule="evenodd" d="M164.385 52.356c-.329-.495-.709-.743-1.141-.743-.225 0-.545.154-.96.461-1.867 1.47-3.744 2.205-5.628 2.205-.588 0-1.669-.154-3.243-.462-1.66-.341-3.164-.512-4.513-.512-3.389 0-6.475.897-9.259 2.691-1.124.735-2.006 1.624-2.646 2.666-.623 1.043-.934 2.136-.934 3.281 0 2.17.891 4.067 2.672 5.69.519.479.778.838.778 1.077 0 .205-.208.41-.623.615a6.953 6.953 0 00-2.49 2.025c-.657.872-.985 1.718-.985 2.538 0 1.23.692 2.418 2.075 3.563.432.359.648.632.648.82 0 .24-.259.462-.778.667-.57.239-1.046.64-1.426 1.204a3.343 3.343 0 00-.545 1.846c0 .957.328 1.88.985 2.768.658.889 1.539 1.607 2.646 2.153 2.386 1.162 5.499 1.743 9.338 1.743 3.043 0 5.723-.358 8.04-1.076 2.957-.923 5.196-2.341 6.718-4.255 1.28-1.624 1.919-3.298 1.919-5.024a5.93 5.93 0 00-.068-.909l.031.037c.38.428.873.727 1.478.897 1.781.479 4.194.718 7.237.718 5.655 0 8.481-1.102 8.481-3.306 0-.41-.094-.744-.285-1-.172-.274-.528-.598-1.063-.974-.657-.462-1.098-.966-1.322-1.513-.209-.546-.312-1.41-.312-2.589V54.766c0-1.06-.476-1.59-1.427-1.59-1.21 0-2.922.257-5.135.77a48.142 48.142 0 00-6.225 1.87c-1.401.53-2.101 1.334-2.101 2.41 0 .906.536 1.59 1.608 2.05.864.377 1.349.915 1.452 1.616.035.256.087 1.162.156 2.717.086 1.538.13 2.589.13 3.153 0 1.76-.113 3.084-.338 3.973-.224.888-.605 1.53-1.141 1.922-.778.564-1.262.974-1.452 1.23-.161.217-.254.506-.279.868a6.143 6.143 0 00-.229-.432 5.564 5.564 0 00-2.127-2.153c-1.124-.666-2.706-1-4.746-1-1.349 0-3.441.197-6.277.59-1.349.188-2.369.282-3.061.282-1.02 0-1.832-.162-2.438-.487-.588-.342-.882-.803-.882-1.384 0-.906.459-1.359 1.375-1.359.242 0 .588.026 1.038.077.553.069 1.115.103 1.686.103 2.351 0 4.504-.342 6.458-1.026 1.971-.683 3.579-1.64 4.824-2.87 1.384-1.385 2.075-3.094 2.075-5.127 0-.29-.026-.615-.078-.974a12.87 12.87 0 01-.051-.615c0-.205.198-.479.596-.82.623-.53 1.15-1.24 1.582-2.128.45-.889.675-1.683.675-2.384 0-.65-.165-1.213-.493-1.692zm-17.326 5.537c.536-.65 1.236-.974 2.101-.974 1.02.034 1.807.564 2.36 1.59.571 1.007.856 2.426.856 4.254 0 1.162-.268 2.094-.804 2.794-.536.684-1.262 1.025-2.179 1.025-.934 0-1.686-.555-2.256-1.665-.571-1.111-.856-2.59-.856-4.435 0-1.077.259-1.94.778-2.589zm-4.202 23.095c0-.495.216-.743.648-.743.087 0 .216.017.389.051.381.086.874.154 1.479.205.813.086 1.66.128 2.542.128 1.193 0 2.273-.077 3.242-.23a9.86 9.86 0 011.193-.103c.536 0 .986.145 1.349.436.363.308.544.675.544 1.102 0 .803-.484 1.427-1.452 1.871-.951.445-2.274.667-3.969.667-1.763 0-3.198-.316-4.305-.949-1.107-.615-1.66-1.427-1.66-2.435z" clip-rule="evenodd"/>
  <path fill="#FFCD00" d="M174.074 43.539c1.505 0 2.698.282 3.579.846.882.546 1.324 1.29 1.324 2.23 0 1.315-.666 2.358-1.998 3.127-2.11 1.213-4.66 1.82-7.651 1.82-1.263 0-2.266-.24-3.009-.718-1.003-.615-1.505-1.47-1.505-2.563 0-1.47 1.064-2.623 3.191-3.46 2.161-.855 4.184-1.282 6.069-1.282zM196.939 66.429V58.2c.035-2.547.165-5.35.389-8.408.173-1.965.26-3.221.26-3.768 0-1.675-.683-2.512-2.049-2.512-.864 0-2.248.162-4.15.487-1.902.325-3.45.666-4.643 1.025-1.781.53-3.077 1.111-3.891 1.743-.813.615-1.218 1.342-1.218 2.18 0 .529.129.982.389 1.358.277.358.777.743 1.504 1.153.968.581 1.573 1.47 1.815 2.666s.363 3.879.363 8.049c0 4.101-.138 7.262-.414 9.484-.156 1.299-.571 2.093-1.246 2.384-.726.307-1.201.572-1.426.794-.207.222-.312.539-.312.949 0 .513.2 1.008.598 1.486.398.462.907.804 1.529 1.026 1.35.495 3.692.743 7.029.743 2.958 0 5.059-.188 6.304-.564.673-.188 1.21-.513 1.608-.974.415-.461.622-.974.622-1.538 0-.444-.112-.786-.337-1.025-.208-.24-.631-.496-1.271-.77-.743-.324-1.176-.785-1.297-1.383-.104-.598-.156-2.717-.156-6.357z"/>
</svg>
