<svg xmlns="http://www.w3.org/2000/svg" fill="none" viewBox="0 0 60 60">
  <path fill="#fff" d="M51.602 9.42c7.825 6.852 12.398 28.437 3.62 38.242-11.436 12.773-28.463 17.996-46.43 4.043-18.67-21.432-2.131-39.905 0-42.285 9.385-10.483 26.274-14.479 42.81 0z"/>
  <path fill="#E4F1F4" d="M50.442 14.164C57.484 20.102 61.6 38.81 53.7 47.307c-10.293 11.07-25.617 15.597-41.787 3.504-16.803-18.575-1.918-34.584 0-36.647 8.447-9.085 23.646-12.548 38.529 0z"/>
  <g fill="#ABABAB" opacity=".28">
    <path d="M52.938 24.34c.615-.687.295-2.2-.254-2.68-1.158-1.015-2.342-.735-3 0-.149.167-1.308 1.461 0 2.963 1.26.978 2.453.612 3.254-.283zM56.889 25.865c.548.48.869 1.993.254 2.68-.802.895-1.995 1.26-3.254.283-1.308-1.502-.15-2.796 0-2.963.658-.735 1.841-1.015 3 0zM58.57 31.751c.549.48.87 1.993.254 2.68-.801.895-1.994 1.261-3.253.283-1.309-1.502-.15-2.796 0-2.963.657-.735 1.84-1.015 3 0zM59.412 37.637c.548.48.869 1.993.253 2.68-.801.895-1.994 1.261-3.253.284-1.309-1.502-.15-2.797 0-2.964.657-.734 1.84-1.014 3 0zM53.525 48.57c.549.48.869 1.992.254 2.679-.802.895-1.995 1.261-3.254.283-1.308-1.502-.149-2.796 0-2.963.658-.734 1.841-1.015 3 0zM52.938 41.158c.615-.687.295-2.2-.254-2.68-1.158-1.014-2.342-.734-3 0-.149.167-1.308 1.462 0 2.963 1.26.978 2.453.612 3.254-.283zM52.938 34.43c.615-.686.295-2.199-.254-2.679-1.158-1.015-2.342-.735-3 0-.149.167-1.308 1.461 0 2.963 1.26.978 2.453.612 3.254-.283zM51.002 26.706c.549.48.87 1.992.254 2.68-.801.895-1.994 1.26-3.253.283-1.309-1.502-.15-2.797 0-2.963.657-.735 1.84-1.015 3 0zM47.052 36.954c.615-.688.294-2.2-.254-2.68-1.159-1.015-2.342-.735-3 0-.15.166-1.308 1.461 0 2.963 1.259.978 2.452.612 3.254-.283zM43.434 40.16c.549.48.87 1.993.254 2.68-.801.895-1.995 1.261-3.254.283-1.308-1.502-.149-2.796 0-2.963.658-.734 1.842-1.014 3 0zM56.302 46.204c.615-.688.294-2.2-.254-2.68-1.159-1.015-2.342-.735-3 0-.15.166-1.308 1.461 0 2.963 1.259.978 2.452.612 3.254-.283zM48.48 43.524c.548.48.869 1.992.254 2.68-.802.895-1.995 1.26-3.254.283-1.308-1.502-.15-2.797 0-2.963.658-.735 1.841-1.015 3 0zM47.893 53.772c.615-.687.294-2.2-.254-2.68-1.159-1.015-2.342-.735-3 0-.15.167-1.308 1.461 0 2.963 1.26.978 2.452.612 3.254-.283zM42.594 54.456c.548.48.868 1.992.253 2.68-.801.895-1.994 1.26-3.253.283-1.309-1.502-.15-2.797 0-2.963.657-.735 1.84-1.015 3 0zM42.847 49.567c.615-.687.295-2.2-.253-2.68-1.16-1.014-2.343-.734-3 0-.15.167-1.309 1.462 0 2.964 1.259.977 2.452.611 3.253-.284zM36.707 54.456c.548.48.869 1.992.254 2.68-.802.895-1.995 1.26-3.254.283-1.308-1.502-.15-2.797 0-2.963.658-.735 1.841-1.015 3 0zM36.96 51.249c.616-.687.295-2.2-.253-2.68-1.159-1.015-2.342-.734-3 0-.15.167-1.308 1.461 0 2.963 1.26.978 2.452.612 3.254-.283z"/>
  </g>
  <path fill="#fff" d="M54 30.571C54 44.38 42.807 52 29 52S4 40.807 4 27 15.193 2 29 2s25 14.764 25 28.571z"/>
  <path fill="#43212C" fill-rule="evenodd" d="M44.174 43.344C47.74 40.482 50 36.278 50 30.57c0-5.88-2.411-12.132-6.392-16.899C39.629 8.91 34.42 6 29 6 17.402 6 8 15.402 8 27s9.402 21 21 21c6.211 0 11.513-1.718 15.174-4.656zM29 52c13.807 0 25-7.621 25-21.429C54 16.764 42.807 2 29 2S4 13.193 4 27s11.193 25 25 25z" clip-rule="evenodd"/>
  <g fill="#ABABAB" opacity=".24">
    <path d="M36.684 7.66c.549.48.869 1.993.254 2.68-.802.895-1.995 1.261-3.254.283-1.308-1.502-.15-2.796 0-2.963.658-.734 1.841-1.015 3 0zM41.142 14.544c.616-.687.295-2.2-.253-2.68-1.159-1.014-2.343-.734-3 0-.15.167-1.309 1.462 0 2.964 1.259.978 2.452.612 3.253-.284zM42.824 20.43c.615-.686.295-2.199-.253-2.679-1.16-1.015-2.343-.735-3 0-.15.167-1.309 1.461 0 2.963 1.259.978 2.452.612 3.253-.283zM43.665 26.317c.615-.687.295-2.2-.254-2.68-1.158-1.014-2.342-.734-3 0-.149.167-1.308 1.462 0 2.964 1.26.977 2.453.611 3.254-.284zM37.779 37.249c.615-.687.295-2.2-.254-2.68-1.159-1.015-2.342-.734-3 0-.149.167-1.308 1.461 0 2.963 1.26.978 2.453.612 3.254-.283zM36.684 24.478c.549.48.869 1.993.254 2.68-.802.895-1.995 1.261-3.254.284-1.308-1.502-.15-2.797 0-2.964.658-.734 1.841-1.014 3 0zM36.684 17.751c.549.48.869 1.993.254 2.68-.802.895-1.995 1.261-3.254.283-1.308-1.502-.15-2.796 0-2.963.658-.735 1.841-1.015 3 0zM35.256 15.385c.615-.687.295-2.2-.254-2.68-1.158-1.014-2.342-.734-3 0-.149.167-1.308 1.462 0 2.964 1.26.977 2.453.611 3.254-.284zM30.798 20.274c.548.48.869 1.992.254 2.68-.802.895-1.995 1.26-3.254.283-1.308-1.502-.15-2.796 0-2.963.658-.735 1.841-1.015 3 0zM27.688 28.84c.615-.687.295-2.2-.254-2.68-1.159-1.015-2.342-.735-3 0-.15.167-1.308 1.461 0 2.963 1.26.978 2.452.612 3.254-.283zM40.048 29.524c.548.48.869 1.992.254 2.68-.802.895-1.995 1.26-3.254.283-1.308-1.502-.15-2.797 0-2.963.658-.735 1.841-1.015 3 0zM21.733 18.204c.616-.688.295-2.2-.253-2.68-1.159-1.015-2.342-.735-3 0-.15.167-1.308 1.461 0 2.963 1.259.978 2.452.612 3.253-.283zM29.639 42.092c.548.48.869 1.993.253 2.68-.801.895-1.994 1.26-3.253.283-1.308-1.502-.15-2.796 0-2.963.658-.735 1.841-1.015 3 0zM26.847 48.135c.615-.687.295-2.2-.254-2.68-1.158-1.014-2.342-.734-3 0-.149.167-1.308 1.462 0 2.964 1.26.978 2.453.612 3.254-.284zM18.593 20.887c.549.48.87 1.993.254 2.68-.801.895-1.995 1.261-3.254.284-1.308-1.502-.149-2.797 0-2.964.658-.734 1.842-1.014 3 0zM20.96 43.135c.616-.687.295-2.2-.253-2.68-1.159-1.014-2.342-.734-3 0-.15.167-1.308 1.462 0 2.964 1.259.978 2.452.612 3.253-.284z"/>
  </g>
</svg>
