<svg xmlns="http://www.w3.org/2000/svg" fill="none" viewBox="0 0 112 100">
  <path fill="#E60053" d="M62.2 1.3l.6-.8-.6.8zM1.8 96.7l-1 .1h1zm100.7 1a1 1 0 000-2v2zM110 99a1 1 0 101.9-.8l-1.9.8zM62.8.5c-.3-.3-.7-.3-1-.2l-.5.2-1 .8L58.2 4c-1.9 2.4-4.4 6-7.3 10.4A2323 2323 0 001.1 96a5 5 0 00-.2.5v.4l2-.2a1 1 0 01-.1.3v-.2l.5-.9 1.8-3.2 6.6-11.2a2320.1 2320.1 0 0140.8-65.8 222 222 0 019.3-13l.5-.4c-.2 0-.5 0-.7-.2L62.8.5zm39.7 95.2a3698 3698 0 01-89 .6A268.5 268.5 0 012.3 96l.2.1c.1.1.3.3.3.6l-2 .2c0 .3.2.5.3.7l.3.2.4.1.7.1 2.4.2 8.6.2a3698.9 3698.9 0 0089-.6v-2zm9.4 2.5A1991.7 1991.7 0 0064 2 18.3 18.3 0 0062.8.5L61.6 2l.1.3.6.8 1.7 3 5.3 9.9A1988.5 1988.5 0 01110 99l1.9-.8z" opacity=".7"/>
  <path fill="#fddb12" d="M83 21.2c-.2 4.1-4.6 8.6-9.5 8.8-5 .2-9.6-4.3-9.5-8.8.1-4.5 3.6-9 9.5-9.2 5.9-.2 9.7 5 9.5 9.2z" opacity=".7"/>
</svg>
