<svg width="25" height="25" viewBox="0 0 25 25" fill="none" xmlns="http://www.w3.org/2000/svg">
<rect width="25" height="25" rx="12.5" fill="#D11142"/>
<path d="M7.13257 11.9219C6.53714 11.5725 5.77124 11.772 5.42188 12.3674C5.07252 12.9629 5.272 13.7288 5.86743 14.0781L7.13257 11.9219ZM11.7391 18L10.7337 18.7427C10.9866 19.0851 11.3965 19.2753 11.8214 19.2473C12.2462 19.2193 12.6276 18.9769 12.8334 18.6042L11.7391 18ZM18.5719 8.64312C18.9271 8.05114 18.7351 7.28332 18.1431 6.92813C17.5511 6.57295 16.7833 6.7649 16.4281 7.35688L18.5719 8.64312ZM14.5 13L13.4281 12.3569L13.4057 12.3958L14.5 13ZM5.86743 14.0781C7.0724 14.7851 8.28313 15.9282 9.22407 16.948C9.68634 17.449 10.0676 17.9027 10.3324 18.23C10.4645 18.3934 10.5671 18.5245 10.6355 18.6135C10.6698 18.6579 10.6954 18.6917 10.712 18.7137C10.7202 18.7247 10.7262 18.7327 10.7299 18.7376C10.7317 18.74 10.7329 18.7417 10.7336 18.7425C10.7339 18.7429 10.734 18.7432 10.7341 18.7432C10.7341 18.7432 10.734 18.7432 10.734 18.7431C10.7339 18.743 10.7339 18.7429 10.7338 18.7429C10.7338 18.7428 10.7337 18.7427 11.7391 18C12.7446 17.2573 12.7445 17.2572 12.7444 17.257C12.7443 17.2569 12.7442 17.2568 12.7441 17.2566C12.7438 17.2563 12.7436 17.256 12.7433 17.2556C12.7427 17.2548 12.7419 17.2538 12.741 17.2525C12.7392 17.2501 12.7368 17.2469 12.7338 17.2428C12.7278 17.2348 12.7193 17.2235 12.7086 17.2092C12.687 17.1806 12.6561 17.1398 12.6163 17.0882C12.5368 16.9849 12.4219 16.838 12.2761 16.6577C11.9848 16.2977 11.5679 15.8016 11.0614 15.2527C10.0649 14.1727 8.6561 12.8158 7.13257 11.9219L5.86743 14.0781ZM12.8334 18.6042L15.5943 13.6042L13.4057 12.3958L10.6449 17.3958L12.8334 18.6042ZM15.5719 13.6431L18.5719 8.64312L16.4281 7.35688L13.4281 12.3569L15.5719 13.6431Z" fill="white"/>
</svg>
