<svg width="271" height="79" viewBox="0 0 271 79" fill="none" xmlns="http://www.w3.org/2000/svg">
<g clip-path="url(#clip0)">
<path opacity="0.6" d="M62.6018 18.3169C62.3447 26.4266 53.8607 35.321 44.6055 35.7134C35.3502 35.975 26.3521 27.0806 26.6092 18.1861C26.9948 9.42251 33.4221 0.39727 44.6055 0.00486861C55.7889 -0.256733 62.8589 10.0765 62.6018 18.3169Z" fill="#002E62"/>
<path opacity="0.8" d="M42.0348 72.7299C42.0348 72.2067 62.8591 33.0974 65.1729 35.4518C67.3582 37.8062 84.4547 73.2532 84.4547 73.2532C84.4547 73.2532 42.0348 73.2531 42.0348 72.7299Z" fill="#002E62"/>
<path opacity="0.3" d="M47.1761 49.0554C41.7433 59.4507 35.5559 69.4193 28.6656 78.8779L0 61.8738L17.0965 33.2285C17.0965 33.2285 47.8188 47.6166 47.1761 48.9246V49.0554Z" fill="#002E62"/>
<path d="M108.045 40.7998H115.705L105.867 68.5659H98.3312L88.5428 40.7998H96.5538L102.237 61.2805L108.045 40.7998Z" fill="#002E62"/>
<path d="M126.424 46.0473C124.771 46.0473 123.486 46.5738 122.568 47.6267C121.667 48.6796 121.1 50.1061 120.866 51.9062H131.956C131.839 49.9872 131.264 48.5352 130.229 47.5503C129.211 46.5483 127.942 46.0473 126.424 46.0473ZM126.424 40.061C128.693 40.061 130.738 40.4941 132.557 41.3602C134.376 42.2263 135.878 43.5934 137.063 45.4614C138.131 47.1087 138.824 49.0192 139.141 51.193C139.325 52.4667 139.4 54.3007 139.366 56.6953H120.691C120.791 59.4804 121.65 61.4333 123.269 62.5542C124.254 63.2505 125.439 63.5986 126.824 63.5986C128.293 63.5986 129.486 63.174 130.404 62.3249C130.905 61.8664 131.347 61.2295 131.731 60.4144H139.016C138.832 62.0617 137.99 63.7344 136.487 65.4327C134.151 68.1329 130.88 69.483 126.674 69.483C123.203 69.483 120.14 68.3452 117.486 66.0695C114.833 63.7939 113.506 60.0917 113.506 54.9631C113.506 50.157 114.699 46.4719 117.086 43.9075C119.489 41.3432 122.602 40.061 126.424 40.061Z" fill="#002E62"/>
<path d="M155.217 40.1375C158.038 40.1375 160.341 40.8932 162.127 42.4046C163.929 43.899 164.83 46.387 164.83 49.8683V68.5659H157.52V51.677C157.52 50.2165 157.328 49.0957 156.945 48.3145C156.244 46.8879 154.908 46.1747 152.939 46.1747C150.519 46.1747 148.858 47.2191 147.957 49.3079C147.49 50.4118 147.256 51.8213 147.256 53.5365V68.5659H140.147V40.8507H147.031V44.901C147.949 43.4745 148.817 42.4471 149.635 41.8187C151.103 40.6979 152.964 40.1375 155.217 40.1375Z" fill="#002E62"/>
<path d="M164.534 46.2256V41.0545H168.339V33.3105H175.399V41.0545H179.83V46.2256H175.399V60.8984C175.399 62.0362 175.541 62.7495 175.824 63.0382C176.108 63.3099 176.976 63.4457 178.428 63.4457C178.645 63.4457 178.87 63.4457 179.104 63.4457C179.354 63.4288 179.596 63.4118 179.83 63.3948V68.8207L176.45 68.948C173.079 69.0669 170.776 68.4725 169.541 67.1649C168.74 66.3327 168.339 65.0506 168.339 63.3184V46.2256H164.534Z" fill="#002E62"/>
<path d="M187.419 40.7998V57.5359C187.419 59.1152 187.603 60.304 187.97 61.1022C188.621 62.5117 189.898 63.2165 191.8 63.2165C194.237 63.2165 195.906 62.2145 196.807 60.2106C197.274 59.1237 197.508 57.6887 197.508 55.9056V40.7998H204.743V68.5659H197.809V64.643C197.742 64.7279 197.575 64.9827 197.308 65.4072C197.041 65.8318 196.724 66.2054 196.357 66.528C195.238 67.547 194.154 68.2433 193.102 68.6169C192.067 68.9905 190.849 69.1773 189.447 69.1773C185.408 69.1773 182.688 67.6998 181.286 64.7449C180.501 63.1146 180.109 60.7116 180.109 57.5359V40.7998H187.419Z" fill="#002E62"/>
<path d="M222.371 40.1375C222.505 40.1375 222.613 40.1459 222.697 40.1629C222.797 40.1629 223.005 40.1714 223.323 40.1884V47.6267C222.872 47.5757 222.471 47.5418 222.121 47.5248C221.77 47.5078 221.487 47.4993 221.27 47.4993C218.399 47.4993 216.471 48.4503 215.487 50.3523C214.936 51.4222 214.661 53.0695 214.661 55.2942V68.5659H207.476V40.7998H214.285V45.6397C215.387 43.7887 216.346 42.5235 217.164 41.8442C218.499 40.7064 220.235 40.1375 222.371 40.1375Z" fill="#002E62"/>
<path d="M234.191 46.0473C232.539 46.0473 231.254 46.5738 230.336 47.6267C229.435 48.6796 228.867 50.1061 228.634 51.9062H239.724C239.607 49.9872 239.031 48.5352 237.997 47.5503C236.979 46.5483 235.71 46.0473 234.191 46.0473ZM234.191 40.061C236.461 40.061 238.506 40.4941 240.325 41.3602C242.144 42.2263 243.646 43.5934 244.831 45.4614C245.899 47.1087 246.592 49.0192 246.909 51.193C247.092 52.4667 247.168 54.3007 247.134 56.6953H228.459C228.559 59.4804 229.418 61.4333 231.037 62.5542C232.022 63.2505 233.207 63.5986 234.592 63.5986C236.061 63.5986 237.254 63.174 238.172 62.3249C238.673 61.8664 239.115 61.2295 239.499 60.4144H246.784C246.6 62.0617 245.757 63.7344 244.255 65.4327C241.919 68.1329 238.647 69.483 234.442 69.483C230.97 69.483 227.908 68.3452 225.254 66.0695C222.601 63.7939 221.274 60.0917 221.274 54.9631C221.274 50.157 222.467 46.4719 224.854 43.9075C227.257 41.3432 230.369 40.061 234.191 40.061Z" fill="#002E62"/>
<path d="M253.422 59.7011C253.572 60.9918 253.897 61.9088 254.398 62.4523C255.283 63.4203 256.918 63.9043 259.305 63.9043C260.707 63.9043 261.817 63.692 262.634 63.2674C263.469 62.8429 263.886 62.206 263.886 61.3569C263.886 60.5418 263.552 59.9219 262.885 59.4973C262.217 59.0728 259.739 58.3425 255.45 57.3066C252.362 56.5254 250.184 55.5489 248.916 54.3772C247.647 53.2224 247.013 51.5581 247.013 49.3844C247.013 46.82 247.998 44.6208 249.967 42.7867C251.953 40.9356 254.74 40.0101 258.328 40.0101C261.733 40.0101 264.504 40.7064 266.64 42.0989C268.793 43.4745 270.028 45.8605 270.345 49.257H263.21C263.11 48.323 262.851 47.5842 262.434 47.0408C261.65 46.0558 260.315 45.5633 258.429 45.5633C256.876 45.5633 255.767 45.8096 255.099 46.3021C254.448 46.7945 254.123 47.3719 254.123 48.0343C254.123 48.8664 254.473 49.4693 255.174 49.8429C255.875 50.2335 258.354 50.9043 262.609 51.8553C265.447 52.5346 267.574 53.562 268.993 54.9376C270.395 56.3301 271.096 58.0708 271.096 60.1597C271.096 62.9108 270.086 65.161 268.067 66.9101C266.064 68.6424 262.96 69.5085 258.754 69.5085C254.465 69.5085 251.294 68.5914 249.241 66.7573C247.205 64.9062 246.187 62.5542 246.187 59.7011H253.422Z" fill="#002E62"/>
<path d="M81.9631 15.922H78.0355V12.2852H81.9631V15.922ZM78.0355 17.7198H81.9631V32.7928H78.0355V17.7198Z" fill="#002E62"/>
<path d="M88.9641 17.3602C89.8611 17.3602 90.6583 17.563 91.356 17.9687C92.0536 18.3651 92.6198 18.9182 93.0547 19.6281V12.4373H96.9822V32.7928H93.2178V30.7047C92.6651 31.599 92.0355 32.2489 91.3288 32.6545C90.6221 33.0602 89.7433 33.263 88.6923 33.263C86.9618 33.263 85.5032 32.5531 84.3163 31.1334C83.1385 29.7044 82.5496 27.8745 82.5496 25.6435C82.5496 23.0714 83.1294 21.0478 84.2891 19.5728C85.4579 18.0977 87.0162 17.3602 88.9641 17.3602ZM89.8067 29.9441C90.903 29.9441 91.7365 29.5293 92.3073 28.6996C92.878 27.8699 93.1634 26.7959 93.1634 25.4775C93.1634 23.6337 92.7059 22.3154 91.7908 21.5226C91.2291 21.0432 90.5768 20.8035 89.8339 20.8035C88.7014 20.8035 87.8678 21.2414 87.3333 22.1172C86.8078 22.9838 86.5451 24.0624 86.5451 25.3531C86.5451 26.7452 86.8123 27.8606 87.3469 28.6996C87.8905 29.5293 88.7104 29.9441 89.8067 29.9441Z" fill="#002E62"/>
<path d="M104.133 20.5684C103.236 20.5684 102.538 20.8542 102.04 21.4258C101.551 21.9974 101.243 22.7718 101.116 23.749H107.136C107.073 22.7072 106.76 21.919 106.198 21.3843C105.646 20.8404 104.957 20.5684 104.133 20.5684ZM104.133 17.3187C105.365 17.3187 106.475 17.5538 107.462 18.024C108.45 18.4941 109.265 19.2363 109.909 20.2504C110.488 21.1446 110.864 22.1817 111.037 23.3618C111.136 24.0532 111.177 25.0489 111.159 26.3487H101.021C101.075 27.8606 101.542 28.9208 102.42 29.5293C102.955 29.9073 103.598 30.0963 104.35 30.0963C105.148 30.0963 105.795 29.8658 106.294 29.4048C106.565 29.1559 106.805 28.8102 107.014 28.3677H110.969C110.869 29.2619 110.411 30.17 109.596 31.0919C108.328 32.5577 106.552 33.2906 104.269 33.2906C102.384 33.2906 100.722 32.673 99.2811 31.4376C97.8406 30.2023 97.1203 28.1925 97.1203 25.4084C97.1203 22.7994 97.7681 20.7989 99.0637 19.4068C100.368 18.0148 102.058 17.3187 104.133 17.3187Z" fill="#002E62"/>
<path d="M119.723 25.4637C119.478 25.6204 119.229 25.7495 118.975 25.8509C118.731 25.9431 118.391 26.0307 117.956 26.1136L117.086 26.2796C116.271 26.4271 115.687 26.6069 115.333 26.8189C114.735 27.1784 114.436 27.7362 114.436 28.4922C114.436 29.1651 114.617 29.6537 114.98 29.958C115.351 30.253 115.8 30.4005 116.325 30.4005C117.159 30.4005 117.924 30.1516 118.622 29.6537C119.329 29.1559 119.696 28.2478 119.723 26.9295V25.4637ZM117.372 23.6245C118.087 23.5323 118.599 23.4171 118.907 23.2788C119.46 23.0391 119.736 22.6657 119.736 22.1587C119.736 21.541 119.523 21.117 119.098 20.8865C118.681 20.6468 118.065 20.5269 117.249 20.5269C116.334 20.5269 115.687 20.7574 115.306 21.2184C115.034 21.5595 114.853 22.0204 114.762 22.6012H111.025C111.107 21.2829 111.469 20.1997 112.112 19.3515C113.136 18.024 114.894 17.3602 117.385 17.3602C119.007 17.3602 120.448 17.6875 121.707 18.342C122.966 18.9966 123.596 20.2319 123.596 22.0481V28.9623C123.596 29.4417 123.605 30.0225 123.623 30.7047C123.65 31.221 123.727 31.5713 123.854 31.7557C123.981 31.9401 124.171 32.0922 124.425 32.212V32.7928H120.212C120.094 32.4886 120.013 32.2028 119.967 31.9354C119.922 31.6681 119.886 31.3639 119.859 31.0228C119.324 31.6128 118.708 32.1152 118.01 32.5301C117.177 33.0187 116.235 33.263 115.184 33.263C113.843 33.263 112.733 32.8758 111.854 32.1014C110.984 31.3178 110.549 30.2115 110.549 28.7825C110.549 26.9295 111.252 25.5882 112.656 24.7585C113.426 24.3067 114.559 23.9841 116.053 23.7905L117.372 23.6245Z" fill="#002E62"/>
<path d="M127.838 27.9805C127.92 28.6811 128.096 29.179 128.368 29.474C128.848 29.9995 129.736 30.2622 131.032 30.2622C131.793 30.2622 132.395 30.147 132.839 29.9165C133.292 29.686 133.519 29.3403 133.519 28.8793C133.519 28.4368 133.338 28.1003 132.975 27.8699C132.613 27.6394 131.267 27.243 128.939 26.6806C127.263 26.2565 126.081 25.7265 125.392 25.0903C124.703 24.4634 124.359 23.56 124.359 22.38C124.359 20.9879 124.894 19.794 125.963 18.7984C127.041 17.7935 128.554 17.2911 130.502 17.2911C132.35 17.2911 133.854 17.669 135.014 18.425C136.182 19.1717 136.853 20.467 137.025 22.3108H133.152C133.098 21.8038 132.957 21.4027 132.731 21.1077C132.305 20.573 131.58 20.3057 130.556 20.3057C129.714 20.3057 129.111 20.4394 128.749 20.7067C128.395 20.9741 128.219 21.2875 128.219 21.647C128.219 22.0988 128.409 22.4261 128.789 22.6289C129.17 22.8409 130.515 23.2051 132.826 23.7213C134.366 24.0901 135.521 24.6478 136.291 25.3946C137.052 26.1505 137.433 27.0955 137.433 28.2294C137.433 29.7229 136.885 30.9444 135.788 31.894C134.701 32.8343 133.016 33.3045 130.733 33.3045C128.404 33.3045 126.683 32.8066 125.569 31.811C124.463 30.8061 123.911 29.5293 123.911 27.9805H127.838Z" fill="#002E62"/>
<path d="M150.835 28.4783H148.606V32.7928H144.814V28.4783H137.014V25.035L144.257 12.866H148.606V25.3946H150.835V28.4783ZM144.814 25.3946V16.7379L139.881 25.3946H144.814Z" fill="#002E62"/>
<path d="M150.416 32.7928C150.452 31.3546 150.755 30.0409 151.326 28.8517C151.879 27.5149 153.183 26.0998 155.24 24.6063C157.025 23.3065 158.18 22.3753 158.706 21.813C159.512 20.9372 159.915 19.9784 159.915 18.9367C159.915 18.0885 159.684 17.3833 159.222 16.8209C158.76 16.2585 158.099 15.9774 157.238 15.9774C156.06 15.9774 155.258 16.4245 154.832 17.3187C154.588 17.835 154.443 18.6555 154.397 19.7802H150.633C150.696 18.0747 151 16.6964 151.544 15.6455C152.576 13.645 154.411 12.6447 157.048 12.6447C159.131 12.6447 160.789 13.2347 162.022 14.4147C163.254 15.5856 163.87 17.139 163.87 19.0749C163.87 20.5592 163.435 21.8775 162.565 23.0299C161.994 23.7951 161.057 24.6478 159.752 25.5882L158.203 26.7083C157.233 27.4089 156.567 27.916 156.205 28.2294C155.852 28.5429 155.553 28.907 155.308 29.3219H163.911V32.7928H150.416Z" fill="#002E62"/>
</g>
<defs>
<clipPath id="clip0">
<rect width="271" height="79" fill="white"/>
</clipPath>
</defs>
</svg>
