<?xml version="1.0" encoding="utf-8"?>
<!-- Generator: Adobe Illustrator 25.2.3, SVG Export Plug-In . SVG Version: 6.00 Build 0)  -->
<svg version="1.1" id="Layer_1" xmlns="http://www.w3.org/2000/svg" xmlns:xlink="http://www.w3.org/1999/xlink" x="0px" y="0px"
	 viewBox="0 0 100 100" style="enable-background:new 0 0 100 100;" xml:space="preserve">
<style type="text/css">
	.st0{fill:#09488F;}
</style>
<path class="st0" d="M46.3,41L35.5,51c1.7,4.5,1.9,9.3,0.5,13.9c-0.3,1.3-1.7,2.1-3,1.8c-1.3-0.3-2.1-1.7-1.8-3c0-0.1,0-0.1,0-0.2
	c1.1-4,0.8-8.3-1-12c-0.5-1-0.2-2.2,0.6-2.9l12.1-11.2c1.4-1.3,1.5-3.5,0.2-4.9c0,0-0.1-0.1-0.1-0.1c-1.3-1.3-3.3-1.4-4.7-0.2
	l-19,16.1c-1,1-2.5,1-3.5,0.1s-1-2.5-0.1-3.5c0.1-0.1,0.3-0.3,0.4-0.4l19-16.2c3.4-2.9,8.4-2.6,11.5,0.5c3.3,3.3,3.2,8.7-0.1,12
	C46.4,40.9,46.3,41,46.3,41z M38.5,86.8c-1.4,0-2.5,1.1-2.5,2.5s1.1,2.5,2.5,2.5s2.5-1.1,2.5-2.5S39.9,86.8,38.5,86.8z M29.3,26
	c0.2,0,0.4,0,0.5-0.1c6-1.4,10.7-6,12.1-12c0.3-1.4-0.5-2.7-1.9-3c-1.4-0.3-2.7,0.5-3,1.9c-0.9,4.1-4.2,7.4-8.3,8.3
	c-1.3,0.4-2.1,1.8-1.7,3.1C27.3,25.2,28.2,25.9,29.3,26z M86,32.8c-5.3,1.8-9.3,6.2-10.6,11.7c-0.3,1.3,0.5,2.7,1.9,3s2.7-0.5,3-1.9
	c0.9-3.8,3.6-6.8,7.3-8c1.3-0.4,2-1.9,1.6-3.2C88.7,33.1,87.3,32.4,86,32.8L86,32.8z M87.6,20.8c-3.7-1.2-6.4-4.2-7.3-8
	c-0.3-1.3-1.6-2.2-3-1.9s-2.2,1.6-1.9,3c1.2,5.5,5.3,9.9,10.6,11.7c1.3,0.4,2.7-0.3,3.2-1.6C89.6,22.7,88.9,21.3,87.6,20.8
	L87.6,20.8z M92.8,2.4H24.6c-3.4,0-6.2,2.8-6.2,6.2v11.8l-7.3,7.2c-3.7,3.7-5.8,8.8-5.8,14.1v36H3.5c-1.4,0-2.5,1.1-2.5,2.5
	c0,0,0,0,0,0v14.8c0,1.4,1.1,2.5,2.5,2.5S6,96.5,6,95.1V82.8h41.3v12.3c0,1.4,1.1,2.5,2.5,2.5s2.5-1.1,2.5-2.5V80.3
	c0-1.4-1.1-2.5-2.5-2.5h-3.7v-2.4c4.5-3.3,7.4-8.2,8.1-13.7c0.2-1.4-0.8-2.6-2.2-2.8s-2.6,0.8-2.8,2.2c-0.6,4.5-3.1,8.5-7,10.9
	c-0.7,0.5-1.1,1.3-1.1,2.1v3.8H10.3v-36c0-4,1.6-7.8,4.4-10.5l3.7-3.7v4.9c0,1.4,1.1,2.5,2.5,2.5s2.5-1.1,2.5-2.5V8.6
	c0-0.7,0.5-1.2,1.2-1.2l0,0h68.2C93.5,7.4,94,8,94,8.6v41.1c0,0.7-0.5,1.2-1.2,1.2H44c-1.4,0-2.5,1.1-2.5,2.5s1.1,2.5,2.5,2.5h48.8
	c3.4,0,6.2-2.8,6.2-6.2V8.6C99,5.2,96.2,2.4,92.8,2.4L92.8,2.4z M89.8,60c-1.3-0.5-2.7,0.2-3.2,1.5c0,0,0,0,0,0L85,65.9
	c-0.2,0.6-0.9,0.9-1.6,0.7l-21.1-7.7c-1.3-0.5-2.7,0.2-3.2,1.5c-0.5,1.3,0.2,2.7,1.5,3.2l21.2,7.7c3.2,1.2,6.8-0.4,8-3.7
	c0,0,0,0,0,0l1.6-4.4C91.8,61.9,91.1,60.5,89.8,60C89.8,60,89.8,60,89.8,60z M76.9,75.9l-3.2,3.4c-0.2,0.2-0.5,0.4-0.8,0.4
	c-0.3,0-0.6-0.1-0.9-0.3L59.6,67.7c-1-0.9-2.6-0.9-3.5,0.1c-0.9,1-0.9,2.6,0.1,3.5L68.6,83c1.2,1.1,2.7,1.7,4.3,1.7H73
	c1.6,0,3.2-0.7,4.3-1.9l3.2-3.4c0.9-1,0.9-2.6-0.1-3.5C79.4,74.9,77.8,74.9,76.9,75.9C76.9,75.9,76.9,75.9,76.9,75.9z M56.5,35.6
	c-1.3-0.5-2.7,0.2-3.2,1.5c-0.4,1.2,0.2,2.6,1.4,3.1c6.1,2.3,13-0.7,15.3-6.9c2.3-6.1-0.7-13-6.9-15.3c-4.9-1.9-10.5-0.3-13.7,3.9
	c-0.8,1.1-0.6,2.7,0.5,3.5s2.7,0.6,3.5-0.5c2.3-3,6.6-3.6,9.6-1.3s3.6,6.6,1.3,9.6C62.6,35.8,59.4,36.7,56.5,35.6L56.5,35.6z
	 M73.3,29.2c0,1.4,1.1,2.5,2.5,2.5h3.6c1.4,0,2.5-1.1,2.5-2.5s-1.1-2.5-2.5-2.5h-3.6C74.5,26.7,73.3,27.8,73.3,29.2
	C73.3,29.2,73.3,29.2,73.3,29.2z"/>
</svg>
