<?xml version="1.0" encoding="utf-8"?>
<!-- Generator: Adobe Illustrator 25.2.3, SVG Export Plug-In . SVG Version: 6.00 Build 0)  -->
<svg version="1.1" id="Layer_1" xmlns="http://www.w3.org/2000/svg" xmlns:xlink="http://www.w3.org/1999/xlink" x="0px" y="0px"
	 viewBox="0 0 100 100" style="enable-background:new 0 0 100 100;" xml:space="preserve">
<style type="text/css">
	.st0{fill:#09488F;}
</style>
<path class="st0" d="M50,23.7c6.3,0,11.3-5.1,11.3-11.3S56.3,1,50,1S38.7,6.1,38.7,12.4l0,0C38.7,18.6,43.8,23.7,50,23.7z M50,6
	c3.5,0,6.4,2.8,6.4,6.3s-2.8,6.3-6.4,6.3s-6.3-2.8-6.3-6.3v0C43.7,8.8,46.5,6,50,6z"/>
<path class="st0" d="M30.8,37.2L30.8,37.2l2.3,15.1c0.3,2.9,2,5.5,4.6,6.9l3.7,25c0.3,2.8,2.7,4.9,5.5,4.9h6.3
	c2.8,0,5.2-2.1,5.5-4.9l3.7-25c2.5-1.4,4.2-4,4.6-6.9l2.3-15v-0.1c0.6-5.7-3.5-10.8-9.2-11.5c-0.4,0-0.8-0.1-1.1-0.1H56
	c-0.9,0-1.7,0.4-2.2,1.1L50,31.4l-3.7-4.6c-0.6-0.7-1.4-1.1-2.3-1.1h-2.9c-5.7,0-10.4,4.7-10.3,10.4C30.8,36.5,30.8,36.9,30.8,37.2z
	 M37.1,32.5c1-1.1,2.5-1.8,4-1.8H43l4.2,5.2c0.7,0.8,1.6,1.3,2.7,1.3H50c1,0,2-0.5,2.7-1.3l4.3-5.3h1.9c3,0,5.4,2.4,5.4,5.4
	c0,0.2,0,0.4,0,0.6l-2.3,15v0.1c-0.2,1.6-1.2,2.9-2.8,3.5c-0.9,0.3-1.5,1.1-1.6,2l-3.9,26.3v0.1c0,0.3-0.3,0.5-0.6,0.5h-6.3
	c-0.3,0-0.5-0.2-0.6-0.5v-0.1l-3.9-26.3c-0.1-0.9-0.7-1.7-1.6-2c-1.5-0.5-2.6-1.9-2.8-3.5v-0.1l-2.3-15
	C35.6,35.1,36.1,33.6,37.1,32.5z"/>
<path class="st0" d="M82.9,86.8c0-4.8-5.8-8.6-16.2-10.7c-1.3-0.3-2.7,0.6-2.9,1.9c-0.3,1.3,0.6,2.7,1.9,2.9l0,0
	c9.2,1.9,12.2,4.7,12.2,5.8c0,0.9-1.9,2.8-7.2,4.5C64,93.2,57,94.1,50,94c-7,0.1-14-0.8-20.7-2.7c-5.3-1.7-7.2-3.6-7.2-4.5
	c0-1.1,3-3.9,12.2-5.8c1.3-0.3,2.2-1.6,1.9-2.9c-0.3-1.3-1.6-2.2-2.9-1.9C22.9,78.2,17.1,82,17.1,86.8c0,2.7,1.8,6.4,10.6,9.2
	c7.2,2.1,14.7,3.1,22.2,3c7.5,0.1,15-0.9,22.2-3C81,93.2,82.9,89.4,82.9,86.8z"/>
<path class="st0" d="M77.8,21.2c5.6,0,10.1-4.5,10.1-10.1C87.9,5.5,83.4,1,77.9,1S67.8,5.5,67.8,11.1c0,0,0,0,0,0
	C67.8,16.7,72.3,21.2,77.8,21.2z M77.8,6c2.8,0,5.1,2.3,5.1,5.1s-2.3,5.1-5.1,5.1s-5.1-2.3-5.1-5.1C72.7,8.3,75,6,77.8,6z"/>
<path class="st0" d="M83,23.7c-0.9,0-1.7,0.4-2.2,1.1l-2.9,3.7l-2.9-3.7c-0.9-1.1-2.4-1.3-3.5-0.4s-1.3,2.4-0.4,3.5l4.2,5.2
	c1.2,1.5,3.4,1.7,4.8,0.5c0.2-0.1,0.3-0.3,0.5-0.5l3.5-4.4h1.5c2.4,0,4.3,1.9,4.3,4.3c0,0.1,0,0.3,0,0.4l-2,12.9v0.1
	c-0.1,1.2-1,2.3-2.1,2.7c-0.9,0.3-1.5,1.1-1.6,2l-3.3,23.6c-0.2,1.4,0.8,2.6,2.1,2.8h0.3c1.2,0,2.3-0.9,2.5-2.1l3.1-22.3
	c2.2-1.3,3.7-3.6,3.9-6.1l2-12.9V34c0.6-5.1-3.1-9.7-8.2-10.2c-0.3,0-0.7-0.1-1-0.1H83z"/>
<path class="st0" d="M22.2,21.2c5.6,0,10.1-4.5,10.1-10.1S27.7,1,22.2,1S12.1,5.5,12.1,11.1C12.1,16.7,16.6,21.2,22.2,21.2z M22.2,6
	c2.8,0,5.1,2.3,5.1,5.2s-2.3,5.1-5.2,5.1c-2.8,0-5.1-2.3-5.1-5.1C17,8.3,19.3,6,22.2,6C22.1,6,22.1,6,22.2,6z"/>
<path class="st0" d="M5.3,34.1l2,12.9c0.3,2.5,1.8,4.8,3.9,6.1l3.1,22.3c0.2,1.2,1.2,2.1,2.5,2.1h0.4c1.4-0.2,2.3-1.4,2.1-2.8
	L16,51.1c-0.1-0.9-0.7-1.7-1.6-2c-1.2-0.4-2-1.5-2.1-2.7v-0.1l-2-12.9c-0.2-2.4,1.5-4.5,3.8-4.7c0.1,0,0.3,0,0.4,0H16l3.5,4.4
	c0.6,0.8,1.6,1.3,2.6,1.2h0.1c1,0,2-0.4,2.6-1.2l4.2-5.2c0.8-1.1,0.5-2.7-0.6-3.5c-1-0.7-2.5-0.6-3.3,0.4l-2.9,3.7l-2.9-3.6
	c-0.5-0.7-1.4-1.1-2.3-1.1h-2.5c-5.1,0-9.3,4.2-9.2,9.3c0,0.3,0,0.7,0.1,1L5.3,34.1z"/>
</svg>
