<?xml version="1.0" encoding="utf-8"?>
<!-- Generator: Adobe Illustrator 25.2.3, SVG Export Plug-In . SVG Version: 6.00 Build 0)  -->
<svg version="1.1" id="Layer_1" xmlns="http://www.w3.org/2000/svg" xmlns:xlink="http://www.w3.org/1999/xlink" x="0px" y="0px"
	 viewBox="0 0 100 100" style="enable-background:new 0 0 100 100;" xml:space="preserve">
<style type="text/css">
	.st0{fill:#09488F;}
</style>
<path class="st0" d="M26.6,25c6.6,0,12-5.4,12-12s-5.4-12-12-12s-12,5.4-12,12S20,25,26.6,25z M26.6,6c3.9,0,7,3.1,7,7s-3.1,7-7,7
	s-7-3.1-7-7S22.8,6,26.6,6z"/>
<path class="st0" d="M63.6,27.1c-1.6,0-3.1,0.5-4.3,1.5l-8.9,7l-9-7.4c-1.2-1-2.8-1.6-4.4-1.6h-4.1c-0.9,0-1.7,0.4-2.3,1.1l-4.1,5.1
	l-4-5.1c-0.5-0.7-1.4-1.1-2.3-1.1h-3.1c-6.1,0-11,4.9-11,11c0,0.4,0,0.8,0.1,1.2l0,0l2.5,18.6c0.3,3.1,2.2,5.8,4.9,7.3l4,29.1
	c0.3,2.9,2.8,5.1,5.7,5.1h6.6c2.9,0,5.4-2.2,5.8-5.1L37.5,76l3.9-29.8l4.4,3.7c2.5,2.1,6.2,2.1,8.7,0.1l13.2-10.3
	c2.9-2.2,3.6-6.1,1.8-9.2C68.3,28.4,66,27.1,63.6,27.1z M64.7,35.7L51.5,46.1c-0.8,0.6-1.8,0.6-2.5-0.1l-7.9-6.5
	c-1.1-0.8-2.6-0.7-3.5,0.4c-0.3,0.3-0.4,0.7-0.5,1.2l-4.5,34.3v0.1l-1.9,17.8c0,0.4-0.4,0.7-0.8,0.7h-6.6c-0.4,0-0.8-0.3-0.8-0.7
	v-0.1l-4.2-30.5c-0.1-0.9-0.7-1.7-1.6-2c-1.7-0.6-2.9-2.1-3.1-3.9l0,0l-2.5-18.6c-0.4-3.3,2-6.3,5.3-6.6c0.2,0,0.5,0,0.7,0h2.1
	l4.6,5.7c1.2,1.5,3.4,1.8,4.9,0.6c0.2-0.2,0.4-0.3,0.6-0.6l4.6-5.7H37c0.5,0,0.9,0.2,1.3,0.4l10.5,8.7c0.9,0.7,2.2,0.7,3.1,0
	l10.5-8.2c0.3-0.3,0.8-0.4,1.2-0.4c0.7,0,1.3,0.4,1.7,1C65.7,34,65.5,35.1,64.7,35.7z"/>
<path class="st0" d="M82.5,48.4c-0.5-0.5-1.1-0.7-1.8-0.8c-0.7,0-1.3,0.2-1.8,0.7l-9.3,9.1c-1,1-1,2.5,0,3.5c1,1,2.5,1,3.5,0l5-4.9
	c-0.3,16.1-13.4,29-29.5,29h-0.3c-1.4,0-2.5,1.1-2.5,2.5c0,1.4,1.1,2.5,2.5,2.5l0,0h0.4c18.8,0,34.1-15.2,34.4-34l4.9,5
	c0.9,1,2.5,1.1,3.5,0.1c1-0.9,1.1-2.5,0.1-3.5c0,0-0.1-0.1-0.1-0.1L82.5,48.4z"/>
<path class="st0" d="M48.3,73.7c1,1,2.5,1,3.5,0l3.4-3.4l3.4,3.4c1,0.9,2.6,0.9,3.5-0.1c0.9-1,0.9-2.5,0-3.4l-3.4-3.4l3.4-3.4
	c0.9-1,0.9-2.6-0.1-3.5c-1-0.9-2.5-0.9-3.4,0l-3.4,3.4l-3.4-3.4c-1-0.9-2.6-0.9-3.5,0.1c-0.9,1-0.9,2.5,0,3.4l3.4,3.4l-3.4,3.4
	C47.3,71.2,47.3,72.8,48.3,73.7z"/>
<path class="st0" d="M93.2,82.7c-1-1-2.5-1-3.5,0l-3.4,3.4l-3.4-3.4c-0.9-1-2.5-1-3.5-0.1s-1,2.5-0.1,3.5c0,0,0.1,0.1,0.1,0.1
	l3.4,3.4l-3.4,3.4c-1,0.9-1,2.5-0.1,3.5s2.5,1,3.5,0.1c0,0,0.1-0.1,0.1-0.1l3.4-3.4l3.4,3.4c1,0.9,2.6,0.9,3.5-0.1
	c0.9-1,0.9-2.5,0-3.4l-3.4-3.4l3.4-3.4C94.1,85.3,94.1,83.7,93.2,82.7z"/>
</svg>
