<?xml version="1.0" encoding="utf-8"?>
<!-- Generator: Adobe Illustrator 25.2.3, SVG Export Plug-In . SVG Version: 6.00 Build 0)  -->
<svg version="1.1" id="Layer_1" xmlns="http://www.w3.org/2000/svg" xmlns:xlink="http://www.w3.org/1999/xlink" x="0px" y="0px"
	 viewBox="0 0 100 100" style="enable-background:new 0 0 100 100;" xml:space="preserve">
<style type="text/css">
	.st0{fill:#09488F;}
</style>
<g>
	<path class="st0" d="M2.5,53.8L15,58.1c0.2,0.1,0.4,0.1,0.6,0.1c0.3,0,0.5-0.1,0.7-0.2c0.4-0.2,0.7-0.5,0.9-1l10-29l0.7,0.3
		c2.5,0.9,5.2,0.7,7.6-0.4l1.2-0.6c1.5-0.7,3.3-0.8,4.9-0.3l23.1,8c-0.2,0.9-0.7,2.2-1.6,2.8c-1,0.7-2.5,0.7-4.4,0l-10.3-3.5
		c-0.4-0.2-0.9-0.1-1.4,0.1c-0.4,0.2-0.7,0.6-0.8,1.1c0,0.1-1.4,5.4-6,7.9c-2.9,1.5-6.5,1.6-10.7,0.2c-0.9-0.3-2,0.2-2.3,1.1
		c-0.3,0.9,0.2,2,1.1,2.3c2.4,0.8,4.6,1.2,6.8,1.2c2.5,0,4.6-0.5,6.7-1.6c4.1-2.2,6.2-6.1,7.1-8.3l8.6,3c3.1,1,5.5,0.9,7.6-0.5
		c3.2-2.2,3.3-6.6,3.3-6.8c0-0.7-0.4-1.4-1.1-1.7l-24.5-8.4c-2.5-0.8-5.2-0.7-7.6,0.5l-1.2,0.6c-1.5,0.7-3.3,0.8-4.9,0.3l-2.1-0.7
		c-0.1-0.1-0.2-0.1-0.3-0.2L14.3,20c-0.4-0.1-0.9-0.1-1.3,0.1c-0.4,0.2-0.7,0.5-0.9,1L1.3,51.5c-0.1,0.4-0.1,0.9,0.1,1.3
		C1.6,53.3,2,53.6,2.5,53.8z M14.7,23.6l9.2,3.2l-9.5,27.4L5.2,51L14.7,23.6z M13.1,48.9c-0.4,1.1-1.6,1.7-2.8,1.3S8.6,48.6,9,47.5
		c0.4-1.1,1.6-1.7,2.8-1.3C12.9,46.4,13.6,47.7,13.1,48.9z M83.3,56.2l-4.3,4c-3.9,3.6-8.3,6.6-13,8.9L43.1,80.3
		c-0.5,0.2-1,0.3-1.6,0.1c-0.5-0.2-0.9-0.5-1.2-1c-0.2-0.5-0.3-1-0.1-1.6c0.2-0.5,0.5-0.9,1-1.2l12.7-6.3c0.8-0.4,1.2-1.4,0.8-2.4
		c-0.4-0.8-1.4-1.2-2.4-0.8L40,73.2l0,0l-6.3,3.1c-1,0.5-2.3,0.1-2.8-0.9c-0.5-1-0.1-2.3,0.9-2.8l1.3-0.6l3.4-1.6l0,0l13.7-6.8
		c0.8-0.4,1.2-1.4,0.8-2.4c-0.4-0.8-1.4-1.2-2.4-0.8l-17,8.3l-1.3,0.6l0,0l-2.3,1.1c-0.5,0.2-1,0.3-1.6,0.1c-0.5-0.2-0.9-0.5-1.2-1
		c-0.2-0.5-0.3-1-0.1-1.6c0.2-0.5,0.5-0.9,1-1.2l2.3-1.1l0,0l16.4-8c0.8-0.4,1.2-1.4,0.8-2.4c-0.4-0.8-1.4-1.2-2.4-0.8l-10.6,5.1
		l0,0l-5.9,2.9c-0.5,0.2-1,0.3-1.6,0.1c-0.5-0.2-0.9-0.5-1.2-1c-0.2-0.5-0.3-1-0.1-1.6c0.2-0.5,0.5-0.9,1-1.2l8.7-4.2
		c0.8-0.4,1.2-1.4,0.8-2.4s-1.4-1.2-2.4-0.8l-8.7,4.2c-1.3,0.6-2.4,1.7-2.9,3.2c-0.5,1.4-0.4,3,0.3,4.3c0.4,0.8,1,1.5,1.7,2.1
		c-0.4,0.5-0.7,1-0.9,1.6c-0.5,1.4-0.4,3,0.3,4.3c0.6,1.3,1.7,2.4,3.2,2.9c0.6,0.2,1.2,0.3,1.8,0.3l0,0c0,0.9,0.1,1.8,0.5,2.7
		c0.9,2,3,3.2,5,3.2c0.8,0,1.6-0.2,2.5-0.6l1.3-0.6c0,0.7,0.2,1.4,0.5,2.1c0.6,1.3,1.7,2.4,3.2,2.9c0.6,0.2,1.2,0.3,1.8,0.3
		c0.8,0,1.6-0.2,2.5-0.6l22.8-11.2c5-2.5,9.8-5.7,13.9-9.5l5.1-4.7l11.7-5.8c0.8-0.4,1.2-1.4,0.8-2.4l-14-29
		c-0.4-0.8-1.4-1.2-2.4-0.8l-11.9,5.9c-0.4,0.2-0.7,0.5-0.9,1c-0.1,0.4-0.1,0.9,0.1,1.3L83.3,56.2z M82.4,23.9l12.7,26l-8.8,4.3
		l-12.7-26L82.4,23.9z M86.3,48.8c-0.5-1-0.1-2.3,0.9-2.8c1-0.5,2.3-0.1,2.8,0.9c0.5,1,0.1,2.3-0.9,2.8
		C88.1,50.3,86.8,49.8,86.3,48.8z"/>
	<path class="st0" d="M41.9,84.7c-0.7,0-1.4-0.1-2.1-0.3c-1.6-0.6-2.9-1.7-3.6-3.3c-0.2-0.4-0.4-0.8-0.5-1.3L35.3,80
		c-0.9,0.5-1.8,0.7-2.8,0.7c-2.4,0-4.7-1.5-5.7-3.6c-0.4-0.8-0.5-1.6-0.6-2.3c-0.5-0.1-0.9-0.2-1.4-0.3c-1.6-0.6-2.9-1.7-3.6-3.3
		c-0.8-1.5-0.9-3.2-0.3-4.9c0.1-0.4,0.3-0.8,0.6-1.3c-0.6-0.5-1-1.2-1.4-1.9c-0.8-1.5-0.9-3.2-0.3-4.9c0.6-1.6,1.7-2.9,3.3-3.6
		l8.7-4.2c0.6-0.3,1.3-0.3,1.9-0.1c0.6,0.2,1.2,0.7,1.4,1.3c0.6,1.3,0,2.7-1.2,3.3l-8.7,4.2c-0.3,0.2-0.5,0.4-0.7,0.8
		c-0.1,0.3-0.1,0.6,0.1,1c0.2,0.3,0.5,0.5,0.8,0.7c0.3,0.1,0.6,0.1,1.1-0.1l5.8-2.9L43,53.6c1.3-0.6,2.8-0.1,3.4,1.2
		c0.6,1.3,0.1,2.8-1.2,3.4l-18.7,9.1c-0.3,0.2-0.5,0.4-0.7,0.8c-0.1,0.3-0.1,0.6,0.1,1c0.2,0.3,0.5,0.5,0.8,0.7
		c0.3,0.1,0.6,0.1,1.1-0.1l3.6-1.7l16.9-8.3c1.3-0.6,2.8-0.1,3.4,1.2c0.6,1.3,0.1,2.8-1.2,3.4l-18.4,9.1c-0.3,0.1-0.5,0.4-0.6,0.8
		c-0.1,0.3-0.1,0.7,0.1,1c0.2,0.3,0.4,0.6,0.8,0.7c0.3,0.1,0.7,0.1,1-0.1l18.7-9.2c1.3-0.6,2.8-0.1,3.4,1.2c0.6,1.3,0.1,2.8-1.2,3.4
		l-12.7,6.3c-0.3,0.2-0.5,0.4-0.7,0.8c-0.1,0.3-0.1,0.6,0.1,1c0.2,0.3,0.5,0.5,0.8,0.7c0.3,0.1,0.6,0.1,1.1-0.1l22.8-11.2
		c4.8-2.4,9.1-5.4,12.9-8.8l3.9-3.6L69,28.5c-0.3-0.5-0.3-1.2-0.2-1.8l0-0.1c0.3-0.7,0.7-1.1,1.3-1.4l11.9-5.9
		c1.3-0.6,2.8-0.1,3.4,1.2l14,29c0.6,1.3,0.1,2.8-1.2,3.4l-11.6,5.7l-5.1,4.7c-4.1,3.8-8.8,7-14,9.6L44.7,84
		C43.8,84.4,42.9,84.7,41.9,84.7z M37.1,77.5v1.2c0,0.5,0.2,1.2,0.4,1.7c0.5,1.2,1.5,2.1,2.8,2.5c1.2,0.4,2.5,0.4,3.7-0.3l22.8-11.2
		c5.1-2.5,9.7-5.6,13.7-9.3l5.3-4.8l11.7-5.8c0.4-0.2,0.7-0.8,0.5-1.4l-14-29c-0.2-0.4-0.8-0.7-1.4-0.5l-11.9,5.8
		c-0.3,0.1-0.4,0.3-0.5,0.6c-0.1,0.3,0,0.6,0.1,0.8l13.9,28.5l-4.7,4.4c-3.9,3.6-8.3,6.6-13.2,9.1L43.5,81c-0.6,0.2-1.3,0.4-2.2,0.1
		c-0.7-0.3-1.3-0.7-1.6-1.4l-0.1-0.1c-0.2-0.5-0.4-1.3-0.1-2.2c0.3-0.7,0.7-1.3,1.4-1.6l12.8-6.3c0.4-0.2,0.7-0.8,0.5-1.4
		c-0.2-0.4-0.8-0.7-1.4-0.4L34,77c-1.4,0.7-3.1,0.1-3.8-1.3c-0.7-1.4-0.1-3.1,1.3-3.8l1.4-0.6l3.4-1.6l13.7-6.8
		c0.4-0.2,0.7-0.8,0.5-1.4c-0.2-0.4-0.8-0.7-1.4-0.4L28.5,71.1c-0.6,0.2-1.3,0.4-2.2,0.1c-0.7-0.3-1.3-0.7-1.6-1.4l-0.1-0.1
		c-0.2-0.5-0.4-1.3-0.1-2.2c0.3-0.7,0.7-1.3,1.4-1.6l2.3-1.2l16.4-8c0.4-0.2,0.7-0.8,0.5-1.4c-0.2-0.4-0.8-0.7-1.4-0.4l-16.4,8
		c-0.6,0.2-1.3,0.4-2.2,0.1c-0.7-0.3-1.3-0.7-1.6-1.4l-0.1-0.1c-0.2-0.5-0.4-1.3-0.1-2.2c0.3-0.7,0.7-1.3,1.4-1.6l8.8-4.2
		c0.4-0.2,0.7-0.8,0.5-1.4c-0.3-0.6-0.9-0.7-1.4-0.4L23.7,56c-1.2,0.5-2.1,1.5-2.5,2.8c-0.4,1.2-0.4,2.6,0.3,3.7
		c0.4,0.7,0.9,1.4,1.5,1.8l0.6,0.5l-0.5,0.6c-0.4,0.5-0.6,0.9-0.8,1.4c-0.5,1.3-0.4,2.6,0.3,3.7c0.6,1.2,1.5,2.1,2.8,2.5
		c0.5,0.2,1.1,0.3,1.6,0.3h0.8V74c0,1,0.1,1.7,0.4,2.3c0.8,1.7,2.5,2.8,4.4,2.8c0.7,0,1.4-0.2,2.1-0.5L37.1,77.5z M15.6,59
		c-0.2,0-0.6,0-1-0.2L2.1,54.5c-0.4-0.2-1-0.6-1.4-1.3c-0.3-0.5-0.3-1.2-0.2-1.9l10.7-30.5c0.3-0.7,0.7-1.1,1.3-1.4
		c0.5-0.3,1.2-0.3,1.9-0.2l12.8,4.4l0.1,0.1c0,0,0.1,0,0.1,0.1l1.9,0.7c1.4,0.5,3,0.4,4.4-0.3l1.2-0.6c2.4-1.3,5.4-1.5,8.2-0.6
		l24.5,8.4c1,0.4,1.6,1.4,1.6,2.5c0,0,0,5-3.6,7.4c-2.2,1.5-4.9,1.7-8.3,0.6l-8-2.8c-1.2,2.7-3.4,6.1-7.2,8.1
		c-2.1,1.2-4.4,1.7-7,1.7c-2.2,0-4.6-0.4-7-1.3c-0.6-0.2-1.1-0.7-1.5-1.3c-0.3-0.6-0.4-1.3-0.1-1.9c0.2-0.6,0.7-1.2,1.3-1.5
		c0.6-0.3,1.3-0.4,1.9-0.1c4,1.4,7.4,1.3,10.1-0.2c4.1-2.2,5.5-7.1,5.6-7.4l0,0c0.1-0.7,0.6-1.3,1.2-1.7c0.9-0.3,1.5-0.4,2.1-0.1
		L59,37.1c1.7,0.6,2.9,0.7,3.7,0.1c0.5-0.4,0.9-1,1.2-1.7l-22.4-7.8c-1.4-0.5-3-0.4-4.4,0.3l-1.2,0.6c-2.6,1.3-5.6,1.4-8.2,0.4l0,0
		L18,57.2c-0.3,0.7-0.7,1.2-1.3,1.5C16.4,58.8,16.1,59,15.6,59z M2.8,53.1l12.5,4.3c0.3,0.1,0.4,0.1,0.8-0.1
		c0.3-0.1,0.4-0.3,0.6-0.6L26.8,27l1.5,0.6c2.2,0.8,4.7,0.7,7-0.4l1.2-0.6c1.7-0.8,3.7-0.9,5.5-0.4l23.8,8.2l-0.1,0.7
		c-0.2,0.7-0.6,2.4-2,3.2c-1.2,0.9-2.9,0.9-5.1,0.1L48.2,35c-0.1,0-0.3-0.1-0.8,0.1c-0.2,0.1-0.3,0.3-0.4,0.6l0,0
		c-0.2,1-1.9,6-6.3,8.4c-3.1,1.7-6.9,1.8-11.3,0.3c-0.3-0.1-0.5-0.1-0.8,0.1c-0.3,0.1-0.4,0.3-0.5,0.6s-0.1,0.5,0.1,0.8
		c0.1,0.3,0.3,0.4,0.6,0.5c2.3,0.8,4.5,1.2,6.5,1.2c2.4,0,4.4-0.5,6.3-1.6c3.7-1.9,5.7-5.4,6.8-7.9l0.3-0.7l9.3,3.2
		c2.9,1,5.1,0.8,6.9-0.4c2.9-2,3-6.1,3-6.2c0-0.4-0.2-0.9-0.7-1.1l-24.4-8.4c-2.4-0.8-4.9-0.6-7,0.5l-1.2,0.6
		c-1.7,0.8-3.7,0.9-5.5,0.4l-2.2-0.8l-0.1-0.1h0c0,0-0.1,0-0.1-0.1L14,20.7c-0.2-0.1-0.6,0-0.8,0.1c-0.3,0.1-0.4,0.3-0.6,0.6L2,51.8
		C2,52,2,52.3,2.1,52.5C2.2,52.7,2.4,52.9,2.8,53.1z M86,55.2L72.6,27.9l10.2-5l13.4,27.3L86,55.2z M74.6,28.6l12.1,24.7l7.5-3.7
		L82.1,24.9L74.6,28.6z M14.9,55.2L4.3,51.5l9.9-28.9l10.7,3.7L14.9,55.2z M6.2,50.6l7.8,2.7l9-26l-7.8-2.7L6.2,50.6z M11.1,51.1
		c-0.3,0-0.7-0.1-1-0.2c-0.7-0.3-1.3-0.8-1.7-1.5c-0.3-0.7-0.4-1.5-0.1-2.2c0.6-1.5,2.2-2.3,3.7-1.8c0.7,0.2,1.3,0.7,1.6,1.3
		c0.4,0.7,0.4,1.6,0.2,2.4l0,0C13.4,50.4,12.3,51.1,11.1,51.1z M11.1,46.8c-0.6,0-1.1,0.4-1.4,1c-0.1,0.4-0.1,0.7,0.1,1.1
		c0.2,0.3,0.5,0.6,0.8,0.7c0.7,0.3,1.5-0.1,1.8-0.9c0.1-0.4,0.1-0.8-0.1-1.2c-0.2-0.3-0.4-0.5-0.7-0.6
		C11.4,46.8,11.3,46.8,11.1,46.8z M88.2,50.7c-0.2,0-0.5,0-0.7-0.1c-0.8-0.2-1.4-0.8-1.8-1.5l0,0c-0.3-0.7-0.4-1.4-0.2-2.2
		s0.7-1.3,1.4-1.6c0.7-0.3,1.4-0.4,2.2-0.2c0.7,0.2,1.3,0.7,1.6,1.4c0.7,1.4,0.1,3.1-1.3,3.8C89.1,50.6,88.6,50.7,88.2,50.7z
		 M88.2,46.6c-0.2,0-0.4,0-0.6,0.1c-0.7,0.3-0.9,1.1-0.6,1.8l0,0c0.2,0.4,0.5,0.6,0.8,0.7c0.2,0.1,0.5,0.1,0.9-0.1
		c0.7-0.4,1-1.1,0.6-1.8c-0.2-0.3-0.4-0.6-0.8-0.7C88.5,46.6,88.3,46.6,88.2,46.6z"/>
</g>
</svg>
