<?xml version="1.0" encoding="utf-8"?>
<!-- Generator: Adobe Illustrator 25.2.3, SVG Export Plug-In . SVG Version: 6.00 Build 0)  -->
<svg version="1.1" id="Layer_1" xmlns="http://www.w3.org/2000/svg" xmlns:xlink="http://www.w3.org/1999/xlink" x="0px" y="0px"
	 viewBox="0 0 100 100" style="enable-background:new 0 0 100 100;" xml:space="preserve">
<style type="text/css">
	.st0{fill:#09488F;}
</style>
<path class="st0" d="M27.4,22.4c0,8.6,7,15.6,15.7,15.6c8.6,0,15.6-7,15.6-15.7c0-8.6-7-15.6-15.7-15.6c0,0,0,0,0,0
	C34.4,6.8,27.4,13.8,27.4,22.4z M43,11.8c5.9,0,10.7,4.7,10.7,10.6c0,5.9-4.7,10.7-10.6,10.7c-5.9,0-10.7-4.7-10.7-10.6c0,0,0,0,0,0
	C32.4,16.6,37.1,11.8,43,11.8z M79.8,6.5c5.1,12.7,3.4,27.1-4.7,38.2c-0.9,1-2.5,1.1-3.5,0.1c-0.9-0.8-1.1-2.1-0.5-3.1
	c7-9.7,8.6-22.3,4.1-33.4c-0.7-1.7-2.5-2.6-4.3-2.2c-1.8,0.6-2.7,2.5-2.1,4.3c0,0,0,0,0,0.1L69,11c0.6,1.5,1.1,3,1.4,4.6
	c3.2,15.1-6.5,30-21.7,33.1c-3,0.6-6.2,0.8-9.2,0.4c-14.1-1.6-24.6-13.6-24.5-27.7c0-3.6,0.7-7.3,2.1-10.6c0.7-1.7,0-3.6-1.6-4.4
	c-1.7-0.8-3.7-0.1-4.5,1.5C11.1,7.9,11,8,11,8.1c-5.2,12.4-2.7,26.7,6.4,36.7c6.4,7,10,16.1,10,25.6V87h18.3c1.4,0,2.5,1.1,2.5,2.5
	S47.1,92,45.7,92H26.4c-2.1,0-3.9-1.7-3.9-3.9V70.4c0-8.2-3.1-16.2-8.7-22.3C3.3,36.7,0.5,20.3,6.4,6.1c1.8-4.2,6.7-6.2,10.9-4.4
	c0.1,0,0.2,0.1,0.3,0.1c4,2,5.8,6.7,4.1,10.9c-1.1,2.8-1.7,5.7-1.7,8.7c0,12.7,10.4,23,23.1,22.9c6.3,0,12.4-2.7,16.7-7.3
	c5.1-5.5,7.2-13.1,5.6-20.4c-0.3-1.3-0.7-2.6-1.2-3.8l-0.2-0.5C62.5,8,64.7,3.1,69,1.5c0.1,0,0.1-0.1,0.2-0.1
	C73.5,0.1,78.1,2.3,79.8,6.5z M72.2,50.2c-13.5,0-24.4,10.9-24.4,24.4S58.8,99,72.2,99s24.4-10.9,24.4-24.4l0,0
	C96.6,61.1,85.7,50.2,72.2,50.2z M72.2,94c-10.7,0-19.4-8.7-19.4-19.4s8.7-19.4,19.4-19.4s19.4,8.7,19.4,19.4l0,0
	C91.6,85.3,82.9,94,72.2,94z M82.3,67.8c0.8,1.1,0.5,2.7-0.6,3.5c-4,2.8-7.4,6.2-10.2,10.2c-0.5,0.7-1.2,1.1-2.1,1.1h-0.1
	c-0.9,0-1.6-0.5-2.1-1.2c-1-1.8-2.5-3.3-4.3-4.3c-1.2-0.7-1.6-2.2-0.9-3.4c0.7-1.2,2.2-1.6,3.4-0.9c0,0,0,0,0,0
	c1.5,0.9,2.8,1.9,4,3.2c2.7-3.3,5.8-6.2,9.3-8.7C80,66.4,81.5,66.7,82.3,67.8z"/>
</svg>
